if (_typeface_js && _typeface_js.loadFace) _typeface_js.loadFace({"glyphs":{"0":{"ha":694,"x_min":54,"x_max":677,"o":"m 284 -14 q 54 271 54 -14 q 102 595 54 430 q 236 842 151 760 q 442 924 321 924 q 677 645 677 924 q 628 321 677 491 q 493 69 578 151 q 284 -14 408 -14 m 558 673 q 430 869 558 869 q 328 830 372 869 q 253 712 285 791 q 195 496 221 633 q 169 234 169 359 q 201 89 169 138 q 292 40 233 40 q 427 114 373 40 q 520 363 481 188 q 558 673 558 538 z "},"1":{"ha":694,"x_min":50,"x_max":545,"o":"m 362 54 l 545 36 l 538 0 l 50 0 l 56 36 l 245 54 l 376 796 l 181 730 l 188 766 l 479 917 l 515 917 l 362 54 z "},"2":{"ha":694,"x_min":1,"x_max":664,"o":"m 557 0 l 1 0 l 18 100 l 162 205 q 391 386 311 310 q 508 544 470 461 q 547 724 547 627 q 507 829 547 796 q 392 863 468 863 q 314 852 355 863 q 245 827 273 842 l 201 715 l 157 715 l 187 890 q 402 920 317 920 q 596 868 528 920 q 664 724 664 817 q 622 553 664 635 q 494 392 580 471 q 256 208 408 314 l 113 104 l 575 104 l 557 0 z "},"3":{"ha":694,"x_min":-2,"x_max":646,"o":"m 242 -14 q 115 -2 182 -14 q -2 28 47 9 l 23 219 l 68 219 l 76 92 q 149 59 98 75 q 242 43 200 43 q 427 95 368 43 q 486 264 486 148 q 303 441 486 428 l 225 447 l 235 503 l 333 509 q 474 565 429 515 q 520 713 520 614 q 485 825 520 787 q 374 863 450 863 q 298 852 338 863 q 229 827 258 842 l 185 715 l 140 715 l 171 890 q 283 914 240 909 q 379 920 326 920 q 575 868 505 920 q 646 722 646 816 q 587 557 646 621 q 404 476 528 494 q 555 410 501 462 q 608 277 608 357 q 509 64 608 142 q 242 -14 409 -14 z "},"4":{"ha":694,"x_min":3,"x_max":663,"o":"m 511 209 l 474 0 l 364 0 l 401 209 l 3 209 l 17 290 l 526 914 l 635 914 l 526 297 l 663 297 l 648 209 l 511 209 m 510 800 l 101 297 l 416 297 l 481 664 l 510 800 z "},"5":{"ha":694,"x_min":22,"x_max":653,"o":"m 332 532 q 543 474 471 532 q 614 308 614 416 q 518 70 614 153 q 241 -14 422 -14 q 22 16 124 -14 l 47 207 l 92 207 l 100 79 q 168 53 125 64 q 251 43 212 43 q 430 106 370 43 q 490 302 490 169 q 314 475 490 475 q 178 458 241 475 l 113 458 l 192 909 l 653 909 l 635 806 l 235 806 l 184 515 q 332 532 261 532 z "},"6":{"ha":694,"x_min":56,"x_max":688,"o":"m 323 -14 q 127 70 197 -14 q 56 302 56 153 q 112 613 56 471 q 268 838 167 755 q 490 920 368 920 q 688 884 583 920 l 660 727 l 615 727 l 608 822 q 486 863 547 863 q 303 761 380 863 q 193 479 226 659 q 303 527 245 509 q 410 545 361 545 q 582 490 520 545 q 643 338 643 435 q 605 156 643 235 q 494 31 567 76 q 323 -14 422 -14 m 176 279 q 214 102 176 165 q 325 40 252 40 q 467 118 416 40 q 517 332 517 196 q 484 443 517 406 q 381 479 451 479 q 187 437 303 479 q 176 279 176 360 z "},"7":{"ha":694,"x_min":81,"x_max":742,"o":"m 186 694 l 141 694 l 179 909 l 742 909 l 732 857 l 176 0 l 81 0 l 622 806 l 229 806 l 186 694 z "},"8":{"ha":694,"x_min":29,"x_max":679,"o":"m 679 741 q 631 575 679 644 q 504 482 584 505 q 595 415 562 462 q 629 298 629 368 q 289 -14 629 -14 q 93 42 157 -14 q 29 199 29 97 q 238 482 29 420 q 166 542 195 501 q 137 644 137 582 q 216 853 137 783 q 444 924 295 924 q 679 741 679 924 m 297 40 q 456 101 404 40 q 509 303 509 162 q 362 452 509 452 q 149 196 149 452 q 297 40 149 40 m 374 511 q 510 570 463 511 q 558 741 558 629 q 529 838 558 806 q 437 869 499 869 q 301 814 347 869 q 256 641 256 759 q 286 545 256 578 q 374 511 315 511 z "},"9":{"ha":694,"x_min":41,"x_max":672,"o":"m 405 920 q 603 838 533 920 q 672 604 672 755 q 616 288 672 431 q 464 65 559 144 q 255 -14 369 -14 q 41 23 132 -14 l 67 173 l 112 173 l 119 78 q 178 54 142 64 q 252 43 214 43 q 435 146 361 43 q 536 428 509 250 q 423 378 481 395 q 319 361 366 361 q 148 422 210 361 q 85 591 85 484 q 124 764 85 689 q 235 880 163 840 q 405 920 308 920 m 552 627 q 514 804 552 741 q 404 866 476 866 q 261 794 311 866 q 212 594 212 722 q 249 468 212 509 q 353 427 287 427 q 543 468 446 427 q 552 627 552 545 z "}," ":{"ha":347,"x_min":0,"x_max":0,"o":""},"!":{"ha":463,"x_min":107,"x_max":401,"o":"m 271 62 q 248 5 271 29 q 189 -20 224 -20 q 131 5 154 -20 q 107 62 107 29 q 131 121 107 97 q 189 144 155 144 q 248 121 224 144 q 271 62 271 97 m 254 909 l 401 909 l 246 264 l 182 264 l 254 909 z "},"\"":{"ha":583,"x_min":177,"x_max":588,"o":"m 454 909 l 588 909 l 488 583 l 438 583 l 454 909 m 193 909 l 327 909 l 227 583 l 177 583 l 193 909 z "},"#":{"ha":694,"x_min":12,"x_max":716,"o":"m 667 355 l 655 286 l 479 286 l 375 0 l 304 0 l 408 286 l 198 286 l 95 0 l 24 0 l 127 286 l 12 286 l 23 355 l 153 355 l 229 564 l 60 564 l 72 633 l 254 633 l 354 909 l 425 909 l 325 633 l 534 633 l 635 909 l 705 909 l 605 633 l 716 633 l 704 564 l 581 564 l 505 355 l 667 355 m 224 355 l 434 355 l 509 564 l 300 564 l 224 355 z "},"$":{"ha":694,"x_min":16,"x_max":672,"o":"m 52 252 l 96 252 l 96 122 q 170 64 121 86 q 274 41 218 43 l 343 433 q 215 509 252 478 q 157 579 178 541 q 136 671 136 618 q 210 852 136 789 q 429 919 285 915 l 444 1006 l 500 1006 l 484 919 q 672 894 581 917 l 639 705 l 595 705 l 591 821 q 474 861 549 854 l 416 534 q 553 448 515 481 q 614 374 591 414 q 637 281 637 333 q 558 73 637 149 q 320 -12 478 -3 l 304 -106 l 248 -106 l 264 -14 q 16 50 112 -11 l 52 252 m 517 257 q 505 316 517 290 q 468 362 492 341 q 395 408 444 382 l 330 45 q 469 111 422 56 q 517 257 517 165 m 254 695 q 280 622 254 654 q 365 558 305 589 l 418 861 q 297 812 340 855 q 254 695 254 769 z "},"%":{"ha":1157,"x_min":79,"x_max":1078,"o":"m 216 -14 l 141 -14 l 949 924 l 1025 924 l 216 -14 m 260 422 q 79 600 79 422 q 112 766 79 687 q 203 884 144 845 q 352 924 262 924 q 535 748 535 924 q 528 675 535 716 q 260 422 482 422 m 431 762 q 410 845 431 817 q 339 873 389 873 q 253 837 286 873 q 200 720 220 801 q 181 579 181 638 q 201 500 181 528 q 268 472 220 472 q 355 508 320 472 q 411 622 391 545 q 431 762 431 699 m 803 -18 q 622 159 622 -18 q 629 235 622 190 q 895 484 673 484 q 1078 307 1078 484 q 1045 142 1078 222 q 952 22 1012 62 q 803 -18 893 -18 m 975 321 q 953 405 975 376 q 882 433 932 433 q 796 397 829 433 q 744 279 763 361 q 725 139 725 197 q 745 60 725 87 q 812 32 764 32 q 899 68 864 32 q 955 181 935 104 q 975 321 975 258 z "},"&":{"ha":1080,"x_min":59,"x_max":1075,"o":"m 760 747 q 733 654 760 693 q 662 587 707 616 q 493 514 616 558 l 726 241 q 852 493 826 376 l 759 511 l 765 547 l 1075 547 l 1069 511 l 971 493 q 774 184 889 308 l 888 53 l 998 37 l 991 0 l 758 0 l 682 93 q 530 10 602 34 q 372 -14 458 -14 q 140 50 222 -14 q 59 231 59 113 q 86 344 59 293 q 169 435 113 395 q 332 513 225 475 q 274 616 290 573 q 258 703 258 659 q 328 863 258 803 q 521 924 398 924 q 649 902 595 924 q 731 839 702 880 q 760 747 760 799 m 365 466 q 234 370 274 427 q 193 233 193 313 q 244 95 193 145 q 385 45 294 45 q 517 72 453 45 q 635 149 581 98 l 365 466 m 380 726 q 401 643 380 684 q 456 558 422 603 q 578 614 545 591 q 629 666 611 636 q 646 739 646 696 q 612 836 646 802 q 521 869 578 869 q 415 831 450 869 q 380 726 380 792 z "},"'":{"ha":297,"x_min":166,"x_max":316,"o":"m 182 909 l 316 909 l 216 583 l 166 583 l 182 909 z "},"(":{"ha":463,"x_min":49,"x_max":534,"o":"m 170 89 q 322 -239 170 -141 l 312 -296 q 110 -109 172 -214 q 49 144 49 -5 q 80 402 49 264 q 166 642 111 540 q 309 820 222 743 q 534 964 395 896 l 524 907 q 372 787 433 859 q 271 618 311 715 q 201 354 231 521 q 170 89 170 187 z "},")":{"ha":463,"x_min":-66,"x_max":420,"o":"m -66 -296 l -56 -239 q 93 -121 33 -192 q 193 43 153 -50 q 264 302 232 136 q 297 579 297 469 q 259 778 297 697 q 145 907 222 858 l 155 964 q 359 775 299 878 q 420 524 420 672 q 389 271 420 410 q 302 29 358 132 q 159 -152 245 -75 q -66 -296 72 -229 z "},"*":{"ha":694,"x_min":134,"x_max":694,"o":"m 134 722 l 177 819 l 391 688 l 361 909 l 467 909 l 435 688 l 650 817 l 694 721 l 469 654 l 694 589 l 650 493 l 435 621 l 467 400 l 361 400 l 391 623 l 177 490 l 134 587 l 356 654 l 134 722 z "},"+":{"ha":937,"x_min":158,"x_max":804,"o":"m 515 427 l 515 138 l 446 138 l 446 427 l 158 427 l 158 496 l 446 496 l 446 785 l 515 785 l 515 496 l 804 496 l 804 427 l 515 427 z "},",":{"ha":347,"x_min":46,"x_max":260,"o":"m 260 28 q 203 -122 260 -60 q 46 -214 147 -184 l 46 -161 q 172 -47 172 -121 q 159 -19 172 -28 q 130 0 146 -9 q 101 25 114 10 q 87 68 87 39 q 111 124 87 104 q 170 143 134 143 q 235 113 211 143 q 260 28 260 82 z "},"-":{"ha":463,"x_min":52,"x_max":412,"o":"m 52 275 l 52 379 l 412 379 l 412 275 l 52 275 z "},".":{"ha":347,"x_min":58,"x_max":222,"o":"m 222 62 q 198 5 222 29 q 140 -20 175 -20 q 81 5 104 -20 q 58 62 58 29 q 81 121 58 97 q 140 144 105 144 q 198 121 174 144 q 222 62 222 97 z "},"/":{"ha":386,"x_min":-64,"x_max":492,"o":"m 11 -14 l -64 -14 l 418 916 l 492 916 l 11 -14 z "},":":{"ha":463,"x_min":93,"x_max":353,"o":"m 257 62 q 234 5 257 29 q 175 -20 210 -20 q 116 5 140 -20 q 93 62 93 29 q 117 121 93 97 q 175 144 140 144 q 233 121 210 144 q 257 62 257 97 m 353 569 q 329 511 353 536 q 271 487 306 487 q 212 511 235 487 q 189 569 189 536 q 212 627 189 604 q 271 651 236 651 q 329 627 305 651 q 353 569 353 604 z "},";":{"ha":463,"x_min":64,"x_max":370,"o":"m 370 569 q 347 511 370 536 q 288 487 323 487 q 230 511 253 487 q 206 569 206 536 q 230 627 206 604 q 288 651 254 651 q 347 627 323 651 q 370 569 370 604 m 278 28 q 222 -122 278 -60 q 64 -214 165 -184 l 64 -161 q 191 -47 191 -121 q 177 -19 191 -28 q 148 0 164 -9 q 119 25 132 10 q 106 68 106 39 q 129 124 106 104 q 188 143 152 143 q 254 113 229 143 q 278 28 278 82 z "},"<":{"ha":937,"x_min":157,"x_max":804,"o":"m 157 444 l 157 478 l 804 796 l 804 726 l 255 461 l 804 196 l 804 126 l 157 444 z "},"=":{"ha":937,"x_min":158,"x_max":804,"o":"m 804 357 l 804 288 l 158 288 l 158 357 l 804 357 m 804 635 l 804 566 l 158 566 l 158 635 l 804 635 z "},">":{"ha":937,"x_min":157,"x_max":804,"o":"m 157 126 l 157 196 l 706 461 l 157 726 l 157 796 l 804 478 l 804 444 l 157 126 z "},"?":{"ha":694,"x_min":197,"x_max":683,"o":"m 340 237 l 286 237 l 309 464 l 409 484 q 525 553 487 498 q 562 713 562 608 q 427 863 562 863 q 343 848 387 863 q 276 814 300 833 l 242 703 l 197 703 l 218 875 q 435 920 326 920 q 683 721 683 920 q 420 422 683 479 l 380 414 l 340 237 m 370 62 q 346 5 370 29 q 288 -20 323 -20 q 230 5 253 -20 q 206 62 206 29 q 230 121 206 97 q 288 144 254 144 q 346 121 322 144 q 370 62 370 98 z "},"@":{"ha":1278,"x_min":81,"x_max":1213,"o":"m 996 -125 q 803 -232 901 -199 q 593 -264 706 -264 q 325 -200 441 -264 q 145 -19 208 -136 q 81 245 81 98 q 166 594 81 438 q 402 838 252 750 q 735 925 552 925 q 1088 816 963 925 q 1213 510 1213 707 q 1147 268 1213 381 q 970 85 1082 154 q 736 17 858 17 q 692 52 692 17 q 698 136 692 85 q 582 47 639 77 q 479 17 525 17 q 404 54 431 17 q 377 153 377 91 q 398 310 377 233 q 456 447 418 387 q 550 548 494 507 q 661 605 607 590 q 804 621 715 621 l 828 621 q 886 616 854 621 l 809 257 q 793 139 793 182 q 806 105 793 114 q 844 97 819 97 q 987 152 922 97 q 1090 306 1053 208 q 1128 509 1128 404 q 1023 774 1128 680 q 731 869 917 869 q 447 792 573 869 q 247 570 320 715 q 174 248 174 425 q 227 12 174 115 q 379 -149 279 -91 q 614 -207 479 -207 q 799 -181 715 -207 q 974 -90 884 -155 l 996 -125 m 780 547 l 747 550 q 599 520 659 550 q 504 400 540 490 q 469 210 469 311 q 523 109 469 109 q 611 130 561 109 q 702 186 661 151 l 780 547 z "},"A":{"ha":848,"x_min":-76,"x_max":853,"o":"m 179 36 l 172 0 l -76 0 l -69 36 l 7 54 l 469 917 l 599 917 l 768 54 l 853 36 l 846 0 l 524 0 l 531 36 l 628 54 l 585 317 l 227 317 l 87 54 l 179 36 m 490 819 l 257 378 l 574 378 l 490 819 z "},"B":{"ha":848,"x_min":13,"x_max":818,"o":"m 433 511 q 621 555 565 511 q 677 710 677 600 q 633 814 677 781 q 488 848 589 848 l 380 848 l 321 511 l 433 511 m 417 57 q 608 107 547 57 q 669 275 669 158 q 609 409 669 368 q 436 450 549 450 l 310 450 l 242 61 q 417 57 346 57 m 13 0 l 20 36 l 110 54 l 252 856 l 138 873 l 144 909 l 518 909 q 818 718 818 909 q 758 560 818 623 q 591 484 698 498 q 753 421 696 475 q 811 278 811 367 q 712 64 811 132 q 417 -4 614 -4 l 157 0 l 13 0 z "},"C":{"ha":926,"x_min":77,"x_max":939,"o":"m 474 -13 q 182 85 288 -13 q 77 355 77 182 q 148 652 77 523 q 347 850 218 781 q 642 920 476 920 q 939 885 785 920 l 909 686 l 865 686 l 865 804 q 763 849 823 833 q 638 865 703 865 q 418 800 515 865 q 267 614 321 734 q 213 341 213 494 q 284 119 213 195 q 486 43 355 43 q 637 66 563 43 q 757 125 711 89 l 806 261 l 850 261 l 808 47 q 641 3 730 19 q 474 -13 551 -13 z "},"D":{"ha":1003,"x_min":-16,"x_max":982,"o":"m 840 532 q 490 848 840 848 l 380 848 l 242 64 q 421 58 351 58 q 730 181 621 58 q 840 532 840 304 m 532 909 q 866 813 751 909 q 982 537 982 718 q 914 252 982 375 q 720 63 846 128 q 427 -3 593 -3 l 100 0 l -16 0 l -9 36 l 110 54 l 251 856 l 138 873 l 144 909 l 532 909 z "},"E":{"ha":848,"x_min":-16,"x_max":826,"o":"m 251 856 l 137 873 l 144 909 l 826 909 l 787 692 l 743 692 l 747 839 q 529 848 673 848 l 380 848 l 317 493 l 563 493 l 604 602 l 647 602 l 597 322 l 554 322 l 553 432 l 307 432 l 241 61 l 420 61 q 652 72 594 61 l 720 240 l 765 240 l 709 0 l -16 0 l -9 36 l 109 54 l 251 856 z "},"F":{"ha":848,"x_min":-7,"x_max":860,"o":"m 302 408 l 240 54 l 389 36 l 382 0 l -7 0 l -1 36 l 109 54 l 251 856 l 137 873 l 144 909 l 860 909 l 821 692 l 777 692 l 781 839 q 563 848 707 848 l 380 848 l 313 469 l 615 469 l 655 578 l 696 578 l 648 298 l 606 298 l 604 408 l 302 408 z "},"G":{"ha":1003,"x_min":77,"x_max":973,"o":"m 468 -12 q 180 85 283 -12 q 77 355 77 182 q 147 653 77 525 q 347 850 218 781 q 642 920 475 920 q 945 879 799 920 l 911 684 l 865 684 l 867 796 q 638 865 781 865 q 420 801 518 865 q 268 616 323 736 q 213 341 213 497 q 282 121 213 200 q 477 42 352 42 q 598 59 537 42 q 702 104 659 77 l 745 343 l 631 361 l 637 397 l 973 397 l 967 361 l 875 343 l 824 58 q 639 3 722 19 q 468 -12 556 -12 z "},"H":{"ha":1003,"x_min":-15,"x_max":1065,"o":"m -15 0 l -9 36 l 110 54 l 250 856 l 138 873 l 143 909 l 507 909 l 502 873 l 380 856 l 318 498 l 746 498 l 808 856 l 696 873 l 701 909 l 1065 909 l 1060 873 l 939 856 l 799 54 l 911 36 l 905 0 l 542 0 l 547 36 l 668 54 l 735 437 l 307 437 l 240 54 l 353 36 l 347 0 l -15 0 z "},"I":{"ha":463,"x_min":-5,"x_max":517,"o":"m 250 54 l 363 36 l 357 0 l -5 0 l 0 36 l 119 54 l 260 856 l 147 873 l 153 909 l 517 909 l 511 873 l 391 856 l 250 54 z "},"J":{"ha":616,"x_min":21,"x_max":671,"o":"m 428 856 l 315 873 l 321 909 l 671 909 l 665 873 l 558 856 l 459 293 q 181 -14 405 -14 q 92 -4 134 -14 q 21 18 49 5 l 50 175 l 94 175 l 97 81 q 134 55 106 66 q 191 45 162 45 q 308 174 286 45 l 428 856 z "},"K":{"ha":926,"x_min":-16,"x_max":986,"o":"m 986 909 l 979 873 l 873 856 l 496 547 l 800 54 l 890 36 l 884 0 l 675 0 l 397 465 l 300 386 l 240 54 l 368 36 l 361 0 l -16 0 l -9 36 l 109 54 l 251 856 l 137 873 l 144 909 l 508 909 l 501 873 l 382 856 l 315 477 l 775 856 l 694 873 l 701 909 l 986 909 z "},"L":{"ha":772,"x_min":-16,"x_max":707,"o":"m 241 58 l 386 58 q 587 72 515 58 l 663 261 l 707 261 l 648 0 l -16 0 l -9 36 l 109 54 l 251 856 l 137 873 l 144 909 l 532 909 l 525 873 l 382 856 l 241 58 z "},"M":{"ha":1157,"x_min":-16,"x_max":1221,"o":"m 489 0 l 465 0 l 309 782 l 180 54 l 300 36 l 293 0 l -16 0 l -9 36 l 109 54 l 251 856 l 137 873 l 144 909 l 403 909 l 543 216 l 948 909 l 1221 909 l 1214 873 l 1095 856 l 953 54 l 1067 36 l 1060 0 l 691 0 l 698 36 l 823 54 l 951 782 l 489 0 z "},"N":{"ha":926,"x_min":-10,"x_max":991,"o":"m 793 856 l 674 873 l 681 909 l 991 909 l 984 873 l 865 856 l 713 0 l 648 0 l 321 818 l 186 54 l 306 36 l 299 0 l -10 0 l -3 36 l 115 54 l 257 856 l 143 873 l 150 909 l 413 909 l 684 228 l 793 856 z "},"O":{"ha":1003,"x_min":70,"x_max":970,"o":"m 835 564 q 765 783 835 700 q 582 865 696 865 q 396 797 481 865 q 259 600 312 728 q 205 341 205 471 q 274 125 205 207 q 454 44 342 44 q 641 112 555 44 q 781 309 727 180 q 835 564 835 437 m 450 -14 q 253 32 340 -14 q 118 161 166 78 q 70 349 70 245 q 138 645 70 512 q 323 848 205 777 q 591 920 440 920 q 787 874 700 920 q 922 745 874 828 q 970 557 970 662 q 902 262 970 397 q 717 57 834 127 q 450 -14 600 -14 z "},"P":{"ha":848,"x_min":-7,"x_max":813,"o":"m 415 418 q 678 660 678 418 q 629 803 678 757 q 481 848 580 848 l 380 848 l 304 418 l 415 418 m 294 357 l 240 54 l 389 36 l 382 0 l -7 0 l -1 36 l 109 54 l 251 856 l 137 873 l 144 909 l 508 909 q 734 849 654 909 q 813 669 813 788 q 714 437 813 517 q 430 357 614 357 l 294 357 z "},"Q":{"ha":1003,"x_min":77,"x_max":977,"o":"m 77 349 q 144 645 77 512 q 330 848 212 777 q 597 920 447 920 q 794 874 707 920 q 929 745 881 828 q 977 557 977 662 q 929 304 977 423 q 794 108 881 186 q 591 2 707 30 q 675 -109 649 -83 q 728 -146 701 -134 q 789 -158 755 -158 l 846 -155 l 838 -200 q 776 -216 821 -207 q 700 -225 732 -225 q 584 -190 631 -225 q 471 -46 537 -154 l 451 -14 q 257 34 342 -13 q 124 162 171 80 q 77 349 77 245 m 842 564 q 772 783 842 700 q 589 865 703 865 q 403 797 488 865 q 266 600 319 728 q 212 341 212 471 q 280 125 212 207 q 461 44 349 44 q 648 112 562 44 q 788 309 734 180 q 842 564 842 437 z "},"R":{"ha":848,"x_min":-7,"x_max":825,"o":"m 301 399 l 240 54 l 361 36 l 355 0 l -7 0 l -1 36 l 109 54 l 251 856 l 137 873 l 144 909 l 505 909 q 731 853 653 909 q 809 689 809 797 q 572 418 809 475 l 726 54 l 825 36 l 819 0 l 610 0 l 443 399 l 301 399 m 418 460 q 608 518 541 460 q 675 685 675 577 q 481 848 675 848 l 380 848 l 312 460 l 418 460 z "},"S":{"ha":694,"x_min":16,"x_max":672,"o":"m 52 252 l 96 252 l 96 122 q 173 65 119 88 q 287 41 227 41 q 458 94 398 41 q 518 241 518 146 q 502 304 518 277 q 458 353 486 332 q 397 393 431 375 q 327 430 363 412 q 257 470 291 449 q 195 520 222 492 q 152 585 168 548 q 136 671 136 621 q 218 856 136 791 q 452 920 300 920 q 672 894 569 920 l 639 705 l 595 705 l 591 821 q 531 850 570 838 q 442 863 492 863 q 303 819 352 863 q 254 695 254 774 q 285 617 254 652 q 376 551 315 582 q 509 478 468 503 q 577 425 549 453 q 621 359 604 396 q 637 275 637 323 q 546 61 637 136 q 283 -14 455 -14 q 129 4 197 -14 q 16 50 61 21 l 52 252 z "},"T":{"ha":772,"x_min":91,"x_max":854,"o":"m 119 0 l 126 36 l 273 54 l 414 851 l 379 851 q 180 838 244 851 l 136 696 l 91 696 l 129 909 l 854 909 l 817 696 l 770 696 l 777 838 q 578 850 716 850 l 545 850 l 404 54 l 546 36 l 539 0 l 119 0 z "},"U":{"ha":1003,"x_min":127,"x_max":1078,"o":"m 881 856 l 762 873 l 768 909 l 1078 909 l 1072 873 l 952 856 l 857 313 q 725 72 829 157 q 460 -14 621 -14 q 220 51 302 -14 q 137 236 137 115 q 144 307 137 273 l 241 856 l 127 873 l 134 909 l 497 909 l 491 873 l 371 856 l 275 310 q 269 241 269 273 q 472 62 269 62 q 683 127 602 62 q 785 307 765 191 l 881 856 z "},"V":{"ha":848,"x_min":73,"x_max":982,"o":"m 982 909 l 975 873 l 886 856 l 393 -21 l 359 -21 l 159 856 l 73 873 l 79 909 l 414 909 l 407 873 l 292 856 l 440 192 l 804 856 l 701 873 l 709 909 l 982 909 z "},"W":{"ha":1157,"x_min":92,"x_max":1262,"o":"m 770 -21 l 727 -21 l 628 588 l 345 -21 l 300 -21 l 168 856 l 92 873 l 98 909 l 414 909 l 408 873 l 299 856 l 394 221 l 683 846 l 714 846 l 817 220 l 1101 856 l 989 873 l 995 909 l 1262 909 l 1256 873 l 1174 856 l 770 -21 z "},"X":{"ha":848,"x_min":-46,"x_max":893,"o":"m 509 511 l 671 54 l 772 36 l 765 0 l 417 0 l 424 36 l 535 54 l 416 398 l 147 54 l 257 36 l 250 0 l -46 0 l -39 36 l 63 54 l 389 465 l 250 856 l 151 873 l 157 909 l 492 909 l 485 873 l 387 856 l 482 578 l 699 856 l 609 873 l 616 909 l 893 909 l 886 873 l 783 856 l 509 511 z "},"Y":{"ha":772,"x_min":79,"x_max":896,"o":"m 413 54 l 555 36 l 548 0 l 128 0 l 135 36 l 282 54 l 335 354 l 179 856 l 79 873 l 86 909 l 457 909 l 450 873 l 319 856 l 446 431 l 713 856 l 593 873 l 600 909 l 896 909 l 889 873 l 787 856 l 467 358 l 413 54 z "},"Z":{"ha":772,"x_min":17,"x_max":784,"o":"m 615 851 l 479 851 q 247 838 311 851 l 201 694 l 154 694 l 192 909 l 784 909 l 773 851 l 181 57 l 344 57 q 508 65 425 57 q 622 79 592 73 l 692 253 l 740 253 l 677 0 l 17 0 l 28 64 l 615 851 z "},"[":{"ha":541,"x_min":80,"x_max":592,"o":"m 80 -186 l 283 964 l 592 964 l 587 932 l 380 904 l 198 -126 l 395 -154 l 389 -186 l 80 -186 z "},"\\":{"ha":386,"x_min":107,"x_max":319,"o":"m 107 916 l 174 916 l 319 -14 l 250 -14 l 107 916 z "},"]":{"ha":541,"x_min":-33,"x_max":478,"o":"m -33 -186 l -28 -154 l 178 -126 l 359 904 l 163 932 l 169 964 l 478 964 l 275 -186 l -33 -186 z "},"^":{"ha":586,"x_min":49,"x_max":663,"o":"m 339 909 l 372 909 l 663 264 l 593 264 l 355 812 l 118 264 l 49 264 l 339 909 z "},"_":{"ha":694,"x_min":-11,"x_max":705,"o":"m -11 -179 l -11 -110 l 705 -110 l 705 -179 l -11 -179 z "},"`":{"ha":463,"x_min":205,"x_max":454,"o":"m 414 758 l 205 940 l 210 965 l 347 965 l 454 781 l 451 758 l 414 758 z "},"a":{"ha":694,"x_min":41,"x_max":642,"o":"m 535 47 l 612 31 l 606 0 l 413 0 l 433 106 q 223 -14 318 -14 q 91 46 141 -14 q 41 212 41 106 q 93 434 41 331 q 232 596 145 538 q 420 654 319 654 q 575 625 503 654 l 606 648 l 642 648 l 535 47 m 515 568 q 466 593 489 586 q 409 600 443 600 q 284 549 341 600 q 195 411 228 498 q 163 230 163 324 q 193 114 163 157 q 274 71 222 71 q 441 165 351 71 l 515 568 z "},"b":{"ha":694,"x_min":52,"x_max":652,"o":"m 207 917 l 117 933 l 122 964 l 326 964 l 275 665 q 249 534 264 587 q 360 622 303 589 q 466 654 418 654 q 602 594 551 654 q 652 428 652 533 q 602 208 652 311 q 463 45 551 104 q 269 -14 374 -14 q 152 2 209 -14 q 52 43 94 17 l 207 917 m 168 73 q 277 40 208 40 q 405 91 347 40 q 497 229 464 142 q 531 410 531 315 q 499 528 531 486 q 415 570 468 570 q 329 543 375 570 q 240 475 282 517 l 168 73 z "},"c":{"ha":616,"x_min":43,"x_max":602,"o":"m 525 96 q 401 16 470 45 q 271 -14 333 -14 q 102 50 162 -14 q 43 224 43 113 q 90 439 43 342 q 225 595 138 536 q 410 654 313 654 q 512 644 458 654 q 602 619 566 634 l 571 441 l 534 441 l 523 559 q 409 602 480 602 q 287 554 344 602 q 197 420 231 506 q 163 231 163 334 q 302 57 163 57 q 505 125 399 57 l 525 96 z "},"d":{"ha":694,"x_min":42,"x_max":698,"o":"m 531 638 q 577 917 534 671 l 473 933 l 478 964 l 698 964 l 535 47 l 612 31 l 606 0 l 413 0 l 433 106 q 223 -14 318 -14 q 91 48 140 -14 q 42 215 42 111 q 92 433 42 331 q 229 594 142 535 q 419 654 315 654 q 531 638 483 654 m 515 568 q 467 592 492 583 q 406 601 441 601 q 286 551 342 601 q 197 412 231 500 q 163 230 163 324 q 193 114 163 157 q 273 71 222 71 q 356 95 311 71 q 441 165 400 120 l 515 568 z "},"e":{"ha":616,"x_min":43,"x_max":585,"o":"m 585 515 q 471 358 585 423 q 165 280 357 293 l 163 231 q 199 101 163 144 q 307 57 235 57 q 419 78 368 57 q 515 125 471 98 l 535 96 q 403 15 473 43 q 271 -14 334 -14 q 102 48 161 -14 q 43 224 43 109 q 91 435 43 337 q 223 594 138 533 q 401 654 308 654 q 535 616 484 654 q 585 515 585 578 m 171 323 q 386 386 305 333 q 467 515 467 439 q 446 578 467 553 q 386 602 425 602 q 294 564 338 602 q 216 460 249 525 q 171 323 184 395 z "},"f":{"ha":386,"x_min":16,"x_max":546,"o":"m 128 -296 l 16 -296 l 168 581 l 58 581 l 64 614 l 179 640 l 187 685 q 278 907 214 836 q 452 978 342 978 q 546 965 504 978 l 522 832 l 489 832 l 476 909 q 419 924 456 924 q 354 888 378 924 q 310 743 330 852 l 290 637 l 432 637 l 422 581 l 281 581 l 128 -296 z "},"g":{"ha":694,"x_min":1,"x_max":654,"o":"m 283 71 q 368 96 321 71 q 458 165 414 121 l 533 584 q 504 591 517 588 q 478 597 491 595 q 452 600 466 599 q 419 601 437 601 q 293 550 351 601 q 201 413 235 499 q 168 230 168 327 q 198 114 168 157 q 283 71 229 71 m 449 109 q 340 20 400 55 q 232 -14 280 -14 q 96 46 146 -14 q 47 212 47 107 q 99 433 47 331 q 239 594 151 535 q 431 654 328 654 q 537 646 472 654 q 654 626 603 638 l 540 -24 q 442 -231 515 -167 q 227 -296 369 -296 q 103 -282 167 -296 q 1 -248 39 -268 l 13 -93 l 43 -93 l 68 -178 q 226 -232 123 -232 q 357 -189 309 -232 q 422 -51 406 -146 l 449 109 z "},"h":{"ha":694,"x_min":50,"x_max":637,"o":"m 211 917 l 131 933 l 136 964 l 332 964 l 260 559 l 249 508 q 365 617 303 579 q 487 654 427 654 q 590 617 555 654 q 625 511 625 581 q 622 482 625 502 q 548 47 619 463 l 637 31 l 631 0 l 427 0 l 496 395 q 512 507 512 481 q 496 557 512 538 q 444 576 479 576 q 334 533 393 576 q 237 429 275 491 l 162 0 l 50 0 l 211 917 z "},"i":{"ha":386,"x_min":77,"x_max":344,"o":"m 198 47 l 304 31 l 299 0 l 77 0 l 181 590 l 94 607 l 99 637 l 302 637 l 198 47 m 344 846 q 322 794 344 816 q 270 772 300 772 q 218 794 240 772 q 197 846 197 816 q 218 898 197 876 q 270 920 240 920 q 322 898 300 920 q 344 846 344 876 z "},"j":{"ha":386,"x_min":-149,"x_max":352,"o":"m -40 -296 q -149 -275 -95 -296 l -126 -149 l -94 -149 l -84 -223 q -36 -241 -66 -241 q 34 -198 8 -241 q 75 -61 59 -155 l 191 590 l 98 607 l 103 637 l 311 637 l 193 -26 q 112 -230 169 -163 q -40 -296 54 -296 m 352 846 q 330 794 352 816 q 278 772 309 772 q 227 794 248 772 q 205 846 205 816 q 227 898 205 876 q 278 920 248 920 q 330 898 309 920 q 352 846 352 876 z "},"k":{"ha":616,"x_min":40,"x_max":637,"o":"m 203 917 l 111 933 l 117 964 l 323 964 l 207 307 l 497 589 l 433 607 l 439 637 l 637 637 l 631 607 l 576 591 l 377 401 l 542 46 l 608 31 l 603 0 l 443 0 l 295 325 l 195 231 l 153 0 l 40 0 l 203 917 z "},"l":{"ha":386,"x_min":74,"x_max":355,"o":"m 195 47 l 301 31 l 296 0 l 74 0 l 235 917 l 147 933 l 153 964 l 355 964 l 195 47 z "},"m":{"ha":1003,"x_min":50,"x_max":945,"o":"m 592 506 q 696 613 638 572 q 808 654 755 654 q 898 618 865 654 q 931 513 931 582 q 928 474 931 498 q 856 47 925 450 l 945 31 l 939 0 l 734 0 l 804 395 q 820 507 820 477 q 806 556 820 538 q 761 575 791 575 q 690 547 731 575 q 615 474 648 518 q 574 391 581 429 l 507 0 l 395 0 l 464 395 q 481 507 481 484 q 466 556 481 538 q 419 575 451 575 q 346 545 389 575 q 269 472 302 515 q 230 391 236 429 l 163 0 l 50 0 l 154 590 l 74 607 l 79 637 l 268 637 l 249 506 q 355 614 296 573 q 467 654 414 654 q 559 617 526 654 q 592 506 592 579 z "},"n":{"ha":694,"x_min":50,"x_max":637,"o":"m 512 507 q 496 557 512 538 q 444 576 479 576 q 335 533 394 576 q 237 427 275 490 l 162 0 l 50 0 l 153 591 l 73 608 l 79 638 l 267 638 l 249 508 q 367 618 306 581 q 487 654 428 654 q 590 617 555 654 q 625 511 625 581 q 622 482 625 502 q 548 47 619 463 l 637 31 l 631 0 l 427 0 l 496 395 q 512 507 512 481 z "},"o":{"ha":694,"x_min":41,"x_max":653,"o":"m 161 231 q 196 91 161 139 q 296 42 232 42 q 413 92 357 42 q 502 227 469 141 q 534 411 534 313 q 499 553 534 505 q 397 602 463 602 q 280 552 335 602 q 193 417 224 503 q 161 231 161 331 m 290 -14 q 109 59 177 -14 q 41 254 41 131 q 88 456 41 363 q 218 602 135 549 q 405 654 301 654 q 585 582 517 654 q 653 387 653 510 q 606 185 653 278 q 476 39 559 92 q 290 -14 393 -14 z "},"p":{"ha":694,"x_min":-81,"x_max":652,"o":"m 158 1 l 151 -60 l 118 -248 l 227 -264 l 221 -296 l -81 -296 l -76 -264 l 6 -248 l 155 590 l 85 607 l 90 637 l 270 637 l 257 534 q 471 654 376 654 q 603 594 553 654 q 652 428 652 534 q 602 206 652 309 q 463 45 551 103 q 273 -14 376 -14 q 209 -9 242 -14 q 158 1 175 -5 m 174 73 q 288 40 216 40 q 410 90 355 40 q 498 228 465 139 q 531 410 531 317 q 501 528 531 486 q 420 570 471 570 q 335 543 384 570 q 248 475 286 517 l 174 73 z "},"q":{"ha":694,"x_min":46,"x_max":662,"o":"m 284 73 q 380 86 333 73 q 459 121 427 100 l 541 584 q 403 602 472 602 q 281 553 336 602 q 196 417 227 504 q 165 233 165 331 q 196 113 165 154 q 284 73 227 73 m 455 73 q 345 10 403 33 q 237 -14 288 -14 q 95 44 144 -14 q 46 216 46 102 q 95 441 46 340 q 232 598 144 543 q 433 654 321 654 q 550 645 480 654 q 662 626 619 636 l 504 -248 l 586 -264 l 581 -296 l 383 -296 l 430 -37 q 455 73 441 22 z "},"r":{"ha":541,"x_min":56,"x_max":545,"o":"m 491 654 q 545 649 525 654 l 515 482 l 486 482 l 460 568 q 348 527 406 568 q 241 418 290 486 l 169 0 l 56 0 l 160 590 l 80 607 l 85 637 l 273 637 l 252 494 q 366 612 303 570 q 491 654 429 654 z "},"s":{"ha":541,"x_min":17,"x_max":498,"o":"m 469 187 q 404 36 469 85 q 207 -14 339 -14 q 17 28 113 -14 l 45 182 l 75 182 l 87 89 q 137 55 104 70 q 210 40 169 40 q 358 161 358 40 q 327 233 358 201 q 224 298 295 264 q 122 372 155 332 q 89 467 89 412 q 149 605 89 556 q 317 654 210 654 q 498 631 393 654 l 473 489 l 441 489 l 432 562 q 319 600 389 600 q 231 575 264 600 q 197 496 197 549 q 226 431 197 459 q 334 363 254 404 q 437 284 404 326 q 469 187 469 242 z "},"t":{"ha":386,"x_min":61,"x_max":414,"o":"m 179 118 q 194 72 179 87 q 233 57 210 57 q 336 77 283 57 l 351 45 q 182 -14 267 -14 q 97 19 128 -14 q 66 110 66 52 q 70 156 66 130 q 144 581 74 183 l 61 581 l 66 611 l 157 637 l 250 782 l 293 782 l 268 637 l 414 637 l 403 581 l 257 581 l 191 208 q 179 118 179 146 z "},"u":{"ha":694,"x_min":69,"x_max":644,"o":"m 182 131 q 198 81 182 100 q 250 62 214 62 q 359 105 300 62 q 456 209 418 147 l 532 637 l 644 637 l 541 47 l 621 31 l 615 0 l 427 0 l 445 131 q 328 21 389 58 q 207 -16 267 -16 q 104 21 138 -16 q 69 127 69 58 q 73 163 69 137 q 146 591 77 189 l 71 607 l 76 637 l 267 637 l 197 243 q 182 131 182 158 z "},"v":{"ha":616,"x_min":19,"x_max":616,"o":"m 509 547 q 495 587 509 572 q 465 607 481 602 l 470 637 l 599 637 q 616 595 616 622 q 560 446 616 535 l 273 -14 l 224 -14 l 96 590 l 19 607 l 25 637 l 199 637 l 297 141 l 466 416 q 509 547 509 487 z "},"w":{"ha":926,"x_min":33,"x_max":916,"o":"m 610 -14 l 566 -14 l 481 406 l 266 -14 l 218 -14 l 102 590 l 33 607 l 39 637 l 205 637 l 294 158 l 503 566 l 554 566 l 637 155 l 770 419 q 809 547 809 496 q 795 587 809 572 q 764 607 781 602 l 770 637 l 899 637 q 916 595 916 622 q 860 446 916 549 l 610 -14 z "},"x":{"ha":616,"x_min":-17,"x_max":606,"o":"m 96 57 q 125 31 96 38 l 119 0 l -6 0 q -17 29 -17 9 q 4 76 -17 48 q 76 150 26 104 l 261 322 l 144 590 l 72 607 l 77 637 l 245 637 l 344 395 l 428 475 q 489 540 471 516 q 507 581 507 564 q 500 592 507 587 q 467 607 494 597 l 472 637 l 592 637 q 606 608 606 627 q 513 479 606 568 l 368 343 l 498 45 l 576 31 l 571 0 l 397 0 l 284 271 l 168 160 q 114 101 131 124 q 96 57 96 77 z "},"y":{"ha":616,"x_min":-116,"x_max":617,"o":"m 35 637 l 209 637 l 307 141 l 467 416 q 510 547 510 492 q 496 587 510 572 q 465 607 481 602 l 471 637 l 600 637 q 617 595 617 622 q 561 446 617 541 l 292 -7 q 170 -193 215 -138 q 81 -274 125 -248 q -15 -300 37 -300 q -116 -288 -70 -300 l -91 -150 l -60 -150 l -50 -215 q 6 -231 -33 -231 q 199 -47 98 -231 l 230 8 l 106 590 l 30 607 l 35 637 z "},"z":{"ha":541,"x_min":-16,"x_max":522,"o":"m -16 0 l -9 31 l 373 583 l 272 583 q 198 577 234 583 q 146 559 162 570 l 109 468 l 77 468 l 107 637 l 522 637 l 517 604 l 136 54 l 269 54 q 343 63 307 54 q 403 86 379 71 l 454 186 l 486 186 l 437 0 l -16 0 z "},"{":{"ha":555,"x_min":25,"x_max":543,"o":"m 249 -186 q 138 -148 175 -186 q 102 -41 102 -109 q 107 14 102 -18 l 142 214 q 147 262 147 237 q 118 344 147 317 q 25 375 89 372 l 31 406 q 204 566 176 408 l 239 765 q 310 912 256 861 q 452 964 363 964 l 543 964 l 538 932 l 496 932 q 401 895 434 932 q 356 786 369 858 l 316 562 q 261 452 304 498 q 156 392 218 405 l 156 390 q 231 344 203 378 q 259 256 259 309 q 256 218 259 235 l 216 -8 q 210 -60 210 -37 q 304 -154 210 -154 l 346 -154 l 340 -186 l 249 -186 z "},"|":{"ha":382,"x_min":181,"x_max":250,"o":"m 181 -300 l 181 964 l 250 964 l 250 -300 l 181 -300 z "},"}":{"ha":555,"x_min":24,"x_max":543,"o":"m 24 -186 l 30 -154 l 72 -154 q 166 -117 134 -154 q 212 -8 199 -80 l 252 218 q 306 330 263 283 q 412 390 349 376 l 412 392 q 337 438 366 403 q 309 527 309 473 l 312 562 l 352 786 q 357 838 357 816 q 335 908 357 885 q 264 932 313 932 l 222 932 l 227 964 l 319 964 q 466 822 466 964 q 460 765 466 796 l 425 566 q 421 519 421 540 q 453 434 421 460 q 543 406 485 408 l 538 375 q 419 332 462 372 q 363 214 376 291 l 328 14 q 257 -133 311 -81 q 117 -186 202 -186 l 24 -186 z "},"~":{"ha":751,"x_min":57,"x_max":730,"o":"m 547 340 q 381 422 475 340 q 298 485 331 465 q 239 504 265 504 q 161 467 187 504 q 125 340 134 430 l 57 340 q 114 520 69 467 q 239 574 159 574 q 318 554 277 574 q 409 492 358 534 q 495 426 467 443 q 547 410 524 410 q 621 445 594 410 q 660 574 647 481 l 730 574 q 696 439 718 486 q 639 366 675 392 q 547 340 603 340 z "}," ":{"ha":347,"x_min":0,"x_max":0,"o":"z "},"¡":{"ha":541,"x_min":92,"x_max":387,"o":"m 222 570 q 246 627 222 603 q 304 652 269 652 q 363 627 340 652 q 387 570 387 603 q 363 511 387 535 q 304 488 339 488 q 246 511 270 488 q 222 570 222 535 m 240 -277 l 92 -277 l 248 368 l 311 368 l 240 -277 z "},"¢":{"ha":694,"x_min":104,"x_max":663,"o":"m 586 235 q 484 165 539 193 q 376 129 429 137 l 353 0 l 298 0 l 319 125 q 160 193 216 130 q 104 363 104 256 q 148 571 104 477 q 270 723 193 665 q 437 791 347 781 l 458 909 l 513 909 l 493 793 q 663 758 590 787 l 632 581 l 595 581 l 584 699 q 484 741 546 736 l 388 197 q 566 264 474 203 l 586 235 m 224 370 q 332 199 224 218 l 427 735 q 281 609 338 711 q 224 370 224 507 z "},"£":{"ha":694,"x_min":18,"x_max":695,"o":"m 604 104 l 586 0 l 18 0 l 31 79 l 94 127 q 186 222 155 174 q 217 323 217 271 q 201 427 217 360 l 91 427 l 101 482 l 187 482 q 170 606 170 547 q 256 838 170 757 q 502 920 342 920 q 695 890 595 920 l 665 702 l 621 702 l 616 829 q 560 853 594 843 q 492 863 526 863 q 339 788 393 863 q 286 577 286 714 l 289 482 l 477 482 l 467 427 l 290 427 q 280 311 288 356 q 237 203 271 252 q 136 104 203 155 l 604 104 z "},"¤":{"ha":694,"x_min":71,"x_max":637,"o":"m 90 458 q 144 619 90 549 l 71 692 l 121 742 l 192 668 q 353 724 265 724 q 515 668 441 724 l 588 742 l 637 693 l 563 619 q 618 458 618 545 q 563 297 618 370 l 637 225 l 588 176 l 515 249 q 353 195 445 195 q 192 249 263 195 l 120 176 l 71 225 l 144 297 q 90 458 90 368 m 155 458 q 181 360 155 406 q 254 287 208 314 q 353 260 300 260 q 494 318 435 260 q 553 458 553 376 q 494 600 553 541 q 353 659 435 659 q 255 632 301 659 q 182 559 210 606 q 155 458 155 512 z "},"¥":{"ha":694,"x_min":64,"x_max":789,"o":"m 583 267 l 573 211 l 384 211 l 357 54 l 470 36 l 464 0 l 100 0 l 106 36 l 227 54 l 254 211 l 64 211 l 75 267 l 264 267 l 279 354 l 275 378 l 94 378 l 104 433 l 260 433 l 156 856 l 92 873 l 98 909 l 389 909 l 383 873 l 291 856 l 384 430 l 629 856 l 549 873 l 555 909 l 789 909 l 783 873 l 709 856 l 455 433 l 612 433 l 603 378 l 422 378 l 410 358 l 394 267 l 583 267 z "},"¦":{"ha":382,"x_min":181,"x_max":250,"o":"m 181 543 l 181 964 l 250 964 l 250 543 l 181 543 m 181 -300 l 181 122 l 250 122 l 250 -300 l 181 -300 z "},"§":{"ha":694,"x_min":45,"x_max":635,"o":"m 532 47 q 252 -174 532 -174 q 141 -163 200 -174 q 45 -137 82 -153 l 73 19 l 103 19 l 116 -74 q 177 -109 136 -94 q 260 -123 218 -123 q 381 -87 340 -123 q 422 13 422 -52 q 388 93 422 56 q 274 174 353 129 q 162 263 198 216 q 125 368 125 309 q 179 504 125 450 q 336 573 233 558 q 244 649 272 608 q 217 739 217 689 q 277 888 217 834 q 450 942 338 942 q 635 918 528 942 l 610 777 l 580 777 l 570 850 q 452 888 526 888 q 359 860 393 888 q 324 775 324 833 q 338 727 324 748 q 375 689 351 707 q 474 632 399 671 q 564 573 536 600 q 608 515 592 547 q 623 444 623 483 q 566 300 623 356 q 405 231 509 245 q 503 144 473 188 q 532 47 532 100 m 513 410 q 490 475 513 446 q 406 536 466 505 q 280 495 328 532 q 233 397 233 458 q 260 325 233 354 q 334 274 288 296 q 470 312 427 277 q 513 410 513 346 z "},"¨":{"ha":463,"x_min":139,"x_max":515,"o":"m 515 835 q 496 786 515 806 q 449 766 477 766 q 401 787 420 766 q 381 835 381 808 q 401 883 381 863 q 449 903 420 903 q 496 883 477 903 q 515 835 515 863 m 274 835 q 255 786 274 806 q 208 766 236 766 q 159 787 180 766 q 139 835 139 807 q 160 883 139 863 q 208 903 181 903 q 255 883 236 903 q 274 835 274 863 z "},"©":{"ha":1055,"x_min":80,"x_max":1017,"o":"m 80 454 q 143 691 80 583 q 314 862 207 800 q 548 924 422 924 q 783 861 675 924 q 955 691 892 799 q 1017 454 1017 583 q 956 221 1017 329 q 786 50 895 114 q 548 -14 677 -14 q 313 49 422 -14 q 142 220 205 111 q 80 454 80 328 m 127 454 q 184 243 127 341 q 338 89 241 145 q 548 33 435 33 q 759 89 661 33 q 913 243 857 145 q 970 454 970 340 q 913 667 970 568 q 758 821 855 765 q 548 876 661 876 q 337 820 435 876 q 183 665 239 763 q 127 454 127 567 m 559 175 q 352 247 427 175 q 277 450 277 319 q 349 664 277 592 q 561 736 420 736 q 743 715 639 736 l 745 589 l 712 589 l 699 660 q 564 694 644 694 q 420 637 464 694 q 377 452 377 579 q 559 215 377 215 q 705 256 655 215 l 720 336 l 753 336 l 751 201 q 559 175 667 175 z "},"ª":{"ha":383,"x_min":62,"x_max":438,"o":"m 372 567 l 431 557 l 425 530 l 289 530 l 297 581 q 170 520 240 520 q 92 561 122 520 q 62 667 62 601 q 92 798 62 739 q 176 890 121 857 q 302 924 231 924 q 392 906 347 924 l 396 908 l 418 920 l 438 920 l 372 567 m 345 867 q 278 885 315 885 q 184 825 220 885 q 148 673 148 764 q 209 578 148 578 q 298 607 250 578 l 345 867 z "},"«":{"ha":694,"x_min":75,"x_max":685,"o":"m 366 578 l 407 578 l 190 310 l 314 50 l 273 50 l 75 292 l 83 336 l 366 578 m 644 578 l 685 578 l 467 310 l 592 50 l 551 50 l 353 292 l 360 336 l 644 578 z "},"¬":{"ha":937,"x_min":153,"x_max":799,"o":"m 799 496 l 799 138 l 729 138 l 729 427 l 153 427 l 153 496 l 799 496 z "},"­":{"ha":463,"x_min":52,"x_max":412,"o":"m 52 275 l 52 379 l 412 379 l 412 275 l 52 275 z "},"®":{"ha":1055,"x_min":80,"x_max":1017,"o":"m 80 454 q 143 691 80 583 q 314 862 207 800 q 548 924 422 924 q 783 861 675 924 q 955 691 892 799 q 1017 454 1017 583 q 956 221 1017 329 q 786 50 895 114 q 548 -14 677 -14 q 313 49 422 -14 q 142 220 205 111 q 80 454 80 328 m 127 454 q 184 243 127 341 q 338 89 241 145 q 548 33 435 33 q 759 89 661 33 q 913 243 857 145 q 970 454 970 340 q 913 667 970 568 q 758 821 855 765 q 548 876 661 876 q 337 820 435 876 q 183 665 239 763 q 127 454 127 567 m 473 424 l 473 228 l 551 216 l 551 187 l 316 187 l 316 216 l 381 228 l 381 694 l 311 705 l 311 733 l 534 733 q 694 694 640 733 q 748 583 748 655 q 718 493 748 531 q 627 436 687 455 l 772 228 l 829 216 l 829 187 l 690 187 l 534 424 l 473 424 m 652 582 q 623 667 652 642 q 516 692 594 692 l 473 692 l 473 467 l 519 467 q 622 492 591 467 q 652 582 652 517 z "},"¯":{"ha":694,"x_min":99,"x_max":817,"o":"m 817 985 l 99 985 l 99 1048 l 817 1048 l 817 985 z "},"°":{"ha":555,"x_min":111,"x_max":532,"o":"m 111 713 q 139 818 111 769 q 216 895 167 867 q 321 924 265 924 q 427 896 378 924 q 504 819 475 867 q 532 713 532 770 q 504 607 532 656 q 426 530 475 557 q 321 503 377 503 q 172 564 233 503 q 111 713 111 625 m 180 713 q 222 611 180 652 q 321 570 264 570 q 422 612 381 570 q 463 713 463 653 q 422 814 463 773 q 321 856 381 856 q 222 815 264 856 q 180 713 180 774 z "},"±":{"ha":762,"x_min":64,"x_max":711,"o":"m 422 427 l 422 138 l 352 138 l 352 427 l 64 427 l 64 496 l 352 496 l 352 785 l 422 785 l 422 496 l 711 496 l 711 427 l 422 427 m 711 69 l 711 0 l 64 0 l 64 69 l 711 69 z "},"²":{"ha":416,"x_min":33,"x_max":435,"o":"m 371 363 l 33 363 l 43 428 q 237 582 186 532 q 313 682 288 632 q 338 787 338 732 q 319 846 338 823 q 262 869 300 869 q 181 847 220 869 l 155 781 l 118 781 l 139 897 q 271 916 216 916 q 392 881 349 916 q 435 787 435 846 q 388 659 435 722 q 239 522 342 596 l 121 436 l 384 436 l 371 363 z "},"³":{"ha":416,"x_min":28,"x_max":434,"o":"m 176 354 q 28 372 100 354 l 45 498 l 83 498 l 87 422 q 126 407 101 414 q 176 400 151 400 q 280 432 245 400 q 315 532 315 464 q 221 623 315 615 l 163 627 l 172 671 l 231 673 q 309 705 279 675 q 338 796 338 734 q 256 869 338 869 q 175 850 212 869 l 149 781 l 112 781 l 133 897 q 263 916 205 916 q 388 884 341 916 q 434 798 434 852 q 395 698 434 736 q 280 648 357 660 q 378 611 345 641 q 411 534 411 582 q 348 404 411 454 q 176 354 286 354 z "},"´":{"ha":463,"x_min":168,"x_max":481,"o":"m 168 758 l 172 781 l 337 965 l 481 965 l 477 940 l 205 758 l 168 758 z "},"µ":{"ha":800,"x_min":18,"x_max":695,"o":"m 488 84 q 313 -14 390 -14 q 220 39 241 -14 q 138 -296 187 -151 l 18 -296 l 24 -265 q 73 -127 47 -217 q 113 47 98 -37 l 209 590 l 117 607 l 123 637 l 330 637 l 252 195 l 250 164 q 275 91 250 117 q 345 65 301 65 q 421 87 377 65 q 496 144 465 110 l 585 637 l 695 637 l 591 47 l 681 31 l 675 0 l 487 0 l 488 84 z "},"¶":{"ha":726,"x_min":82,"x_max":690,"o":"m 627 859 l 627 -175 l 563 -175 l 563 859 l 448 859 l 448 -175 l 384 -175 l 385 383 q 163 455 243 383 q 82 653 82 526 q 158 843 82 777 q 376 909 234 909 l 690 909 l 690 873 l 627 859 z "},"·":{"ha":347,"x_min":112,"x_max":276,"o":"m 276 460 q 252 401 276 425 q 194 378 229 378 q 136 401 159 378 q 112 460 112 425 q 135 517 112 493 q 194 542 159 542 q 253 517 229 542 q 276 460 276 493 z "},"¸":{"ha":463,"x_min":77,"x_max":357,"o":"m 357 -144 q 308 -250 357 -210 q 168 -290 260 -290 q 77 -275 119 -290 l 93 -224 q 159 -235 125 -235 q 226 -217 200 -235 q 252 -159 252 -198 q 229 -110 252 -130 q 161 -85 205 -90 l 208 18 l 266 18 l 243 -37 q 327 -71 298 -43 q 357 -144 357 -98 z "},"¹":{"ha":416,"x_min":47,"x_max":374,"o":"m 263 406 l 374 396 l 368 363 l 47 363 l 52 396 l 165 406 l 240 829 l 124 790 l 130 822 l 304 913 l 353 913 l 263 406 z "},"º":{"ha":431,"x_min":77,"x_max":456,"o":"m 292 885 q 201 825 239 885 q 163 677 163 766 q 183 592 163 622 q 239 562 203 562 q 331 623 294 562 q 369 768 369 683 q 349 856 369 826 q 292 885 329 885 m 231 522 q 120 565 162 522 q 77 683 77 608 q 106 805 77 749 q 186 892 135 861 q 302 924 238 924 q 413 881 371 924 q 456 763 456 838 q 392 591 456 661 q 231 522 329 522 z "},"»":{"ha":694,"x_min":9,"x_max":618,"o":"m 328 50 l 287 50 l 505 319 l 380 578 l 421 578 l 618 336 l 611 292 l 328 50 m 50 50 l 9 50 l 227 319 l 102 578 l 143 578 l 341 336 l 334 292 l 50 50 z "},"¼":{"ha":1042,"x_min":49,"x_max":994,"o":"m 280 0 l 211 0 l 865 909 l 932 909 l 280 0 m 265 406 l 376 396 l 370 363 l 49 363 l 54 396 l 168 406 l 242 829 l 126 790 l 132 822 l 306 913 l 355 913 l 265 406 m 899 109 l 880 1 l 784 1 l 803 109 l 555 109 l 568 174 l 905 547 l 977 547 l 912 178 l 994 178 l 981 109 l 899 109 m 861 435 l 860 435 l 627 178 l 816 178 l 861 435 z "},"½":{"ha":1042,"x_min":49,"x_max":1004,"o":"m 243 0 l 174 0 l 827 909 l 895 909 l 243 0 m 265 406 l 376 396 l 370 363 l 49 363 l 54 396 l 168 406 l 242 829 l 126 790 l 132 822 l 306 913 l 355 913 l 265 406 m 940 1 l 602 1 l 612 66 q 806 220 755 170 q 882 320 857 270 q 907 425 907 370 q 888 484 907 460 q 831 507 869 507 q 750 485 789 507 l 724 418 l 687 418 l 708 535 q 840 553 785 553 q 961 519 918 553 q 1004 425 1004 484 q 957 297 1004 359 q 808 160 911 234 l 690 74 l 953 74 l 940 1 z "},"¾":{"ha":1042,"x_min":81,"x_max":995,"o":"m 280 0 l 211 0 l 865 909 l 932 909 l 280 0 m 229 354 q 81 372 153 354 l 98 498 l 136 498 l 140 422 q 179 407 154 414 q 229 400 203 400 q 333 432 298 400 q 368 532 368 464 q 274 623 368 615 l 216 627 l 224 671 l 283 673 q 362 705 332 675 q 391 796 391 734 q 309 869 391 869 q 228 850 264 869 l 202 781 l 165 781 l 186 897 q 316 916 258 916 q 440 884 394 916 q 487 798 487 852 q 448 698 487 736 q 333 648 410 660 q 431 611 397 641 q 464 534 464 582 q 401 404 464 454 q 229 354 338 354 m 900 109 l 881 1 l 785 1 l 804 109 l 556 109 l 568 174 l 905 547 l 978 547 l 913 178 l 995 178 l 982 109 l 900 109 m 862 435 l 861 435 l 627 178 l 817 178 l 862 435 z "},"¿":{"ha":694,"x_min":60,"x_max":545,"o":"m 402 395 l 456 395 l 434 168 l 334 149 q 218 78 255 133 q 180 -81 180 24 q 315 -231 180 -231 q 397 -216 355 -231 q 467 -182 439 -202 l 500 -71 l 545 -71 l 524 -243 q 308 -288 416 -288 q 60 -89 60 -288 q 322 210 60 154 l 362 218 l 402 395 m 373 570 q 396 627 373 603 q 454 652 420 652 q 513 627 490 652 q 536 570 536 603 q 513 511 536 535 q 454 488 489 488 q 397 511 420 488 q 373 570 373 534 z "},"À":{"ha":848,"x_min":-76,"x_max":853,"o":"m 179 36 l 172 0 l -76 0 l -69 36 l 7 54 l 469 917 l 599 917 l 768 54 l 853 36 l 846 0 l 524 0 l 531 36 l 628 54 l 585 317 l 227 317 l 87 54 l 179 36 m 490 819 l 257 378 l 574 378 l 490 819 m 591 985 l 382 1166 l 387 1192 l 524 1192 l 631 1007 l 628 985 l 591 985 z "},"Á":{"ha":848,"x_min":-76,"x_max":853,"o":"m 179 36 l 172 0 l -76 0 l -69 36 l 7 54 l 469 917 l 599 917 l 768 54 l 853 36 l 846 0 l 524 0 l 531 36 l 628 54 l 585 317 l 227 317 l 87 54 l 179 36 m 490 819 l 257 378 l 574 378 l 490 819 m 469 985 l 472 1007 l 637 1192 l 782 1192 l 778 1166 l 506 985 l 469 985 z "},"Â":{"ha":848,"x_min":-76,"x_max":853,"o":"m 179 36 l 172 0 l -76 0 l -69 36 l 7 54 l 469 917 l 599 917 l 768 54 l 853 36 l 846 0 l 524 0 l 531 36 l 628 54 l 585 317 l 227 317 l 87 54 l 179 36 m 490 819 l 257 378 l 574 378 l 490 819 m 330 985 l 333 1007 l 492 1192 l 637 1192 l 731 1007 l 728 985 l 696 985 l 556 1109 l 373 985 l 330 985 z "},"Ã":{"ha":848,"x_min":-76,"x_max":853,"o":"m 179 36 l 172 0 l -76 0 l -69 36 l 7 54 l 469 917 l 599 917 l 768 54 l 853 36 l 846 0 l 524 0 l 531 36 l 628 54 l 585 317 l 227 317 l 87 54 l 179 36 m 490 819 l 257 378 l 574 378 l 490 819 m 625 1003 q 568 1018 593 1003 q 522 1050 543 1032 q 480 1083 500 1068 q 438 1097 460 1097 q 402 1089 416 1097 q 379 1068 389 1082 q 356 1017 369 1055 l 321 1017 q 382 1142 342 1103 q 482 1181 422 1181 q 540 1166 515 1181 q 586 1134 565 1152 q 628 1101 608 1116 q 669 1086 648 1086 q 717 1103 698 1086 q 751 1166 736 1119 l 787 1166 q 725 1042 765 1082 q 625 1003 686 1003 z "},"Ä":{"ha":848,"x_min":-76,"x_max":853,"o":"m 179 36 l 172 0 l -76 0 l -69 36 l 7 54 l 469 917 l 599 917 l 768 54 l 853 36 l 846 0 l 524 0 l 531 36 l 628 54 l 585 317 l 227 317 l 87 54 l 179 36 m 490 819 l 257 378 l 574 378 l 490 819 m 743 1061 q 724 1013 743 1033 q 677 993 705 993 q 629 1014 648 993 q 609 1061 609 1035 q 629 1109 609 1090 q 677 1129 648 1129 q 724 1109 705 1129 q 743 1061 743 1090 m 502 1061 q 483 1013 502 1033 q 435 993 464 993 q 387 1013 408 993 q 367 1061 367 1034 q 388 1109 367 1090 q 435 1129 409 1129 q 483 1109 464 1129 q 502 1061 502 1090 z "},"Å":{"ha":848,"x_min":-76,"x_max":853,"o":"m 673 1000 q 655 930 673 962 q 606 882 636 899 l 768 54 l 853 36 l 846 0 l 524 0 l 531 36 l 628 54 l 585 317 l 227 317 l 87 54 l 179 36 l 172 0 l -76 0 l -69 36 l 7 54 l 454 888 q 413 937 429 907 q 398 1000 398 966 q 438 1098 398 1057 q 536 1138 479 1138 q 633 1098 593 1138 q 673 1000 673 1057 m 490 819 l 257 378 l 574 378 l 490 819 m 619 1000 q 595 1059 619 1035 q 536 1084 570 1084 q 477 1059 501 1084 q 452 1000 452 1035 q 476 942 452 966 q 532 917 499 917 l 536 917 q 594 941 568 917 q 619 1000 619 964 z "},"Æ":{"ha":1235,"x_min":-99,"x_max":1213,"o":"m 542 317 l 262 317 l 76 54 l 180 36 l 174 0 l -99 0 l -93 36 l -4 54 l 576 861 l 468 873 l 474 909 l 1213 909 l 1174 692 l 1129 692 l 1133 839 q 916 848 1059 848 l 767 848 l 704 493 l 949 493 l 990 602 l 1034 602 l 984 322 l 941 322 l 939 432 l 694 432 l 628 61 l 807 61 q 1038 72 981 61 l 1107 240 l 1152 240 l 1096 0 l 370 0 l 377 36 l 496 54 l 542 317 m 307 378 l 553 378 l 633 835 l 307 378 z "},"Ç":{"ha":926,"x_min":77,"x_max":939,"o":"m 474 -13 q 182 85 288 -13 q 77 355 77 182 q 148 652 77 523 q 347 850 218 781 q 642 920 476 920 q 939 885 785 920 l 909 686 l 865 686 l 865 804 q 763 849 823 833 q 638 865 703 865 q 418 800 515 865 q 267 614 321 734 q 213 341 213 494 q 284 119 213 195 q 486 43 355 43 q 637 66 563 43 q 757 125 711 89 l 806 261 l 850 261 l 808 47 q 641 3 730 19 q 474 -13 551 -13 m 593 -144 q 545 -250 593 -210 q 404 -290 496 -290 q 314 -275 355 -290 l 330 -224 q 395 -235 362 -235 q 463 -217 437 -235 q 488 -159 488 -198 q 465 -110 488 -130 q 398 -85 442 -90 l 444 18 l 503 18 l 480 -37 q 564 -71 534 -43 q 593 -144 593 -98 z "},"È":{"ha":848,"x_min":-16,"x_max":826,"o":"m 251 856 l 137 873 l 144 909 l 826 909 l 787 692 l 743 692 l 747 839 q 529 848 673 848 l 380 848 l 317 493 l 563 493 l 604 602 l 647 602 l 597 322 l 554 322 l 553 432 l 307 432 l 241 61 l 420 61 q 652 72 594 61 l 720 240 l 765 240 l 709 0 l -16 0 l -9 36 l 109 54 l 251 856 m 585 985 l 377 1166 l 381 1192 l 519 1192 l 626 1007 l 623 985 l 585 985 z "},"É":{"ha":848,"x_min":-16,"x_max":826,"o":"m 251 856 l 137 873 l 144 909 l 826 909 l 787 692 l 743 692 l 747 839 q 529 848 673 848 l 380 848 l 317 493 l 563 493 l 604 602 l 647 602 l 597 322 l 554 322 l 553 432 l 307 432 l 241 61 l 420 61 q 652 72 594 61 l 720 240 l 765 240 l 709 0 l -16 0 l -9 36 l 109 54 l 251 856 m 445 985 l 448 1007 l 614 1192 l 758 1192 l 754 1166 l 482 985 l 445 985 z "},"Ê":{"ha":848,"x_min":-16,"x_max":826,"o":"m 251 856 l 137 873 l 144 909 l 826 909 l 787 692 l 743 692 l 747 839 q 529 848 673 848 l 380 848 l 317 493 l 563 493 l 604 602 l 647 602 l 597 322 l 554 322 l 553 432 l 307 432 l 241 61 l 420 61 q 652 72 594 61 l 720 240 l 765 240 l 709 0 l -16 0 l -9 36 l 109 54 l 251 856 m 351 985 l 354 1007 l 513 1192 l 658 1192 l 752 1007 l 749 985 l 717 985 l 577 1109 l 394 985 l 351 985 z "},"Ë":{"ha":848,"x_min":-16,"x_max":826,"o":"m 251 856 l 137 873 l 144 909 l 826 909 l 787 692 l 743 692 l 747 839 q 529 848 673 848 l 380 848 l 317 493 l 563 493 l 604 602 l 647 602 l 597 322 l 554 322 l 553 432 l 307 432 l 241 61 l 420 61 q 652 72 594 61 l 720 240 l 765 240 l 709 0 l -16 0 l -9 36 l 109 54 l 251 856 m 727 1082 q 708 1034 727 1054 q 661 1014 689 1014 q 612 1035 632 1014 q 593 1082 593 1056 q 612 1131 593 1111 q 661 1150 632 1150 q 708 1131 689 1150 q 727 1082 727 1111 m 486 1082 q 467 1034 486 1054 q 419 1014 448 1014 q 371 1034 391 1014 q 351 1082 351 1055 q 372 1131 351 1111 q 419 1150 393 1150 q 467 1131 448 1150 q 486 1082 486 1111 z "},"Ì":{"ha":463,"x_min":-5,"x_max":517,"o":"m 250 54 l 363 36 l 357 0 l -5 0 l 0 36 l 119 54 l 260 856 l 147 873 l 153 909 l 517 909 l 511 873 l 391 856 l 250 54 m 406 985 l 197 1166 l 201 1192 l 339 1192 l 446 1007 l 443 985 l 406 985 z "},"Í":{"ha":463,"x_min":-5,"x_max":586,"o":"m 250 54 l 363 36 l 357 0 l -5 0 l 0 36 l 119 54 l 260 856 l 147 873 l 153 909 l 517 909 l 511 873 l 391 856 l 250 54 m 273 985 l 276 1007 l 441 1192 l 586 1192 l 582 1166 l 310 985 l 273 985 z "},"Î":{"ha":463,"x_min":-5,"x_max":550,"o":"m 250 54 l 363 36 l 357 0 l -5 0 l 0 36 l 119 54 l 260 856 l 147 873 l 153 909 l 517 909 l 511 873 l 391 856 l 250 54 m 149 985 l 152 1007 l 311 1192 l 456 1192 l 550 1007 l 547 985 l 515 985 l 375 1109 l 192 985 l 149 985 z "},"Ï":{"ha":463,"x_min":-5,"x_max":547,"o":"m 250 54 l 363 36 l 357 0 l -5 0 l 0 36 l 119 54 l 260 856 l 147 873 l 153 909 l 517 909 l 511 873 l 391 856 l 250 54 m 547 1082 q 528 1034 547 1054 q 480 1014 509 1014 q 432 1035 452 1014 q 412 1082 412 1056 q 432 1131 412 1111 q 480 1150 452 1150 q 528 1131 509 1150 q 547 1082 547 1111 m 305 1082 q 286 1034 305 1054 q 239 1014 267 1014 q 191 1034 211 1014 q 170 1082 170 1055 q 191 1131 170 1111 q 239 1150 212 1150 q 286 1131 267 1150 q 305 1082 305 1111 z "},"Ð":{"ha":1003,"x_min":-16,"x_max":982,"o":"m 532 909 q 866 813 751 909 q 982 537 982 718 q 914 252 982 375 q 720 63 846 128 q 427 -3 593 -3 l 100 0 l -16 0 l -9 36 l 110 54 l 175 427 l 53 427 l 63 482 l 185 482 l 251 856 l 138 873 l 144 909 l 532 909 m 840 532 q 490 848 840 848 l 380 848 l 316 482 l 570 482 l 560 427 l 306 427 l 242 64 q 421 58 351 58 q 730 181 621 58 q 840 532 840 304 z "},"Ñ":{"ha":926,"x_min":-10,"x_max":991,"o":"m 793 856 l 674 873 l 681 909 l 991 909 l 984 873 l 865 856 l 713 0 l 648 0 l 321 818 l 186 54 l 306 36 l 299 0 l -10 0 l -3 36 l 115 54 l 257 856 l 143 873 l 150 909 l 413 909 l 684 228 l 793 856 m 686 1003 q 629 1018 654 1003 q 583 1050 604 1032 q 542 1083 562 1068 q 499 1097 522 1097 q 464 1089 477 1097 q 440 1068 450 1082 q 417 1017 430 1055 l 382 1017 q 443 1142 404 1103 q 543 1181 483 1181 q 601 1166 576 1181 q 647 1134 626 1152 q 689 1101 669 1116 q 730 1086 709 1086 q 778 1103 759 1086 q 812 1166 797 1119 l 848 1166 q 786 1042 826 1082 q 686 1003 747 1003 z "},"Ò":{"ha":1003,"x_min":70,"x_max":970,"o":"m 835 564 q 765 783 835 700 q 582 865 696 865 q 396 797 481 865 q 259 600 312 728 q 205 341 205 471 q 274 125 205 207 q 454 44 342 44 q 641 112 555 44 q 781 309 727 180 q 835 564 835 437 m 450 -14 q 253 32 340 -14 q 118 161 166 78 q 70 349 70 245 q 138 645 70 512 q 323 848 205 777 q 591 920 440 920 q 787 874 700 920 q 922 745 874 828 q 970 557 970 662 q 902 262 970 397 q 717 57 834 127 q 450 -14 600 -14 m 705 985 l 497 1166 l 501 1192 l 639 1192 l 746 1007 l 743 985 l 705 985 z "},"Ó":{"ha":1003,"x_min":70,"x_max":970,"o":"m 835 564 q 765 783 835 700 q 582 865 696 865 q 396 797 481 865 q 259 600 312 728 q 205 341 205 471 q 274 125 205 207 q 454 44 342 44 q 641 112 555 44 q 781 309 727 180 q 835 564 835 437 m 450 -14 q 253 32 340 -14 q 118 161 166 78 q 70 349 70 245 q 138 645 70 512 q 323 848 205 777 q 591 920 440 920 q 787 874 700 920 q 922 745 874 828 q 970 557 970 662 q 902 262 970 397 q 717 57 834 127 q 450 -14 600 -14 m 567 985 l 570 1007 l 736 1192 l 880 1192 l 876 1166 l 604 985 l 567 985 z "},"Ô":{"ha":1003,"x_min":70,"x_max":970,"o":"m 835 564 q 765 783 835 700 q 582 865 696 865 q 396 797 481 865 q 259 600 312 728 q 205 341 205 471 q 274 125 205 207 q 454 44 342 44 q 641 112 555 44 q 781 309 727 180 q 835 564 835 437 m 450 -14 q 253 32 340 -14 q 118 161 166 78 q 70 349 70 245 q 138 645 70 512 q 323 848 205 777 q 591 920 440 920 q 787 874 700 920 q 922 745 874 828 q 970 557 970 662 q 902 262 970 397 q 717 57 834 127 q 450 -14 600 -14 m 425 985 l 428 1007 l 587 1192 l 732 1192 l 826 1007 l 823 985 l 791 985 l 651 1109 l 468 985 l 425 985 z "},"Õ":{"ha":1003,"x_min":70,"x_max":970,"o":"m 835 564 q 765 783 835 700 q 582 865 696 865 q 396 797 481 865 q 259 600 312 728 q 205 341 205 471 q 274 125 205 207 q 454 44 342 44 q 641 112 555 44 q 781 309 727 180 q 835 564 835 437 m 450 -14 q 253 32 340 -14 q 118 161 166 78 q 70 349 70 245 q 138 645 70 512 q 323 848 205 777 q 591 920 440 920 q 787 874 700 920 q 922 745 874 828 q 970 557 970 662 q 902 262 970 397 q 717 57 834 127 q 450 -14 600 -14 m 707 1003 q 650 1018 675 1003 q 604 1050 625 1032 q 563 1083 583 1068 q 520 1097 543 1097 q 485 1089 498 1097 q 461 1068 471 1082 q 438 1017 451 1055 l 403 1017 q 464 1142 425 1103 q 564 1181 504 1181 q 622 1166 597 1181 q 668 1134 647 1152 q 710 1101 690 1116 q 751 1086 730 1086 q 799 1103 780 1086 q 833 1166 818 1119 l 869 1166 q 807 1042 847 1082 q 707 1003 768 1003 z "},"Ö":{"ha":1003,"x_min":70,"x_max":970,"o":"m 835 564 q 765 783 835 700 q 582 865 696 865 q 396 797 481 865 q 259 600 312 728 q 205 341 205 471 q 274 125 205 207 q 454 44 342 44 q 641 112 555 44 q 781 309 727 180 q 835 564 835 437 m 450 -14 q 253 32 340 -14 q 118 161 166 78 q 70 349 70 245 q 138 645 70 512 q 323 848 205 777 q 591 920 440 920 q 787 874 700 920 q 922 745 874 828 q 970 557 970 662 q 902 262 970 397 q 717 57 834 127 q 450 -14 600 -14 m 810 1082 q 791 1034 810 1054 q 743 1014 772 1014 q 695 1035 715 1014 q 675 1082 675 1056 q 695 1131 675 1111 q 743 1150 715 1150 q 791 1131 772 1150 q 810 1082 810 1111 m 568 1082 q 549 1034 568 1054 q 502 1014 530 1014 q 454 1034 474 1014 q 433 1082 433 1055 q 454 1131 433 1111 q 502 1150 475 1150 q 549 1131 530 1150 q 568 1082 568 1111 z "},"×":{"ha":937,"x_min":198,"x_max":763,"o":"m 480 412 l 246 179 l 198 228 l 431 463 l 198 694 l 248 745 l 480 511 l 715 745 l 763 696 l 530 463 l 763 228 l 715 179 l 480 412 z "},"Ø":{"ha":1003,"x_min":-15,"x_max":1046,"o":"m 450 -14 q 183 80 290 -14 l 66 -37 l -15 -37 l 144 122 q 70 349 70 216 q 138 645 70 512 q 323 848 205 777 q 591 920 440 920 q 853 829 748 920 l 968 943 l 1046 943 l 891 789 q 970 557 970 692 q 902 262 970 397 q 717 57 834 127 q 450 -14 600 -14 m 835 564 q 810 707 835 644 l 254 151 q 338 72 287 100 q 454 44 389 44 q 641 112 555 44 q 781 309 727 180 q 835 564 835 437 m 205 341 q 228 205 205 264 l 783 759 q 698 838 749 810 q 582 865 647 865 q 396 797 481 865 q 259 600 312 728 q 205 341 205 471 z "},"Ù":{"ha":1003,"x_min":127,"x_max":1078,"o":"m 881 856 l 762 873 l 768 909 l 1078 909 l 1072 873 l 952 856 l 857 313 q 725 72 829 157 q 460 -14 621 -14 q 220 51 302 -14 q 137 236 137 115 q 144 307 137 273 l 241 856 l 127 873 l 134 909 l 497 909 l 491 873 l 371 856 l 275 310 q 269 241 269 273 q 472 62 269 62 q 683 127 602 62 q 785 307 765 191 l 881 856 m 659 985 l 450 1166 l 454 1192 l 592 1192 l 699 1007 l 696 985 l 659 985 z "},"Ú":{"ha":1003,"x_min":127,"x_max":1078,"o":"m 881 856 l 762 873 l 768 909 l 1078 909 l 1072 873 l 952 856 l 857 313 q 725 72 829 157 q 460 -14 621 -14 q 220 51 302 -14 q 137 236 137 115 q 144 307 137 273 l 241 856 l 127 873 l 134 909 l 497 909 l 491 873 l 371 856 l 275 310 q 269 241 269 273 q 472 62 269 62 q 683 127 602 62 q 785 307 765 191 l 881 856 m 557 985 l 560 1007 l 726 1192 l 870 1192 l 866 1166 l 594 985 l 557 985 z "},"Û":{"ha":1003,"x_min":127,"x_max":1078,"o":"m 881 856 l 762 873 l 768 909 l 1078 909 l 1072 873 l 952 856 l 857 313 q 725 72 829 157 q 460 -14 621 -14 q 220 51 302 -14 q 137 236 137 115 q 144 307 137 273 l 241 856 l 127 873 l 134 909 l 497 909 l 491 873 l 371 856 l 275 310 q 269 241 269 273 q 472 62 269 62 q 683 127 602 62 q 785 307 765 191 l 881 856 m 449 985 l 452 1007 l 612 1192 l 756 1192 l 850 1007 l 847 985 l 815 985 l 675 1109 l 492 985 l 449 985 z "},"Ü":{"ha":1003,"x_min":127,"x_max":1078,"o":"m 881 856 l 762 873 l 768 909 l 1078 909 l 1072 873 l 952 856 l 857 313 q 725 72 829 157 q 460 -14 621 -14 q 220 51 302 -14 q 137 236 137 115 q 144 307 137 273 l 241 856 l 127 873 l 134 909 l 497 909 l 491 873 l 371 856 l 275 310 q 269 241 269 273 q 472 62 269 62 q 683 127 602 62 q 785 307 765 191 l 881 856 m 854 1082 q 836 1034 854 1054 q 788 1014 817 1014 q 740 1035 760 1014 q 720 1082 720 1056 q 740 1131 720 1111 q 788 1150 760 1150 q 836 1131 817 1150 q 854 1082 854 1111 m 613 1082 q 594 1034 613 1054 q 547 1014 575 1014 q 498 1034 519 1014 q 478 1082 478 1055 q 499 1131 478 1111 q 547 1150 520 1150 q 594 1131 575 1150 q 613 1082 613 1111 z "},"Ý":{"ha":772,"x_min":79,"x_max":896,"o":"m 413 54 l 555 36 l 548 0 l 128 0 l 135 36 l 282 54 l 335 354 l 179 856 l 79 873 l 86 909 l 457 909 l 450 873 l 319 856 l 446 431 l 713 856 l 593 873 l 600 909 l 896 909 l 889 873 l 787 856 l 467 358 l 413 54 m 433 985 l 436 1007 l 602 1192 l 746 1192 l 742 1166 l 470 985 l 433 985 z "},"Þ":{"ha":848,"x_min":-7,"x_max":782,"o":"m 384 243 q 647 485 647 243 q 598 628 647 582 q 450 673 549 673 l 349 673 l 273 243 l 384 243 m 477 734 q 703 674 623 734 q 782 494 782 613 q 683 262 782 342 q 399 182 583 182 l 262 182 l 240 54 l 389 36 l 382 0 l -7 0 l -1 36 l 109 54 l 251 856 l 146 873 l 153 909 l 508 909 l 501 873 l 382 856 l 360 734 l 477 734 z "},"ß":{"ha":694,"x_min":-39,"x_max":672,"o":"m 458 526 q 477 458 458 488 q 543 390 496 428 q 608 315 587 355 q 629 226 629 276 q 566 50 629 114 q 387 -14 503 -14 q 299 -5 345 -14 q 234 18 254 4 l 257 149 l 288 149 l 294 85 q 333 53 307 66 q 395 40 360 40 q 486 80 453 40 q 519 188 519 120 q 499 260 519 228 q 435 328 478 293 q 372 399 393 361 q 351 483 351 436 q 556 710 351 672 q 566 808 566 768 q 541 898 566 872 q 463 924 515 924 q 301 753 330 924 l 169 0 l -39 0 l -34 31 l 64 47 l 183 720 q 279 912 206 847 q 473 978 351 978 q 623 932 574 978 q 672 785 672 886 q 661 676 672 737 q 536 651 572 667 q 479 607 500 636 q 458 526 458 577 z "},"à":{"ha":694,"x_min":41,"x_max":642,"o":"m 535 47 l 612 31 l 606 0 l 413 0 l 433 106 q 223 -14 318 -14 q 91 46 141 -14 q 41 212 41 106 q 93 434 41 331 q 232 596 145 538 q 420 654 319 654 q 575 625 503 654 l 606 648 l 642 648 l 535 47 m 515 568 q 466 593 489 586 q 409 600 443 600 q 284 549 341 600 q 195 411 228 498 q 163 230 163 324 q 193 114 163 157 q 274 71 222 71 q 441 165 351 71 l 515 568 m 488 758 l 280 940 l 284 965 l 422 965 l 529 781 l 526 758 l 488 758 z "},"á":{"ha":694,"x_min":41,"x_max":663,"o":"m 535 47 l 612 31 l 606 0 l 413 0 l 433 106 q 223 -14 318 -14 q 91 46 141 -14 q 41 212 41 106 q 93 434 41 331 q 232 596 145 538 q 420 654 319 654 q 575 625 503 654 l 606 648 l 642 648 l 535 47 m 515 568 q 466 593 489 586 q 409 600 443 600 q 284 549 341 600 q 195 411 228 498 q 163 230 163 324 q 193 114 163 157 q 274 71 222 71 q 441 165 351 71 l 515 568 m 350 758 l 353 781 l 519 965 l 663 965 l 659 940 l 387 758 l 350 758 z "},"â":{"ha":694,"x_min":41,"x_max":642,"o":"m 535 47 l 612 31 l 606 0 l 413 0 l 433 106 q 223 -14 318 -14 q 91 46 141 -14 q 41 212 41 106 q 93 434 41 331 q 232 596 145 538 q 420 654 319 654 q 575 625 503 654 l 606 648 l 642 648 l 535 47 m 515 568 q 466 593 489 586 q 409 600 443 600 q 284 549 341 600 q 195 411 228 498 q 163 230 163 324 q 193 114 163 157 q 274 71 222 71 q 441 165 351 71 l 515 568 m 234 758 l 237 781 l 397 966 l 541 966 l 635 781 l 632 758 l 600 758 l 460 882 l 277 758 l 234 758 z "},"ã":{"ha":694,"x_min":41,"x_max":690,"o":"m 535 47 l 612 31 l 606 0 l 413 0 l 433 106 q 223 -14 318 -14 q 91 46 141 -14 q 41 212 41 106 q 93 434 41 331 q 232 596 145 538 q 420 654 319 654 q 575 625 503 654 l 606 648 l 642 648 l 535 47 m 515 568 q 466 593 489 586 q 409 600 443 600 q 284 549 341 600 q 195 411 228 498 q 163 230 163 324 q 193 114 163 157 q 274 71 222 71 q 441 165 351 71 l 515 568 m 529 759 q 472 773 496 759 q 426 806 447 788 q 384 839 404 824 q 342 853 364 853 q 306 845 320 853 q 282 824 292 838 q 260 772 273 810 l 224 772 q 286 898 246 859 q 386 937 326 937 q 444 922 418 937 q 490 889 469 907 q 531 857 511 871 q 573 842 551 842 q 621 859 602 842 q 655 922 640 875 l 690 922 q 629 798 669 838 q 529 759 589 759 z "},"ä":{"ha":694,"x_min":41,"x_max":642,"o":"m 535 47 l 612 31 l 606 0 l 413 0 l 433 106 q 223 -14 318 -14 q 91 46 141 -14 q 41 212 41 106 q 93 434 41 331 q 232 596 145 538 q 420 654 319 654 q 575 625 503 654 l 606 648 l 642 648 l 535 47 m 515 568 q 466 593 489 586 q 409 600 443 600 q 284 549 341 600 q 195 411 228 498 q 163 230 163 324 q 193 114 163 157 q 274 71 222 71 q 441 165 351 71 l 515 568 m 635 835 q 616 786 635 806 q 569 766 597 766 q 521 787 541 766 q 501 835 501 808 q 521 883 501 863 q 569 903 541 903 q 616 883 597 903 q 635 835 635 863 m 394 835 q 375 786 394 806 q 328 766 356 766 q 279 787 300 766 q 259 835 259 807 q 280 883 259 863 q 328 903 301 903 q 375 883 356 903 q 394 835 394 863 z "},"å":{"ha":694,"x_min":41,"x_max":642,"o":"m 535 47 l 612 31 l 606 0 l 413 0 l 433 106 q 223 -14 318 -14 q 91 46 141 -14 q 41 212 41 106 q 93 434 41 331 q 232 596 145 538 q 420 654 319 654 q 575 625 503 654 l 606 648 l 642 648 l 535 47 m 515 568 q 466 593 489 586 q 409 600 443 600 q 284 549 341 600 q 195 411 228 498 q 163 230 163 324 q 193 114 163 157 q 274 71 222 71 q 441 165 351 71 l 515 568 m 591 866 q 550 769 591 809 q 453 728 510 728 q 356 769 396 728 q 315 866 315 809 q 356 963 315 923 q 453 1004 396 1004 q 550 963 510 1004 q 591 866 591 923 m 536 866 q 512 925 536 901 q 453 949 488 949 q 394 925 418 949 q 370 866 370 901 q 395 807 370 831 q 453 783 420 783 q 511 806 486 783 q 536 866 536 830 z "},"æ":{"ha":926,"x_min":43,"x_max":895,"o":"m 895 523 q 850 409 895 461 q 720 322 805 357 q 528 280 635 288 q 523 201 523 243 q 648 57 523 57 q 825 125 730 57 l 845 96 q 604 -14 719 -14 q 492 13 534 -14 q 421 100 450 39 q 310 16 367 47 q 206 -14 253 -14 q 89 49 134 -14 q 43 215 43 113 q 93 435 43 332 q 230 596 143 538 q 419 654 316 654 q 502 639 461 654 q 570 604 543 625 q 730 654 633 654 q 852 619 808 654 q 895 523 895 583 m 265 71 q 335 92 296 71 q 409 146 374 113 q 404 210 404 184 q 520 555 404 410 q 401 600 460 600 q 284 546 339 600 q 197 404 230 492 q 163 227 163 315 q 191 112 163 153 q 265 71 219 71 m 777 525 q 760 582 777 561 q 711 602 743 602 q 603 529 649 602 q 535 323 557 456 q 714 388 651 334 q 777 525 777 441 z "},"ç":{"ha":616,"x_min":43,"x_max":602,"o":"m 525 96 q 401 16 470 45 q 271 -14 333 -14 q 102 50 162 -14 q 43 224 43 113 q 90 439 43 342 q 225 595 138 536 q 410 654 313 654 q 512 644 458 654 q 602 619 566 634 l 571 441 l 534 441 l 523 559 q 409 602 480 602 q 287 554 344 602 q 197 420 231 506 q 163 231 163 334 q 302 57 163 57 q 505 125 399 57 l 525 96 m 380 -144 q 332 -250 380 -210 q 191 -290 283 -290 q 101 -275 142 -290 l 117 -224 q 182 -235 149 -235 q 250 -217 224 -235 q 275 -159 275 -198 q 252 -110 275 -130 q 185 -85 229 -90 l 231 18 l 290 18 l 267 -37 q 351 -71 321 -43 q 380 -144 380 -98 z "},"è":{"ha":616,"x_min":43,"x_max":585,"o":"m 585 515 q 471 358 585 423 q 165 280 357 293 l 163 231 q 199 101 163 144 q 307 57 235 57 q 419 78 368 57 q 515 125 471 98 l 535 96 q 403 15 473 43 q 271 -14 334 -14 q 102 48 161 -14 q 43 224 43 109 q 91 435 43 337 q 223 594 138 533 q 401 654 308 654 q 535 616 484 654 q 585 515 585 578 m 171 323 q 386 386 305 333 q 467 515 467 439 q 446 578 467 553 q 386 602 425 602 q 294 564 338 602 q 216 460 249 525 q 171 323 184 395 m 456 758 l 248 940 l 252 965 l 390 965 l 497 781 l 494 758 l 456 758 z "},"é":{"ha":616,"x_min":43,"x_max":667,"o":"m 585 515 q 471 358 585 423 q 165 280 357 293 l 163 231 q 199 101 163 144 q 307 57 235 57 q 419 78 368 57 q 515 125 471 98 l 535 96 q 403 15 473 43 q 271 -14 334 -14 q 102 48 161 -14 q 43 224 43 109 q 91 435 43 337 q 223 594 138 533 q 401 654 308 654 q 535 616 484 654 q 585 515 585 578 m 171 323 q 386 386 305 333 q 467 515 467 439 q 446 578 467 553 q 386 602 425 602 q 294 564 338 602 q 216 460 249 525 q 171 323 184 395 m 353 758 l 357 781 l 522 965 l 667 965 l 663 940 l 391 758 l 353 758 z "},"ê":{"ha":616,"x_min":43,"x_max":615,"o":"m 585 515 q 471 358 585 423 q 165 280 357 293 l 163 231 q 199 101 163 144 q 307 57 235 57 q 419 78 368 57 q 515 125 471 98 l 535 96 q 403 15 473 43 q 271 -14 334 -14 q 102 48 161 -14 q 43 224 43 109 q 91 435 43 337 q 223 594 138 533 q 401 654 308 654 q 535 616 484 654 q 585 515 585 578 m 171 323 q 386 386 305 333 q 467 515 467 439 q 446 578 467 553 q 386 602 425 602 q 294 564 338 602 q 216 460 249 525 q 171 323 184 395 m 214 758 l 217 781 l 376 966 l 521 966 l 615 781 l 612 758 l 580 758 l 440 882 l 257 758 l 214 758 z "},"ë":{"ha":616,"x_min":43,"x_max":627,"o":"m 585 515 q 471 358 585 423 q 165 280 357 293 l 163 231 q 199 101 163 144 q 307 57 235 57 q 419 78 368 57 q 515 125 471 98 l 535 96 q 403 15 473 43 q 271 -14 334 -14 q 102 48 161 -14 q 43 224 43 109 q 91 435 43 337 q 223 594 138 533 q 401 654 308 654 q 535 616 484 654 q 585 515 585 578 m 171 323 q 386 386 305 333 q 467 515 467 439 q 446 578 467 553 q 386 602 425 602 q 294 564 338 602 q 216 460 249 525 q 171 323 184 395 m 627 835 q 608 786 627 806 q 561 766 589 766 q 513 787 532 766 q 493 835 493 808 q 513 883 493 863 q 561 903 532 903 q 608 883 589 903 q 627 835 627 863 m 386 835 q 367 786 386 806 q 319 766 348 766 q 271 787 292 766 q 251 835 251 807 q 272 883 251 863 q 319 903 293 903 q 367 883 348 903 q 386 835 386 863 z "},"ì":{"ha":386,"x_min":74,"x_max":332,"o":"m 195 47 l 301 31 l 296 0 l 74 0 l 178 590 l 90 607 l 96 637 l 298 637 l 195 47 m 292 758 l 83 940 l 87 965 l 225 965 l 332 781 l 329 758 l 292 758 z "},"í":{"ha":386,"x_min":74,"x_max":489,"o":"m 195 47 l 301 31 l 296 0 l 74 0 l 178 590 l 90 607 l 96 637 l 298 637 l 195 47 m 176 758 l 179 781 l 345 965 l 489 965 l 485 940 l 213 758 l 176 758 z "},"î":{"ha":386,"x_min":45,"x_max":447,"o":"m 195 47 l 301 31 l 296 0 l 74 0 l 178 590 l 90 607 l 96 637 l 298 637 l 195 47 m 45 758 l 49 781 l 208 966 l 353 966 l 447 781 l 444 758 l 412 758 l 272 882 l 89 758 l 45 758 z "},"ï":{"ha":386,"x_min":66,"x_max":443,"o":"m 195 47 l 301 31 l 296 0 l 74 0 l 178 590 l 90 607 l 96 637 l 298 637 l 195 47 m 443 835 q 424 786 443 806 q 376 766 405 766 q 328 787 348 766 q 309 835 309 808 q 328 883 309 863 q 376 903 348 903 q 424 883 405 903 q 443 835 443 863 m 201 835 q 182 786 201 806 q 135 766 163 766 q 87 787 107 766 q 66 835 66 807 q 87 883 66 863 q 135 903 109 903 q 182 883 163 903 q 201 835 201 863 z "},"ð":{"ha":694,"x_min":39,"x_max":671,"o":"m 650 446 q 555 104 650 224 q 287 -17 460 -17 q 106 52 174 -17 q 39 236 39 120 q 86 428 39 340 q 215 566 133 517 q 400 615 298 615 q 530 583 470 615 q 439 799 510 720 l 218 682 l 230 747 l 400 836 q 265 911 340 886 l 275 964 q 472 873 391 934 l 671 979 l 660 916 l 515 838 q 615 676 579 781 q 650 446 650 571 m 385 559 q 273 516 325 559 q 191 394 222 472 q 161 224 161 315 q 197 88 161 136 q 297 40 233 40 q 409 84 357 40 q 492 206 462 129 q 523 372 523 283 q 487 512 523 464 q 385 559 452 559 z "},"ñ":{"ha":694,"x_min":50,"x_max":663,"o":"m 512 507 q 496 557 512 538 q 444 576 479 576 q 335 533 394 576 q 237 427 275 490 l 162 0 l 50 0 l 153 591 l 73 608 l 79 638 l 267 638 l 249 508 q 367 618 306 581 q 487 654 428 654 q 590 617 555 654 q 625 511 625 581 q 622 482 625 502 q 548 47 619 463 l 637 31 l 631 0 l 427 0 l 496 395 q 512 507 512 481 m 502 759 q 445 773 469 759 q 398 806 420 788 q 357 839 377 824 q 315 853 337 853 q 279 845 293 853 q 255 824 265 838 q 233 772 245 810 l 197 772 q 259 898 219 859 q 359 937 298 937 q 416 922 391 937 q 463 889 441 907 q 504 857 484 871 q 546 842 524 842 q 593 859 574 842 q 628 922 612 875 l 663 922 q 602 798 642 838 q 502 759 562 759 z "},"ò":{"ha":694,"x_min":41,"x_max":653,"o":"m 161 231 q 196 91 161 139 q 296 42 232 42 q 413 92 357 42 q 502 227 469 141 q 534 411 534 313 q 499 553 534 505 q 397 602 463 602 q 280 552 335 602 q 193 417 224 503 q 161 231 161 331 m 290 -14 q 109 59 177 -14 q 41 254 41 131 q 88 456 41 363 q 218 602 135 549 q 405 654 301 654 q 585 582 517 654 q 653 387 653 510 q 606 185 653 278 q 476 39 559 92 q 290 -14 393 -14 m 470 758 l 262 940 l 266 965 l 404 965 l 511 781 l 507 758 l 470 758 z "},"ó":{"ha":694,"x_min":41,"x_max":670,"o":"m 161 231 q 196 91 161 139 q 296 42 232 42 q 413 92 357 42 q 502 227 469 141 q 534 411 534 313 q 499 553 534 505 q 397 602 463 602 q 280 552 335 602 q 193 417 224 503 q 161 231 161 331 m 290 -14 q 109 59 177 -14 q 41 254 41 131 q 88 456 41 363 q 218 602 135 549 q 405 654 301 654 q 585 582 517 654 q 653 387 653 510 q 606 185 653 278 q 476 39 559 92 q 290 -14 393 -14 m 357 758 l 360 781 l 526 965 l 670 965 l 666 940 l 394 758 l 357 758 z "},"ô":{"ha":694,"x_min":41,"x_max":653,"o":"m 161 231 q 196 91 161 139 q 296 42 232 42 q 413 92 357 42 q 502 227 469 141 q 534 411 534 313 q 499 553 534 505 q 397 602 463 602 q 280 552 335 602 q 193 417 224 503 q 161 231 161 331 m 290 -14 q 109 59 177 -14 q 41 254 41 131 q 88 456 41 363 q 218 602 135 549 q 405 654 301 654 q 585 582 517 654 q 653 387 653 510 q 606 185 653 278 q 476 39 559 92 q 290 -14 393 -14 m 219 758 l 222 781 l 382 966 l 526 966 l 621 781 l 617 758 l 585 758 l 446 882 l 262 758 l 219 758 z "},"õ":{"ha":694,"x_min":41,"x_max":679,"o":"m 161 231 q 196 91 161 139 q 296 42 232 42 q 413 92 357 42 q 502 227 469 141 q 534 411 534 313 q 499 553 534 505 q 397 602 463 602 q 280 552 335 602 q 193 417 224 503 q 161 231 161 331 m 290 -14 q 109 59 177 -14 q 41 254 41 131 q 88 456 41 363 q 218 602 135 549 q 405 654 301 654 q 585 582 517 654 q 653 387 653 510 q 606 185 653 278 q 476 39 559 92 q 290 -14 393 -14 m 517 759 q 460 773 485 759 q 414 806 435 788 q 373 839 393 824 q 330 853 353 853 q 295 845 309 853 q 271 824 281 838 q 248 772 261 810 l 213 772 q 274 898 235 859 q 374 937 314 937 q 432 922 407 937 q 478 889 457 907 q 520 857 500 871 q 562 842 540 842 q 609 859 590 842 q 644 922 628 875 l 679 922 q 617 798 657 838 q 517 759 578 759 z "},"ö":{"ha":694,"x_min":41,"x_max":653,"o":"m 161 231 q 196 91 161 139 q 296 42 232 42 q 413 92 357 42 q 502 227 469 141 q 534 411 534 313 q 499 553 534 505 q 397 602 463 602 q 280 552 335 602 q 193 417 224 503 q 161 231 161 331 m 290 -14 q 109 59 177 -14 q 41 254 41 131 q 88 456 41 363 q 218 602 135 549 q 405 654 301 654 q 585 582 517 654 q 653 387 653 510 q 606 185 653 278 q 476 39 559 92 q 290 -14 393 -14 m 628 835 q 609 786 628 806 q 562 766 590 766 q 513 787 533 766 q 494 835 494 808 q 513 883 494 863 q 562 903 533 903 q 609 883 590 903 q 628 835 628 863 m 387 835 q 368 786 387 806 q 320 766 349 766 q 272 787 292 766 q 252 835 252 807 q 273 883 252 863 q 320 903 294 903 q 368 883 349 903 q 387 835 387 863 z "},"÷":{"ha":762,"x_min":79,"x_max":725,"o":"m 467 721 q 448 675 467 694 q 401 656 429 656 q 355 675 374 656 q 336 721 336 694 q 355 767 336 748 q 401 786 374 786 q 448 767 429 786 q 467 721 467 748 m 467 201 q 448 155 467 174 q 401 136 429 136 q 355 155 374 136 q 336 201 336 174 q 355 248 336 229 q 401 267 374 267 q 448 248 429 267 q 467 201 467 229 m 725 496 l 725 427 l 79 427 l 79 496 l 725 496 z "},"ø":{"ha":694,"x_min":-18,"x_max":711,"o":"m 290 -14 q 135 35 197 -14 l 54 -57 l -18 -57 l 96 73 q 41 254 41 145 q 88 456 41 363 q 218 602 135 549 q 405 654 301 654 q 562 604 498 654 l 641 693 l 711 693 l 600 565 q 653 387 653 494 q 606 185 653 278 q 476 39 559 92 q 290 -14 393 -14 m 393 604 q 278 556 331 604 q 194 424 224 509 q 163 240 163 340 q 172 159 163 194 l 503 537 q 393 604 468 604 m 531 400 q 524 479 531 443 l 193 102 q 300 40 229 40 q 415 88 361 40 q 500 218 469 136 q 531 400 531 301 z "},"ù":{"ha":694,"x_min":69,"x_max":644,"o":"m 182 131 q 198 81 182 100 q 250 62 214 62 q 359 105 300 62 q 456 209 418 147 l 532 637 l 644 637 l 541 47 l 621 31 l 615 0 l 427 0 l 445 131 q 328 21 389 58 q 207 -16 267 -16 q 104 21 138 -16 q 69 127 69 58 q 73 163 69 137 q 146 591 77 189 l 71 607 l 76 637 l 267 637 l 197 243 q 182 131 182 158 m 452 758 l 243 940 l 248 965 l 385 965 l 492 781 l 489 758 l 452 758 z "},"ú":{"ha":694,"x_min":69,"x_max":649,"o":"m 182 131 q 198 81 182 100 q 250 62 214 62 q 359 105 300 62 q 456 209 418 147 l 532 637 l 644 637 l 541 47 l 621 31 l 615 0 l 427 0 l 445 131 q 328 21 389 58 q 207 -16 267 -16 q 104 21 138 -16 q 69 127 69 58 q 73 163 69 137 q 146 591 77 189 l 71 607 l 76 637 l 267 637 l 197 243 q 182 131 182 158 m 336 758 l 339 781 l 505 965 l 649 965 l 645 940 l 373 758 l 336 758 z "},"û":{"ha":694,"x_min":69,"x_max":644,"o":"m 182 131 q 198 81 182 100 q 250 62 214 62 q 359 105 300 62 q 456 209 418 147 l 532 637 l 644 637 l 541 47 l 621 31 l 615 0 l 427 0 l 445 131 q 328 21 389 58 q 207 -16 267 -16 q 104 21 138 -16 q 69 127 69 58 q 73 163 69 137 q 146 591 77 189 l 71 607 l 76 637 l 267 637 l 197 243 q 182 131 182 158 m 212 758 l 215 781 l 374 966 l 519 966 l 613 781 l 610 758 l 578 758 l 438 882 l 255 758 l 212 758 z "},"ü":{"ha":694,"x_min":69,"x_max":644,"o":"m 182 131 q 198 81 182 100 q 250 62 214 62 q 359 105 300 62 q 456 209 418 147 l 532 637 l 644 637 l 541 47 l 621 31 l 615 0 l 427 0 l 445 131 q 328 21 389 58 q 207 -16 267 -16 q 104 21 138 -16 q 69 127 69 58 q 73 163 69 137 q 146 591 77 189 l 71 607 l 76 637 l 267 637 l 197 243 q 182 131 182 158 m 620 835 q 601 786 620 806 q 553 766 582 766 q 505 787 525 766 q 486 835 486 808 q 505 883 486 863 q 553 903 525 903 q 601 883 582 903 q 620 835 620 863 m 378 835 q 359 786 378 806 q 312 766 340 766 q 264 787 284 766 q 243 835 243 807 q 264 883 243 863 q 312 903 286 903 q 359 883 340 903 q 378 835 378 863 z "},"ý":{"ha":616,"x_min":-116,"x_max":617,"o":"m 35 637 l 209 637 l 307 141 l 467 416 q 510 547 510 492 q 496 587 510 572 q 465 607 481 602 l 471 637 l 600 637 q 617 595 617 622 q 561 446 617 541 l 292 -7 q 170 -193 215 -138 q 81 -274 125 -248 q -15 -300 37 -300 q -116 -288 -70 -300 l -91 -150 l -60 -150 l -50 -215 q 6 -231 -33 -231 q 199 -47 98 -231 l 230 8 l 106 590 l 30 607 l 35 637 m 293 758 l 296 781 l 462 965 l 606 965 l 602 940 l 330 758 l 293 758 z "},"þ":{"ha":694,"x_min":-98,"x_max":652,"o":"m 241 534 q 461 654 365 654 q 600 594 548 654 q 652 428 652 533 q 601 209 652 311 q 458 46 549 106 q 259 -14 368 -14 q 193 -9 227 -14 q 143 1 160 -4 l 136 -60 l 102 -248 l 210 -264 l 205 -296 l -98 -296 l -92 -264 l -9 -248 l 197 917 l 106 933 l 112 964 l 317 964 l 241 534 m 158 73 q 271 40 199 40 q 401 89 343 40 q 495 228 459 138 q 531 410 531 317 q 499 527 531 485 q 412 570 467 570 q 325 544 375 570 q 232 475 275 518 l 158 73 z "},"ÿ":{"ha":616,"x_min":-116,"x_max":617,"o":"m 35 637 l 209 637 l 307 141 l 467 416 q 510 547 510 492 q 496 587 510 572 q 465 607 481 602 l 471 637 l 600 637 q 617 595 617 622 q 561 446 617 541 l 292 -7 q 170 -193 215 -138 q 81 -274 125 -248 q -15 -300 37 -300 q -116 -288 -70 -300 l -91 -150 l -60 -150 l -50 -215 q 6 -231 -33 -231 q 199 -47 98 -231 l 230 8 l 106 590 l 30 607 l 35 637 m 588 835 q 569 786 588 806 q 522 766 550 766 q 473 787 493 766 q 454 835 454 808 q 473 883 454 863 q 522 903 493 903 q 569 883 550 903 q 588 835 588 863 m 347 835 q 328 786 347 806 q 280 766 309 766 q 232 787 252 766 q 212 835 212 807 q 233 883 212 863 q 280 903 254 903 q 328 883 309 903 q 347 835 347 863 z "},"Ā":{"ha":848,"x_min":-76,"x_max":853,"o":"m 179 36 l 172 0 l -76 0 l -69 36 l 7 54 l 469 917 l 599 917 l 768 54 l 853 36 l 846 0 l 524 0 l 531 36 l 628 54 l 585 317 l 227 317 l 87 54 l 179 36 m 490 819 l 257 378 l 574 378 l 490 819 m 330 1014 l 343 1088 l 769 1088 l 756 1014 l 330 1014 z "},"ā":{"ha":694,"x_min":41,"x_max":665,"o":"m 535 47 l 612 31 l 606 0 l 413 0 l 433 106 q 223 -14 318 -14 q 91 46 141 -14 q 41 212 41 106 q 93 434 41 331 q 232 596 145 538 q 420 654 319 654 q 575 625 503 654 l 606 648 l 642 648 l 535 47 m 515 568 q 466 593 489 586 q 409 600 443 600 q 284 549 341 600 q 195 411 228 498 q 163 230 163 324 q 193 114 163 157 q 274 71 222 71 q 441 165 351 71 l 515 568 m 226 787 l 239 861 l 665 861 l 652 787 l 226 787 z "},"Ă":{"ha":848,"x_min":-76,"x_max":853,"o":"m 179 36 l 172 0 l -76 0 l -69 36 l 7 54 l 469 917 l 599 917 l 768 54 l 853 36 l 846 0 l 524 0 l 531 36 l 628 54 l 585 317 l 227 317 l 87 54 l 179 36 m 490 819 l 257 378 l 574 378 l 490 819 m 529 985 q 408 1025 450 985 q 365 1137 365 1065 l 368 1175 l 418 1175 q 455 1106 420 1131 q 546 1081 489 1081 q 647 1106 604 1081 q 707 1175 689 1132 l 757 1175 q 679 1036 739 1087 q 529 985 620 985 z "},"ă":{"ha":694,"x_min":41,"x_max":648,"o":"m 535 47 l 612 31 l 606 0 l 413 0 l 433 106 q 223 -14 318 -14 q 91 46 141 -14 q 41 212 41 106 q 93 434 41 331 q 232 596 145 538 q 420 654 319 654 q 575 625 503 654 l 606 648 l 642 648 l 535 47 m 515 568 q 466 593 489 586 q 409 600 443 600 q 284 549 341 600 q 195 411 228 498 q 163 230 163 324 q 193 114 163 157 q 274 71 222 71 q 441 165 351 71 l 515 568 m 420 759 q 299 799 342 759 q 256 911 256 839 l 259 949 l 309 949 q 346 880 312 905 q 437 854 380 854 q 538 880 496 854 q 598 949 581 905 l 648 949 q 571 810 630 861 q 420 759 511 759 z "},"Ą":{"ha":848,"x_min":-76,"x_max":853,"o":"m 179 36 l 172 0 l -76 0 l -69 36 l 7 54 l 469 917 l 599 917 l 768 54 l 853 36 l 846 0 l 524 0 l 531 36 l 628 54 l 585 317 l 227 317 l 87 54 l 179 36 m 490 819 l 257 378 l 574 378 l 490 819 m 804 -240 q 684 -273 749 -273 q 586 -240 622 -273 q 551 -150 551 -208 q 574 -65 551 -107 q 639 11 597 -24 l 713 11 q 668 -60 684 -21 q 652 -137 652 -98 q 673 -194 652 -174 q 732 -214 694 -214 q 793 -201 764 -214 l 804 -240 z "},"ą":{"ha":694,"x_min":41,"x_max":642,"o":"m 535 47 l 612 31 l 606 0 l 413 0 l 433 106 q 223 -14 318 -14 q 91 46 141 -14 q 41 212 41 106 q 93 434 41 331 q 232 596 145 538 q 420 654 319 654 q 575 625 503 654 l 606 648 l 642 648 l 535 47 m 515 568 q 466 593 489 586 q 409 600 443 600 q 284 549 341 600 q 195 411 228 498 q 163 230 163 324 q 193 114 163 157 q 274 71 222 71 q 441 165 351 71 l 515 568 m 589 -240 q 470 -273 535 -273 q 372 -240 408 -273 q 336 -150 336 -208 q 359 -65 336 -107 q 425 11 382 -24 l 498 11 q 454 -60 470 -21 q 437 -137 437 -98 q 458 -194 437 -174 q 518 -214 479 -214 q 578 -201 549 -214 l 589 -240 z "},"Ć":{"ha":926,"x_min":77,"x_max":939,"o":"m 474 -13 q 182 85 288 -13 q 77 355 77 182 q 148 652 77 523 q 347 850 218 781 q 642 920 476 920 q 939 885 785 920 l 909 686 l 865 686 l 865 804 q 763 849 823 833 q 638 865 703 865 q 418 800 515 865 q 267 614 321 734 q 213 341 213 494 q 284 119 213 195 q 486 43 355 43 q 637 66 563 43 q 757 125 711 89 l 806 261 l 850 261 l 808 47 q 641 3 730 19 q 474 -13 551 -13 m 568 985 l 572 1007 l 737 1192 l 882 1192 l 878 1166 l 606 985 l 568 985 z "},"ć":{"ha":616,"x_min":43,"x_max":655,"o":"m 525 96 q 401 16 470 45 q 271 -14 333 -14 q 102 50 162 -14 q 43 224 43 113 q 90 439 43 342 q 225 595 138 536 q 410 654 313 654 q 512 644 458 654 q 602 619 566 634 l 571 441 l 534 441 l 523 559 q 409 602 480 602 q 287 554 344 602 q 197 420 231 506 q 163 231 163 334 q 302 57 163 57 q 505 125 399 57 l 525 96 m 342 758 l 345 781 l 511 965 l 655 965 l 651 940 l 379 758 l 342 758 z "},"Ĉ":{"ha":926,"x_min":77,"x_max":939,"o":"m 474 -13 q 182 85 288 -13 q 77 355 77 182 q 148 652 77 523 q 347 850 218 781 q 642 920 476 920 q 939 885 785 920 l 909 686 l 865 686 l 865 804 q 763 849 823 833 q 638 865 703 865 q 418 800 515 865 q 267 614 321 734 q 213 341 213 494 q 284 119 213 195 q 486 43 355 43 q 637 66 563 43 q 757 125 711 89 l 806 261 l 850 261 l 808 47 q 641 3 730 19 q 474 -13 551 -13 m 418 985 l 421 1007 l 581 1192 l 725 1192 l 819 1007 l 816 985 l 784 985 l 644 1109 l 461 985 l 418 985 z "},"ĉ":{"ha":616,"x_min":43,"x_max":627,"o":"m 525 96 q 401 16 470 45 q 271 -14 333 -14 q 102 50 162 -14 q 43 224 43 113 q 90 439 43 342 q 225 595 138 536 q 410 654 313 654 q 512 644 458 654 q 602 619 566 634 l 571 441 l 534 441 l 523 559 q 409 602 480 602 q 287 554 344 602 q 197 420 231 506 q 163 231 163 334 q 302 57 163 57 q 505 125 399 57 l 525 96 m 225 758 l 229 781 l 388 966 l 532 966 l 627 781 l 623 758 l 591 758 l 452 882 l 269 758 l 225 758 z "},"Ċ":{"ha":926,"x_min":77,"x_max":939,"o":"m 474 -13 q 182 85 288 -13 q 77 355 77 182 q 148 652 77 523 q 347 850 218 781 q 642 920 476 920 q 939 885 785 920 l 909 686 l 865 686 l 865 804 q 763 849 823 833 q 638 865 703 865 q 418 800 515 865 q 267 614 321 734 q 213 341 213 494 q 284 119 213 195 q 486 43 355 43 q 637 66 563 43 q 757 125 711 89 l 806 261 l 850 261 l 808 47 q 641 3 730 19 q 474 -13 551 -13 m 720 1072 q 699 1021 720 1042 q 646 999 677 999 q 595 1021 616 999 q 573 1072 573 1042 q 595 1124 573 1103 q 646 1146 616 1146 q 699 1124 677 1146 q 720 1072 720 1103 z "},"ċ":{"ha":616,"x_min":43,"x_max":602,"o":"m 525 96 q 401 16 470 45 q 271 -14 333 -14 q 102 50 162 -14 q 43 224 43 113 q 90 439 43 342 q 225 595 138 536 q 410 654 313 654 q 512 644 458 654 q 602 619 566 634 l 571 441 l 534 441 l 523 559 q 409 602 480 602 q 287 554 344 602 q 197 420 231 506 q 163 231 163 334 q 302 57 163 57 q 505 125 399 57 l 525 96 m 514 846 q 492 794 514 816 q 440 772 471 772 q 389 794 410 772 q 367 846 367 816 q 389 898 367 876 q 440 920 410 920 q 492 898 471 920 q 514 846 514 876 z "},"Č":{"ha":926,"x_min":77,"x_max":939,"o":"m 474 -13 q 182 85 288 -13 q 77 355 77 182 q 148 652 77 523 q 347 850 218 781 q 642 920 476 920 q 939 885 785 920 l 909 686 l 865 686 l 865 804 q 763 849 823 833 q 638 865 703 865 q 418 800 515 865 q 267 614 321 734 q 213 341 213 494 q 284 119 213 195 q 486 43 355 43 q 637 66 563 43 q 757 125 711 89 l 806 261 l 850 261 l 808 47 q 641 3 730 19 q 474 -13 551 -13 m 503 1192 l 642 1068 l 825 1192 l 866 1192 l 863 1170 l 703 985 l 559 985 l 464 1170 l 467 1192 l 503 1192 z "},"č":{"ha":616,"x_min":43,"x_max":667,"o":"m 525 96 q 401 16 470 45 q 271 -14 333 -14 q 102 50 162 -14 q 43 224 43 113 q 90 439 43 342 q 225 595 138 536 q 410 654 313 654 q 512 644 458 654 q 602 619 566 634 l 571 441 l 534 441 l 523 559 q 409 602 480 602 q 287 554 344 602 q 197 420 231 506 q 163 231 163 334 q 302 57 163 57 q 505 125 399 57 l 525 96 m 303 966 l 443 842 l 626 966 l 667 966 l 663 943 l 504 758 l 359 758 l 264 943 l 268 966 l 303 966 z "},"Ď":{"ha":1003,"x_min":-16,"x_max":982,"o":"m 840 532 q 490 848 840 848 l 380 848 l 242 64 q 421 58 351 58 q 730 181 621 58 q 840 532 840 304 m 532 909 q 866 813 751 909 q 982 537 982 718 q 914 252 982 375 q 720 63 846 128 q 427 -3 593 -3 l 100 0 l -16 0 l -9 36 l 110 54 l 251 856 l 138 873 l 144 909 l 532 909 m 455 1192 l 595 1068 l 778 1192 l 819 1192 l 815 1170 l 656 985 l 511 985 l 416 1170 l 420 1192 l 455 1192 z "},"ď":{"ha":845,"x_min":42,"x_max":932,"o":"m 531 638 q 577 917 534 671 l 473 933 l 478 964 l 698 964 l 535 47 l 612 31 l 606 0 l 413 0 l 433 106 q 223 -14 318 -14 q 91 48 140 -14 q 42 215 42 111 q 92 433 42 331 q 229 594 142 535 q 419 654 315 654 q 531 638 483 654 m 515 568 q 467 592 492 583 q 406 601 441 601 q 286 551 342 601 q 197 412 231 500 q 163 230 163 324 q 193 114 163 157 q 273 71 222 71 q 356 95 311 71 q 441 165 400 120 l 515 568 m 932 867 q 884 746 932 793 q 725 675 836 700 l 725 718 q 798 742 770 728 q 838 772 825 756 q 850 815 850 789 q 841 835 850 827 q 819 853 831 844 q 797 876 807 863 q 787 910 787 889 q 806 950 787 936 q 854 964 825 964 q 910 937 888 964 q 932 867 932 911 z "},"Đ":{"ha":1003,"x_min":-16,"x_max":982,"o":"m 532 909 q 866 813 751 909 q 982 537 982 718 q 914 252 982 375 q 720 63 846 128 q 427 -3 593 -3 l 100 0 l -16 0 l -9 36 l 110 54 l 175 427 l 53 427 l 63 482 l 185 482 l 251 856 l 138 873 l 144 909 l 532 909 m 840 532 q 490 848 840 848 l 380 848 l 316 482 l 570 482 l 560 427 l 306 427 l 242 64 q 421 58 351 58 q 730 181 621 58 q 840 532 840 304 z "},"đ":{"ha":694,"x_min":42,"x_max":749,"o":"m 531 638 l 538 694 l 548 751 l 548 754 l 347 754 l 357 811 l 558 811 l 577 917 l 473 933 l 478 964 l 698 964 l 671 811 l 749 811 l 739 754 l 661 754 l 535 47 l 612 31 l 606 0 l 413 0 l 433 106 q 223 -14 318 -14 q 91 48 140 -14 q 42 215 42 111 q 92 433 42 331 q 229 594 142 535 q 419 654 315 654 q 531 638 483 654 m 515 568 q 467 592 492 583 q 406 601 441 601 q 286 551 342 601 q 197 412 231 500 q 163 230 163 324 q 193 114 163 157 q 273 71 222 71 q 356 95 311 71 q 441 165 400 120 l 515 568 z "},"Ē":{"ha":848,"x_min":-16,"x_max":826,"o":"m 251 856 l 137 873 l 144 909 l 826 909 l 787 692 l 743 692 l 747 839 q 529 848 673 848 l 380 848 l 317 493 l 563 493 l 604 602 l 647 602 l 597 322 l 554 322 l 553 432 l 307 432 l 241 61 l 420 61 q 652 72 594 61 l 720 240 l 765 240 l 709 0 l -16 0 l -9 36 l 109 54 l 251 856 m 336 1014 l 349 1088 l 775 1088 l 762 1014 l 336 1014 z "},"ē":{"ha":616,"x_min":43,"x_max":632,"o":"m 585 515 q 471 358 585 423 q 165 280 357 293 l 163 231 q 199 101 163 144 q 307 57 235 57 q 419 78 368 57 q 515 125 471 98 l 535 96 q 403 15 473 43 q 271 -14 334 -14 q 102 48 161 -14 q 43 224 43 109 q 91 435 43 337 q 223 594 138 533 q 401 654 308 654 q 535 616 484 654 q 585 515 585 578 m 171 323 q 386 386 305 333 q 467 515 467 439 q 446 578 467 553 q 386 602 425 602 q 294 564 338 602 q 216 460 249 525 q 171 323 184 395 m 193 787 l 206 861 l 632 861 l 619 787 l 193 787 z "},"Ĕ":{"ha":848,"x_min":-16,"x_max":826,"o":"m 251 856 l 137 873 l 144 909 l 826 909 l 787 692 l 743 692 l 747 839 q 529 848 673 848 l 380 848 l 317 493 l 563 493 l 604 602 l 647 602 l 597 322 l 554 322 l 553 432 l 307 432 l 241 61 l 420 61 q 652 72 594 61 l 720 240 l 765 240 l 709 0 l -16 0 l -9 36 l 109 54 l 251 856 m 531 985 q 410 1025 452 985 q 367 1137 367 1065 l 370 1175 l 420 1175 q 457 1106 422 1131 q 548 1081 491 1081 q 649 1106 606 1081 q 709 1175 691 1132 l 759 1175 q 681 1036 741 1087 q 531 985 622 985 z "},"ĕ":{"ha":616,"x_min":43,"x_max":615,"o":"m 585 515 q 471 358 585 423 q 165 280 357 293 l 163 231 q 199 101 163 144 q 307 57 235 57 q 419 78 368 57 q 515 125 471 98 l 535 96 q 403 15 473 43 q 271 -14 334 -14 q 102 48 161 -14 q 43 224 43 109 q 91 435 43 337 q 223 594 138 533 q 401 654 308 654 q 535 616 484 654 q 585 515 585 578 m 171 323 q 386 386 305 333 q 467 515 467 439 q 446 578 467 553 q 386 602 425 602 q 294 564 338 602 q 216 460 249 525 q 171 323 184 395 m 387 759 q 266 799 309 759 q 223 911 223 839 l 226 949 l 276 949 q 313 880 279 905 q 404 854 347 854 q 505 880 463 854 q 565 949 547 905 l 615 949 q 537 810 597 861 q 387 759 478 759 z "},"Ė":{"ha":848,"x_min":-16,"x_max":826,"o":"m 251 856 l 137 873 l 144 909 l 826 909 l 787 692 l 743 692 l 747 839 q 529 848 673 848 l 380 848 l 317 493 l 563 493 l 604 602 l 647 602 l 597 322 l 554 322 l 553 432 l 307 432 l 241 61 l 420 61 q 652 72 594 61 l 720 240 l 765 240 l 709 0 l -16 0 l -9 36 l 109 54 l 251 856 m 634 1072 q 612 1021 634 1042 q 560 999 591 999 q 509 1021 530 999 q 487 1072 487 1042 q 509 1124 487 1103 q 560 1146 530 1146 q 612 1124 591 1146 q 634 1072 634 1103 z "},"ė":{"ha":616,"x_min":43,"x_max":585,"o":"m 585 515 q 471 358 585 423 q 165 280 357 293 l 163 231 q 199 101 163 144 q 307 57 235 57 q 419 78 368 57 q 515 125 471 98 l 535 96 q 403 15 473 43 q 271 -14 334 -14 q 102 48 161 -14 q 43 224 43 109 q 91 435 43 337 q 223 594 138 533 q 401 654 308 654 q 535 616 484 654 q 585 515 585 578 m 171 323 q 386 386 305 333 q 467 515 467 439 q 446 578 467 553 q 386 602 425 602 q 294 564 338 602 q 216 460 249 525 q 171 323 184 395 m 496 846 q 475 794 496 816 q 422 772 453 772 q 371 794 393 772 q 349 846 349 816 q 371 898 349 876 q 422 920 393 920 q 475 898 453 920 q 496 846 496 876 z "},"Ę":{"ha":848,"x_min":-16,"x_max":826,"o":"m 251 856 l 137 873 l 144 909 l 826 909 l 787 692 l 743 692 l 747 839 q 529 848 673 848 l 380 848 l 317 493 l 563 493 l 604 602 l 647 602 l 597 322 l 554 322 l 553 432 l 307 432 l 241 61 l 420 61 q 652 72 594 61 l 720 240 l 765 240 l 709 0 l -16 0 l -9 36 l 109 54 l 251 856 m 703 -240 q 583 -273 648 -273 q 485 -240 521 -273 q 450 -150 450 -208 q 473 -65 450 -107 q 538 11 496 -24 l 612 11 q 567 -60 583 -21 q 551 -137 551 -98 q 572 -194 551 -174 q 631 -214 593 -214 q 692 -201 663 -214 l 703 -240 z "},"ę":{"ha":616,"x_min":43,"x_max":585,"o":"m 585 515 q 471 358 585 423 q 165 280 357 293 l 163 231 q 199 101 163 144 q 307 57 235 57 q 419 78 368 57 q 515 125 471 98 l 535 96 q 403 15 473 43 q 271 -14 334 -14 q 102 48 161 -14 q 43 224 43 109 q 91 435 43 337 q 223 594 138 533 q 401 654 308 654 q 535 616 484 654 q 585 515 585 578 m 171 323 q 386 386 305 333 q 467 515 467 439 q 446 578 467 553 q 386 602 425 602 q 294 564 338 602 q 216 460 249 525 q 171 323 184 395 m 481 -240 q 361 -273 427 -273 q 263 -240 299 -273 q 228 -150 228 -208 q 251 -65 228 -107 q 316 11 274 -24 l 390 11 q 345 -60 361 -21 q 329 -137 329 -98 q 350 -194 329 -174 q 410 -214 371 -214 q 470 -201 441 -214 l 481 -240 z "},"Ě":{"ha":848,"x_min":-16,"x_max":826,"o":"m 251 856 l 137 873 l 144 909 l 826 909 l 787 692 l 743 692 l 747 839 q 529 848 673 848 l 380 848 l 317 493 l 563 493 l 604 602 l 647 602 l 597 322 l 554 322 l 553 432 l 307 432 l 241 61 l 420 61 q 652 72 594 61 l 720 240 l 765 240 l 709 0 l -16 0 l -9 36 l 109 54 l 251 856 m 399 1192 l 539 1068 l 722 1192 l 763 1192 l 760 1170 l 600 985 l 456 985 l 361 1170 l 364 1192 l 399 1192 z "},"ě":{"ha":616,"x_min":43,"x_max":624,"o":"m 585 515 q 471 358 585 423 q 165 280 357 293 l 163 231 q 199 101 163 144 q 307 57 235 57 q 419 78 368 57 q 515 125 471 98 l 535 96 q 403 15 473 43 q 271 -14 334 -14 q 102 48 161 -14 q 43 224 43 109 q 91 435 43 337 q 223 594 138 533 q 401 654 308 654 q 535 616 484 654 q 585 515 585 578 m 171 323 q 386 386 305 333 q 467 515 467 439 q 446 578 467 553 q 386 602 425 602 q 294 564 338 602 q 216 460 249 525 q 171 323 184 395 m 260 966 l 400 842 l 583 966 l 624 966 l 621 943 l 461 758 l 317 758 l 222 943 l 225 966 l 260 966 z "},"Ĝ":{"ha":1003,"x_min":77,"x_max":973,"o":"m 468 -12 q 180 85 283 -12 q 77 355 77 182 q 147 653 77 525 q 347 850 218 781 q 642 920 475 920 q 945 879 799 920 l 911 684 l 865 684 l 867 796 q 638 865 781 865 q 420 801 518 865 q 268 616 323 736 q 213 341 213 497 q 282 121 213 200 q 477 42 352 42 q 598 59 537 42 q 702 104 659 77 l 745 343 l 631 361 l 637 397 l 973 397 l 967 361 l 875 343 l 824 58 q 639 3 722 19 q 468 -12 556 -12 m 418 985 l 421 1007 l 581 1192 l 725 1192 l 819 1007 l 816 985 l 784 985 l 644 1109 l 461 985 l 418 985 z "},"ĝ":{"ha":694,"x_min":1,"x_max":654,"o":"m 283 71 q 368 96 321 71 q 458 165 414 121 l 533 584 q 504 591 517 588 q 478 597 491 595 q 452 600 466 599 q 419 601 437 601 q 293 550 351 601 q 201 413 235 499 q 168 230 168 327 q 198 114 168 157 q 283 71 229 71 m 449 109 q 340 20 400 55 q 232 -14 280 -14 q 96 46 146 -14 q 47 212 47 107 q 99 433 47 331 q 239 594 151 535 q 431 654 328 654 q 537 646 472 654 q 654 626 603 638 l 540 -24 q 442 -231 515 -167 q 227 -296 369 -296 q 103 -282 167 -296 q 1 -248 39 -268 l 13 -93 l 43 -93 l 68 -178 q 226 -232 123 -232 q 357 -189 309 -232 q 422 -51 406 -146 l 449 109 m 228 758 l 231 781 l 391 966 l 535 966 l 629 781 l 626 758 l 594 758 l 454 882 l 271 758 l 228 758 z "},"Ğ":{"ha":1003,"x_min":77,"x_max":973,"o":"m 468 -12 q 180 85 283 -12 q 77 355 77 182 q 147 653 77 525 q 347 850 218 781 q 642 920 475 920 q 945 879 799 920 l 911 684 l 865 684 l 867 796 q 638 865 781 865 q 420 801 518 865 q 268 616 323 736 q 213 341 213 497 q 282 121 213 200 q 477 42 352 42 q 598 59 537 42 q 702 104 659 77 l 745 343 l 631 361 l 637 397 l 973 397 l 967 361 l 875 343 l 824 58 q 639 3 722 19 q 468 -12 556 -12 m 634 985 q 513 1025 555 985 q 470 1137 470 1065 l 473 1175 l 523 1175 q 560 1106 526 1131 q 651 1081 594 1081 q 752 1106 709 1081 q 812 1175 794 1132 l 862 1175 q 784 1036 844 1087 q 634 985 725 985 z "},"ğ":{"ha":694,"x_min":1,"x_max":656,"o":"m 283 71 q 368 96 321 71 q 458 165 414 121 l 533 584 q 504 591 517 588 q 478 597 491 595 q 452 600 466 599 q 419 601 437 601 q 293 550 351 601 q 201 413 235 499 q 168 230 168 327 q 198 114 168 157 q 283 71 229 71 m 449 109 q 340 20 400 55 q 232 -14 280 -14 q 96 46 146 -14 q 47 212 47 107 q 99 433 47 331 q 239 594 151 535 q 431 654 328 654 q 537 646 472 654 q 654 626 603 638 l 540 -24 q 442 -231 515 -167 q 227 -296 369 -296 q 103 -282 167 -296 q 1 -248 39 -268 l 13 -93 l 43 -93 l 68 -178 q 226 -232 123 -232 q 357 -189 309 -232 q 422 -51 406 -146 l 449 109 m 429 759 q 307 799 350 759 q 264 911 264 839 l 267 949 l 317 949 q 354 880 320 905 q 446 854 389 854 q 546 880 504 854 q 606 949 589 905 l 656 949 q 579 810 638 861 q 429 759 519 759 z "},"Ġ":{"ha":1003,"x_min":77,"x_max":973,"o":"m 468 -12 q 180 85 283 -12 q 77 355 77 182 q 147 653 77 525 q 347 850 218 781 q 642 920 475 920 q 945 879 799 920 l 911 684 l 865 684 l 867 796 q 638 865 781 865 q 420 801 518 865 q 268 616 323 736 q 213 341 213 497 q 282 121 213 200 q 477 42 352 42 q 598 59 537 42 q 702 104 659 77 l 745 343 l 631 361 l 637 397 l 973 397 l 967 361 l 875 343 l 824 58 q 639 3 722 19 q 468 -12 556 -12 m 720 1072 q 699 1021 720 1042 q 646 999 677 999 q 595 1021 616 999 q 573 1072 573 1042 q 595 1124 573 1103 q 646 1146 616 1146 q 699 1124 677 1146 q 720 1072 720 1103 z "},"ġ":{"ha":694,"x_min":1,"x_max":654,"o":"m 283 71 q 368 96 321 71 q 458 165 414 121 l 533 584 q 504 591 517 588 q 478 597 491 595 q 452 600 466 599 q 419 601 437 601 q 293 550 351 601 q 201 413 235 499 q 168 230 168 327 q 198 114 168 157 q 283 71 229 71 m 449 109 q 340 20 400 55 q 232 -14 280 -14 q 96 46 146 -14 q 47 212 47 107 q 99 433 47 331 q 239 594 151 535 q 431 654 328 654 q 537 646 472 654 q 654 626 603 638 l 540 -24 q 442 -231 515 -167 q 227 -296 369 -296 q 103 -282 167 -296 q 1 -248 39 -268 l 13 -93 l 43 -93 l 68 -178 q 226 -232 123 -232 q 357 -189 309 -232 q 422 -51 406 -146 l 449 109 m 514 846 q 492 794 514 816 q 440 772 471 772 q 389 794 410 772 q 367 846 367 816 q 389 898 367 876 q 440 920 410 920 q 492 898 471 920 q 514 846 514 876 z "},"Ģ":{"ha":1003,"x_min":77,"x_max":973,"o":"m 468 -12 q 180 85 283 -12 q 77 355 77 182 q 147 653 77 525 q 347 850 218 781 q 642 920 475 920 q 945 879 799 920 l 911 684 l 865 684 l 867 796 q 638 865 781 865 q 420 801 518 865 q 268 616 323 736 q 213 341 213 497 q 282 121 213 200 q 477 42 352 42 q 598 59 537 42 q 702 104 659 77 l 745 343 l 631 361 l 637 397 l 973 397 l 967 361 l 875 343 l 824 58 q 639 3 722 19 q 468 -12 556 -12 m 538 -133 q 498 -231 538 -193 q 373 -296 458 -270 l 373 -253 q 458 -193 458 -227 q 449 -171 458 -178 q 428 -156 439 -163 q 407 -137 416 -149 q 397 -102 397 -125 q 416 -62 397 -77 q 460 -47 434 -47 q 516 -70 495 -47 q 538 -133 538 -92 z "},"ģ":{"ha":694,"x_min":1,"x_max":654,"o":"m 283 71 q 368 96 321 71 q 458 165 414 121 l 533 584 q 504 591 517 588 q 478 597 491 595 q 452 600 466 599 q 419 601 437 601 q 293 550 351 601 q 201 413 235 499 q 168 230 168 327 q 198 114 168 157 q 283 71 229 71 m 449 109 q 340 20 400 55 q 232 -14 280 -14 q 96 46 146 -14 q 47 212 47 107 q 99 433 47 331 q 239 594 151 535 q 431 654 328 654 q 537 646 472 654 q 654 626 603 638 l 540 -24 q 442 -231 515 -167 q 227 -296 369 -296 q 103 -282 167 -296 q 1 -248 39 -268 l 13 -93 l 43 -93 l 68 -178 q 226 -232 123 -232 q 357 -189 309 -232 q 422 -51 406 -146 l 449 109 m 389 846 q 429 944 389 905 q 554 1008 469 983 l 554 966 q 469 905 469 940 q 478 884 469 891 q 499 869 488 876 q 520 850 511 861 q 530 815 530 838 q 511 774 530 789 q 467 760 493 760 q 411 782 432 760 q 389 846 389 805 z "},"Ĥ":{"ha":1003,"x_min":-15,"x_max":1065,"o":"m -15 0 l -9 36 l 110 54 l 250 856 l 138 873 l 143 909 l 507 909 l 502 873 l 380 856 l 318 498 l 746 498 l 808 856 l 696 873 l 701 909 l 1065 909 l 1060 873 l 939 856 l 799 54 l 911 36 l 905 0 l 542 0 l 547 36 l 668 54 l 735 437 l 307 437 l 240 54 l 353 36 l 347 0 l -15 0 m 418 985 l 421 1007 l 581 1192 l 725 1192 l 819 1007 l 816 985 l 784 985 l 644 1109 l 461 985 l 418 985 z "},"ĥ":{"ha":694,"x_min":81,"x_max":698,"o":"m 242 917 l 162 933 l 168 964 l 363 964 l 291 559 l 280 508 q 396 617 334 579 q 518 654 458 654 q 621 617 587 654 q 656 511 656 581 q 653 482 656 502 q 579 47 650 463 l 668 31 l 663 0 l 458 0 l 528 395 q 543 507 543 481 q 527 557 543 538 q 475 576 511 576 q 366 533 425 576 q 269 429 307 491 l 193 0 l 81 0 l 242 917 m 296 1019 l 300 1041 l 459 1226 l 604 1226 l 698 1041 l 694 1019 l 663 1019 l 523 1143 l 340 1019 l 296 1019 z "},"Ħ":{"ha":1003,"x_min":-15,"x_max":1065,"o":"m -15 0 l -9 36 l 110 54 l 214 649 l 97 649 l 106 705 l 224 705 l 250 856 l 138 873 l 143 909 l 507 909 l 502 873 l 380 856 l 354 705 l 782 705 l 808 856 l 696 873 l 701 909 l 1065 909 l 1060 873 l 939 856 l 913 705 l 1029 705 l 1019 649 l 903 649 l 799 54 l 911 36 l 905 0 l 542 0 l 547 36 l 668 54 l 735 437 l 307 437 l 240 54 l 353 36 l 347 0 l -15 0 m 746 498 l 772 649 l 345 649 l 318 498 l 746 498 z "},"ħ":{"ha":694,"x_min":50,"x_max":637,"o":"m 182 755 l 99 755 l 109 811 l 193 811 l 211 917 l 131 933 l 136 964 l 332 964 l 304 811 l 451 811 l 441 755 l 294 755 l 260 559 l 249 508 q 365 617 303 579 q 487 654 427 654 q 590 617 555 654 q 625 511 625 581 q 622 482 625 502 q 548 47 619 463 l 637 31 l 631 0 l 427 0 l 496 395 q 512 507 512 481 q 496 557 512 538 q 444 576 479 576 q 334 533 393 576 q 237 429 275 491 l 162 0 l 50 0 l 182 755 z "},"Ĩ":{"ha":463,"x_min":-5,"x_max":590,"o":"m 250 54 l 363 36 l 357 0 l -5 0 l 0 36 l 119 54 l 260 856 l 147 873 l 153 909 l 517 909 l 511 873 l 391 856 l 250 54 m 429 985 q 371 1000 396 985 q 325 1033 347 1015 q 284 1065 304 1050 q 241 1080 264 1080 q 206 1072 220 1080 q 182 1050 192 1064 q 159 999 172 1037 l 124 999 q 185 1124 146 1085 q 286 1163 225 1163 q 343 1148 318 1163 q 390 1116 368 1134 q 431 1083 411 1098 q 473 1069 451 1069 q 520 1085 501 1069 q 555 1149 539 1101 l 590 1149 q 529 1025 568 1064 q 429 985 489 985 z "},"ĩ":{"ha":386,"x_min":45,"x_max":511,"o":"m 195 47 l 301 31 l 296 0 l 74 0 l 178 590 l 90 607 l 96 637 l 298 637 l 195 47 m 350 759 q 293 773 317 759 q 247 806 268 788 q 205 839 225 824 q 163 853 185 853 q 127 845 141 853 q 103 824 113 838 q 81 772 94 810 l 45 772 q 107 898 67 859 q 207 937 146 937 q 264 922 239 937 q 311 889 290 907 q 352 857 332 871 q 394 842 372 842 q 441 859 422 842 q 476 922 460 875 l 511 922 q 450 798 490 838 q 350 759 410 759 z "},"Ī":{"ha":463,"x_min":-5,"x_max":577,"o":"m 250 54 l 363 36 l 357 0 l -5 0 l 0 36 l 119 54 l 260 856 l 147 873 l 153 909 l 517 909 l 511 873 l 391 856 l 250 54 m 138 1014 l 151 1088 l 577 1088 l 564 1014 l 138 1014 z "},"ī":{"ha":386,"x_min":54,"x_max":493,"o":"m 195 47 l 301 31 l 296 0 l 74 0 l 178 590 l 90 607 l 96 637 l 298 637 l 195 47 m 54 787 l 67 861 l 493 861 l 480 787 l 54 787 z "},"Ĭ":{"ha":463,"x_min":-5,"x_max":577,"o":"m 250 54 l 363 36 l 357 0 l -5 0 l 0 36 l 119 54 l 260 856 l 147 873 l 153 909 l 517 909 l 511 873 l 391 856 l 250 54 m 349 985 q 228 1025 271 985 q 185 1137 185 1065 l 188 1175 l 238 1175 q 275 1106 241 1131 q 366 1081 309 1081 q 467 1106 425 1081 q 527 1175 509 1132 l 577 1175 q 499 1036 559 1087 q 349 985 440 985 z "},"ĭ":{"ha":386,"x_min":74,"x_max":489,"o":"m 195 47 l 301 31 l 296 0 l 74 0 l 178 590 l 90 607 l 96 637 l 298 637 l 195 47 m 261 759 q 140 799 182 759 q 97 911 97 839 l 100 949 l 150 949 q 187 880 153 905 q 278 854 221 854 q 379 880 336 854 q 439 949 421 905 l 489 949 q 411 810 471 861 q 261 759 352 759 z "},"Į":{"ha":463,"x_min":-5,"x_max":517,"o":"m 250 54 l 363 36 l 357 0 l -5 0 l 0 36 l 119 54 l 260 856 l 147 873 l 153 909 l 517 909 l 511 873 l 391 856 l 250 54 m 312 -240 q 193 -273 258 -273 q 95 -240 130 -273 q 59 -150 59 -208 q 82 -65 59 -107 q 147 11 105 -24 l 221 11 q 176 -60 193 -21 q 160 -137 160 -98 q 181 -194 160 -174 q 241 -214 202 -214 q 301 -201 272 -214 l 312 -240 z "},"į":{"ha":386,"x_min":2,"x_max":344,"o":"m 198 47 l 304 31 l 299 0 l 77 0 l 181 590 l 94 607 l 99 637 l 302 637 l 198 47 m 344 846 q 322 794 344 816 q 270 772 300 772 q 218 794 240 772 q 197 846 197 816 q 218 898 197 876 q 270 920 240 920 q 322 898 300 920 q 344 846 344 876 m 255 -240 q 136 -273 201 -273 q 38 -240 73 -273 q 2 -150 2 -208 q 25 -65 2 -107 q 90 11 48 -24 l 164 11 q 119 -60 136 -21 q 103 -137 103 -98 q 124 -194 103 -174 q 184 -214 145 -214 q 244 -201 215 -214 l 255 -240 z "},"İ":{"ha":463,"x_min":-5,"x_max":517,"o":"m 250 54 l 363 36 l 357 0 l -5 0 l 0 36 l 119 54 l 260 856 l 147 873 l 153 909 l 517 909 l 511 873 l 391 856 l 250 54 m 437 1072 q 416 1021 437 1042 q 363 999 394 999 q 312 1021 334 999 q 290 1072 290 1042 q 312 1124 290 1103 q 363 1146 334 1146 q 416 1124 394 1146 q 437 1072 437 1103 z "},"ı":{"ha":386,"x_min":74,"x_max":301,"o":"m 195 47 l 301 31 l 296 0 l 74 0 l 178 590 l 90 607 l 96 637 l 298 637 l 195 47 z "},"Ĳ":{"ha":1042,"x_min":-5,"x_max":1096,"o":"m 250 54 l 363 36 l 357 0 l -5 0 l 0 36 l 119 54 l 260 856 l 147 873 l 153 909 l 517 909 l 511 873 l 391 856 l 250 54 m 853 856 l 740 873 l 746 909 l 1096 909 l 1090 873 l 983 856 l 884 293 q 606 -14 830 -14 q 517 -4 559 -14 q 446 18 474 5 l 475 175 l 519 175 l 522 81 q 559 55 531 66 q 616 45 587 45 q 733 174 711 45 l 853 856 z "},"ĳ":{"ha":695,"x_min":77,"x_max":661,"o":"m 198 47 l 304 31 l 299 0 l 77 0 l 181 590 l 94 607 l 99 637 l 302 637 l 198 47 m 344 846 q 322 794 344 816 q 270 772 300 772 q 218 794 240 772 q 197 846 197 816 q 218 898 197 876 q 270 920 240 920 q 322 898 300 920 q 344 846 344 876 m 269 -296 q 161 -275 214 -296 l 183 -149 l 215 -149 l 225 -223 q 273 -241 243 -241 q 343 -198 317 -241 q 385 -61 368 -155 l 500 590 l 407 607 l 412 637 l 621 637 l 503 -26 q 421 -230 478 -163 q 269 -296 363 -296 m 661 846 q 640 794 661 816 q 587 772 618 772 q 536 794 557 772 q 514 846 514 816 q 536 898 514 876 q 587 920 557 920 q 640 898 618 920 q 661 846 661 876 z "},"Ĵ":{"ha":616,"x_min":21,"x_max":712,"o":"m 428 856 l 315 873 l 321 909 l 671 909 l 665 873 l 558 856 l 459 293 q 181 -14 405 -14 q 92 -4 134 -14 q 21 18 49 5 l 50 175 l 94 175 l 97 81 q 134 55 106 66 q 191 45 162 45 q 308 174 286 45 l 428 856 m 311 985 l 314 1007 l 473 1192 l 618 1192 l 712 1007 l 709 985 l 677 985 l 537 1109 l 354 985 l 311 985 z "},"ĵ":{"ha":386,"x_min":-149,"x_max":455,"o":"m 54 758 l 57 781 l 216 966 l 361 966 l 455 781 l 452 758 l 420 758 l 280 882 l 97 758 l 54 758 m -40 -296 q -149 -275 -95 -296 l -126 -149 l -94 -149 l -84 -223 q -36 -241 -66 -241 q 34 -198 8 -241 q 75 -61 59 -155 l 191 590 l 98 607 l 103 637 l 311 637 l 193 -26 q 112 -230 169 -163 q -40 -296 54 -296 z "},"Ķ":{"ha":926,"x_min":-16,"x_max":986,"o":"m 986 909 l 979 873 l 873 856 l 496 547 l 800 54 l 890 36 l 884 0 l 675 0 l 397 465 l 300 386 l 240 54 l 368 36 l 361 0 l -16 0 l -9 36 l 109 54 l 251 856 l 137 873 l 144 909 l 508 909 l 501 873 l 382 856 l 315 477 l 775 856 l 694 873 l 701 909 l 986 909 m 532 -133 q 493 -231 532 -193 q 368 -296 453 -270 l 368 -253 q 453 -193 453 -227 q 444 -171 453 -178 q 422 -156 434 -163 q 401 -137 411 -149 q 392 -102 392 -125 q 410 -62 392 -77 q 455 -47 429 -47 q 511 -70 490 -47 q 532 -133 532 -92 z "},"ķ":{"ha":616,"x_min":40,"x_max":637,"o":"m 203 917 l 111 933 l 117 964 l 323 964 l 207 307 l 497 589 l 433 607 l 439 637 l 637 637 l 631 607 l 576 591 l 377 401 l 542 46 l 608 31 l 603 0 l 443 0 l 295 325 l 195 231 l 153 0 l 40 0 l 203 917 m 353 -133 q 313 -231 353 -193 q 188 -296 273 -270 l 188 -253 q 273 -193 273 -227 q 264 -171 273 -178 q 243 -156 254 -163 q 222 -137 231 -149 q 212 -102 212 -125 q 231 -62 212 -77 q 275 -47 249 -47 q 331 -70 310 -47 q 353 -133 353 -92 z "},"ĸ":{"ha":616,"x_min":40,"x_max":637,"o":"m 145 591 l 54 607 l 59 637 l 266 637 l 207 307 l 497 589 l 433 607 l 439 637 l 637 637 l 631 607 l 576 591 l 377 401 l 542 46 l 608 31 l 603 0 l 443 0 l 295 325 l 195 231 l 153 0 l 40 0 l 145 591 z "},"Ĺ":{"ha":772,"x_min":-16,"x_max":707,"o":"m 241 58 l 386 58 q 587 72 515 58 l 663 261 l 707 261 l 648 0 l -16 0 l -9 36 l 109 54 l 251 856 l 137 873 l 144 909 l 532 909 l 525 873 l 382 856 l 241 58 m 288 985 l 291 1007 l 456 1192 l 601 1192 l 597 1166 l 325 985 l 288 985 z "},"ĺ":{"ha":386,"x_min":74,"x_max":532,"o":"m 195 47 l 301 31 l 296 0 l 74 0 l 235 917 l 147 933 l 153 964 l 355 964 l 195 47 m 219 1019 l 222 1041 l 388 1225 l 532 1225 l 528 1200 l 256 1019 l 219 1019 z "},"Ļ":{"ha":772,"x_min":-16,"x_max":707,"o":"m 241 58 l 386 58 q 587 72 515 58 l 663 261 l 707 261 l 648 0 l -16 0 l -9 36 l 109 54 l 251 856 l 137 873 l 144 909 l 532 909 l 525 873 l 382 856 l 241 58 m 430 -133 q 390 -231 430 -193 q 265 -296 351 -270 l 265 -253 q 351 -193 351 -227 q 341 -171 351 -178 q 320 -156 332 -163 q 299 -137 309 -149 q 290 -102 290 -125 q 308 -62 290 -77 q 353 -47 326 -47 q 409 -70 387 -47 q 430 -133 430 -92 z "},"ļ":{"ha":386,"x_min":43,"x_max":355,"o":"m 195 47 l 301 31 l 296 0 l 74 0 l 235 917 l 147 933 l 153 964 l 355 964 l 195 47 m 208 -133 q 169 -231 208 -193 q 43 -296 129 -270 l 43 -253 q 129 -193 129 -227 q 119 -171 129 -178 q 98 -156 110 -163 q 77 -137 87 -149 q 68 -102 68 -125 q 86 -62 68 -77 q 131 -47 104 -47 q 187 -70 165 -47 q 208 -133 208 -92 z "},"Ľ":{"ha":772,"x_min":-16,"x_max":794,"o":"m 241 58 l 386 58 q 587 72 515 58 l 663 261 l 707 261 l 648 0 l -16 0 l -9 36 l 109 54 l 251 856 l 137 873 l 144 909 l 532 909 l 525 873 l 382 856 l 241 58 m 794 812 q 746 692 794 739 q 587 621 697 646 l 587 663 q 659 688 632 673 q 699 718 686 702 q 712 761 712 734 q 702 781 712 772 q 681 799 692 789 q 659 822 669 808 q 649 856 649 835 q 668 896 649 882 q 715 909 686 909 q 772 883 749 909 q 794 812 794 857 z "},"ľ":{"ha":505,"x_min":74,"x_max":593,"o":"m 195 47 l 301 31 l 296 0 l 74 0 l 235 917 l 147 933 l 153 964 l 355 964 l 195 47 m 593 867 q 544 746 593 793 q 385 675 496 700 l 385 718 q 458 742 431 728 q 498 772 485 756 q 511 815 511 789 q 501 835 511 827 q 479 853 491 844 q 457 876 467 863 q 448 910 448 889 q 466 950 448 936 q 514 964 485 964 q 570 937 548 964 q 593 867 593 911 z "},"Ŀ":{"ha":772,"x_min":-16,"x_max":707,"o":"m 241 58 l 386 58 q 587 72 515 58 l 663 261 l 707 261 l 648 0 l -16 0 l -9 36 l 109 54 l 251 856 l 137 873 l 144 909 l 532 909 l 525 873 l 382 856 l 241 58 m 650 454 q 628 403 650 425 q 576 381 606 381 q 524 403 546 381 q 503 454 503 425 q 524 507 503 485 q 576 528 546 528 q 628 507 606 528 q 650 454 650 485 z "},"ŀ":{"ha":448,"x_min":51,"x_max":503,"o":"m 172 47 l 278 31 l 273 0 l 51 0 l 212 917 l 124 933 l 130 964 l 332 964 l 172 47 m 503 454 q 481 403 503 425 q 429 381 459 381 q 377 403 399 381 q 355 454 355 425 q 377 507 355 485 q 429 528 399 528 q 481 507 459 528 q 503 454 503 485 z "},"Ł":{"ha":772,"x_min":-16,"x_max":707,"o":"m 319 499 l 549 621 l 538 557 l 307 435 l 241 58 l 386 58 q 587 72 515 58 l 663 261 l 707 261 l 648 0 l -16 0 l -9 36 l 109 54 l 163 359 l 24 286 l 35 351 l 174 424 l 251 856 l 137 873 l 144 909 l 532 909 l 525 873 l 382 856 l 319 499 z "},"ł":{"ha":386,"x_min":2,"x_max":415,"o":"m 271 486 l 415 562 l 404 498 l 260 422 l 195 47 l 301 31 l 296 0 l 74 0 l 136 357 l 2 286 l 13 351 l 147 421 l 235 917 l 147 933 l 153 964 l 355 964 l 271 486 z "},"Ń":{"ha":926,"x_min":-10,"x_max":991,"o":"m 793 856 l 674 873 l 681 909 l 991 909 l 984 873 l 865 856 l 713 0 l 648 0 l 321 818 l 186 54 l 306 36 l 299 0 l -10 0 l -3 36 l 115 54 l 257 856 l 143 873 l 150 909 l 413 909 l 684 228 l 793 856 m 504 985 l 507 1007 l 673 1192 l 817 1192 l 813 1166 l 541 985 l 504 985 z "},"ń":{"ha":694,"x_min":50,"x_max":652,"o":"m 512 507 q 496 557 512 538 q 444 576 479 576 q 335 533 394 576 q 237 427 275 490 l 162 0 l 50 0 l 153 591 l 73 608 l 79 638 l 267 638 l 249 508 q 367 618 306 581 q 487 654 428 654 q 590 617 555 654 q 625 511 625 581 q 622 482 625 502 q 548 47 619 463 l 637 31 l 631 0 l 427 0 l 496 395 q 512 507 512 481 m 338 758 l 342 781 l 507 965 l 652 965 l 648 940 l 376 758 l 338 758 z "},"Ņ":{"ha":926,"x_min":-10,"x_max":991,"o":"m 793 856 l 674 873 l 681 909 l 991 909 l 984 873 l 865 856 l 713 0 l 648 0 l 321 818 l 186 54 l 306 36 l 299 0 l -10 0 l -3 36 l 115 54 l 257 856 l 143 873 l 150 909 l 413 909 l 684 228 l 793 856 m 476 -133 q 436 -231 476 -193 q 311 -296 397 -270 l 311 -253 q 397 -193 397 -227 q 387 -171 397 -178 q 366 -156 378 -163 q 345 -137 355 -149 q 336 -102 336 -125 q 354 -62 336 -77 q 399 -47 372 -47 q 455 -70 433 -47 q 476 -133 476 -92 z "},"ņ":{"ha":694,"x_min":50,"x_max":637,"o":"m 512 507 q 496 557 512 538 q 444 576 479 576 q 335 533 394 576 q 237 427 275 490 l 162 0 l 50 0 l 153 591 l 73 608 l 79 638 l 267 638 l 249 508 q 367 618 306 581 q 487 654 428 654 q 590 617 555 654 q 625 511 625 581 q 622 482 625 502 q 548 47 619 463 l 637 31 l 631 0 l 427 0 l 496 395 q 512 507 512 481 m 360 -133 q 320 -231 360 -193 q 195 -296 281 -270 l 195 -253 q 281 -193 281 -227 q 271 -171 281 -178 q 250 -156 262 -163 q 229 -137 239 -149 q 220 -102 220 -125 q 238 -62 220 -77 q 283 -47 256 -47 q 339 -70 317 -47 q 360 -133 360 -92 z "},"Ň":{"ha":926,"x_min":-10,"x_max":991,"o":"m 793 856 l 674 873 l 681 909 l 991 909 l 984 873 l 865 856 l 713 0 l 648 0 l 321 818 l 186 54 l 306 36 l 299 0 l -10 0 l -3 36 l 115 54 l 257 856 l 143 873 l 150 909 l 413 909 l 684 228 l 793 856 m 449 1192 l 589 1068 l 772 1192 l 812 1192 l 809 1170 l 650 985 l 505 985 l 410 1170 l 414 1192 l 449 1192 z "},"ň":{"ha":694,"x_min":50,"x_max":667,"o":"m 512 507 q 496 557 512 538 q 444 576 479 576 q 335 533 394 576 q 237 427 275 490 l 162 0 l 50 0 l 153 591 l 73 608 l 79 638 l 267 638 l 249 508 q 367 618 306 581 q 487 654 428 654 q 590 617 555 654 q 625 511 625 581 q 622 482 625 502 q 548 47 619 463 l 637 31 l 631 0 l 427 0 l 496 395 q 512 507 512 481 m 303 966 l 443 842 l 626 966 l 667 966 l 663 943 l 504 758 l 359 758 l 264 943 l 268 966 l 303 966 z "},"ŉ":{"ha":802,"x_min":5,"x_max":744,"o":"m 619 507 q 603 557 619 538 q 551 576 587 576 q 442 533 501 576 q 344 427 382 490 l 269 0 l 157 0 l 260 591 l 180 608 l 186 638 l 374 638 l 356 508 q 474 618 413 581 q 594 654 535 654 q 697 617 663 654 q 732 511 732 581 q 729 482 732 502 q 655 47 726 463 l 744 31 l 739 0 l 534 0 l 604 395 q 619 507 619 481 m 219 809 q 163 658 219 720 q 5 567 106 596 l 5 619 q 132 733 132 659 q 118 762 132 752 q 89 781 105 771 q 60 805 73 791 q 47 848 47 820 q 70 904 47 885 q 129 924 93 924 q 195 893 170 924 q 219 809 219 863 z "},"Ŋ":{"ha":967,"x_min":-16,"x_max":908,"o":"m 563 -14 q 473 -4 516 -14 q 403 18 431 5 l 431 175 l 475 175 l 479 81 q 516 55 488 66 q 572 45 544 45 q 690 174 667 45 l 766 596 q 770 624 768 609 q 775 655 773 640 q 779 686 777 671 q 780 712 780 701 q 745 804 780 772 q 643 835 710 835 q 513 814 587 835 q 364 755 440 793 l 241 54 l 334 36 l 328 0 l -16 0 l -9 36 l 110 54 l 252 856 l 138 873 l 144 909 l 391 909 l 375 814 q 694 916 565 916 q 908 726 908 916 q 895 596 908 677 l 841 293 q 563 -14 787 -14 z "},"ŋ":{"ha":669,"x_min":50,"x_max":625,"o":"m 625 511 q 608 393 625 487 l 534 -26 q 300 -296 488 -296 q 192 -275 245 -296 l 214 -149 l 246 -149 l 256 -223 q 304 -241 275 -241 q 374 -198 349 -241 q 416 -61 399 -155 l 496 395 q 512 507 512 488 q 496 557 512 538 q 444 576 479 576 q 335 533 394 576 q 237 427 275 490 l 162 0 l 50 0 l 153 591 l 73 608 l 79 638 l 267 638 l 249 508 q 367 618 306 581 q 487 654 428 654 q 590 617 555 654 q 625 511 625 581 z "},"Ō":{"ha":1003,"x_min":70,"x_max":970,"o":"m 835 564 q 765 783 835 700 q 582 865 696 865 q 396 797 481 865 q 259 600 312 728 q 205 341 205 471 q 274 125 205 207 q 454 44 342 44 q 641 112 555 44 q 781 309 727 180 q 835 564 835 437 m 450 -14 q 253 32 340 -14 q 118 161 166 78 q 70 349 70 245 q 138 645 70 512 q 323 848 205 777 q 591 920 440 920 q 787 874 700 920 q 922 745 874 828 q 970 557 970 662 q 902 262 970 397 q 717 57 834 127 q 450 -14 600 -14 m 401 1014 l 414 1088 l 840 1088 l 827 1014 l 401 1014 z "},"ō":{"ha":694,"x_min":41,"x_max":659,"o":"m 161 231 q 196 91 161 139 q 296 42 232 42 q 413 92 357 42 q 502 227 469 141 q 534 411 534 313 q 499 553 534 505 q 397 602 463 602 q 280 552 335 602 q 193 417 224 503 q 161 231 161 331 m 290 -14 q 109 59 177 -14 q 41 254 41 131 q 88 456 41 363 q 218 602 135 549 q 405 654 301 654 q 585 582 517 654 q 653 387 653 510 q 606 185 653 278 q 476 39 559 92 q 290 -14 393 -14 m 220 787 l 233 861 l 659 861 l 646 787 l 220 787 z "},"Ŏ":{"ha":1003,"x_min":70,"x_max":970,"o":"m 835 564 q 765 783 835 700 q 582 865 696 865 q 396 797 481 865 q 259 600 312 728 q 205 341 205 471 q 274 125 205 207 q 454 44 342 44 q 641 112 555 44 q 781 309 727 180 q 835 564 835 437 m 450 -14 q 253 32 340 -14 q 118 161 166 78 q 70 349 70 245 q 138 645 70 512 q 323 848 205 777 q 591 920 440 920 q 787 874 700 920 q 922 745 874 828 q 970 557 970 662 q 902 262 970 397 q 717 57 834 127 q 450 -14 600 -14 m 606 985 q 485 1025 528 985 q 442 1137 442 1065 l 445 1175 l 495 1175 q 532 1106 498 1131 q 623 1081 566 1081 q 724 1106 682 1081 q 784 1175 766 1132 l 834 1175 q 756 1036 816 1087 q 606 985 697 985 z "},"ŏ":{"ha":694,"x_min":41,"x_max":653,"o":"m 161 231 q 196 91 161 139 q 296 42 232 42 q 413 92 357 42 q 502 227 469 141 q 534 411 534 313 q 499 553 534 505 q 397 602 463 602 q 280 552 335 602 q 193 417 224 503 q 161 231 161 331 m 290 -14 q 109 59 177 -14 q 41 254 41 131 q 88 456 41 363 q 218 602 135 549 q 405 654 301 654 q 585 582 517 654 q 653 387 653 510 q 606 185 653 278 q 476 39 559 92 q 290 -14 393 -14 m 425 759 q 303 799 346 759 q 260 911 260 839 l 263 949 l 313 949 q 350 880 316 905 q 441 854 385 854 q 542 880 500 854 q 602 949 585 905 l 652 949 q 575 810 634 861 q 425 759 515 759 z "},"Ő":{"ha":1003,"x_min":70,"x_max":970,"o":"m 835 564 q 765 783 835 700 q 582 865 696 865 q 396 797 481 865 q 259 600 312 728 q 205 341 205 471 q 274 125 205 207 q 454 44 342 44 q 641 112 555 44 q 781 309 727 180 q 835 564 835 437 m 450 -14 q 253 32 340 -14 q 118 161 166 78 q 70 349 70 245 q 138 645 70 512 q 323 848 205 777 q 591 920 440 920 q 787 874 700 920 q 922 745 874 828 q 970 557 970 662 q 902 262 970 397 q 717 57 834 127 q 450 -14 600 -14 m 403 985 l 407 1007 l 561 1206 l 691 1206 l 687 1181 l 454 985 l 403 985 m 640 985 l 644 1007 l 798 1206 l 928 1206 l 924 1181 l 692 985 l 640 985 z "},"ő":{"ha":694,"x_min":41,"x_max":742,"o":"m 161 231 q 196 91 161 139 q 296 42 232 42 q 413 92 357 42 q 502 227 469 141 q 534 411 534 313 q 499 553 534 505 q 397 602 463 602 q 280 552 335 602 q 193 417 224 503 q 161 231 161 331 m 290 -14 q 109 59 177 -14 q 41 254 41 131 q 88 456 41 363 q 218 602 135 549 q 405 654 301 654 q 585 582 517 654 q 653 387 653 510 q 606 185 653 278 q 476 39 559 92 q 290 -14 393 -14 m 216 758 l 220 781 l 374 979 l 505 979 l 500 954 l 267 758 l 216 758 m 454 758 l 458 781 l 612 979 l 742 979 l 738 954 l 505 758 l 454 758 z "},"Œ":{"ha":1311,"x_min":70,"x_max":1289,"o":"m 435 -4 q 167 89 264 -4 q 70 349 70 182 q 135 638 70 508 q 319 841 200 768 q 591 914 438 914 l 770 909 l 1289 909 l 1250 692 l 1205 692 l 1209 839 q 991 848 1135 848 l 843 848 l 780 493 l 1025 493 l 1066 602 l 1109 602 l 1060 322 l 1017 322 l 1015 432 l 770 432 l 704 61 l 883 61 q 1114 72 1057 61 l 1183 240 l 1227 240 l 1172 0 l 622 0 q 435 -4 569 -4 m 444 44 q 572 59 521 44 l 711 849 q 582 865 666 865 q 396 797 481 865 q 259 600 312 728 q 205 341 205 471 q 268 122 205 199 q 444 44 330 44 z "},"œ":{"ha":926,"x_min":41,"x_max":895,"o":"m 231 -14 q 91 48 141 -14 q 41 222 41 110 q 84 441 41 342 q 204 598 127 541 q 378 654 281 654 q 537 556 487 654 q 623 628 570 601 q 741 654 676 654 q 854 621 812 654 q 895 527 895 588 q 853 409 895 463 q 733 322 812 356 q 548 280 655 289 q 543 243 547 275 q 539 183 539 210 q 567 85 539 114 q 648 57 595 57 q 825 125 730 57 l 845 96 q 609 -14 723 -14 q 450 89 486 -14 q 231 -14 363 -14 m 244 42 q 342 99 294 42 q 419 251 389 156 q 450 452 450 347 q 426 563 450 524 q 361 602 403 602 q 263 543 310 602 q 188 387 216 484 q 159 189 159 290 q 181 81 159 119 q 244 42 203 42 m 555 323 q 722 385 665 334 q 779 520 779 435 q 764 582 779 561 q 724 602 748 602 q 622 525 669 602 q 555 323 575 448 z "},"Ŕ":{"ha":848,"x_min":-7,"x_max":825,"o":"m 301 399 l 240 54 l 361 36 l 355 0 l -7 0 l -1 36 l 109 54 l 251 856 l 137 873 l 144 909 l 505 909 q 731 853 653 909 q 809 689 809 797 q 572 418 809 475 l 726 54 l 825 36 l 819 0 l 610 0 l 443 399 l 301 399 m 418 460 q 608 518 541 460 q 675 685 675 577 q 481 848 675 848 l 380 848 l 312 460 l 418 460 m 461 985 l 465 1007 l 630 1192 l 774 1192 l 770 1166 l 498 985 l 461 985 z "},"ŕ":{"ha":541,"x_min":56,"x_max":610,"o":"m 491 654 q 545 649 525 654 l 515 482 l 486 482 l 460 568 q 348 527 406 568 q 241 418 290 486 l 169 0 l 56 0 l 160 590 l 80 607 l 85 637 l 273 637 l 252 494 q 366 612 303 570 q 491 654 429 654 m 296 758 l 300 781 l 465 965 l 610 965 l 606 940 l 334 758 l 296 758 z "},"Ŗ":{"ha":848,"x_min":-7,"x_max":825,"o":"m 301 399 l 240 54 l 361 36 l 355 0 l -7 0 l -1 36 l 109 54 l 251 856 l 137 873 l 144 909 l 505 909 q 731 853 653 909 q 809 689 809 797 q 572 418 809 475 l 726 54 l 825 36 l 819 0 l 610 0 l 443 399 l 301 399 m 418 460 q 608 518 541 460 q 675 685 675 577 q 481 848 675 848 l 380 848 l 312 460 l 418 460 m 480 -133 q 440 -231 480 -193 q 315 -296 401 -270 l 315 -253 q 401 -193 401 -227 q 391 -171 401 -178 q 370 -156 382 -163 q 349 -137 359 -149 q 340 -102 340 -125 q 358 -62 340 -77 q 403 -47 376 -47 q 459 -70 437 -47 q 480 -133 480 -92 z "},"ŗ":{"ha":541,"x_min":22,"x_max":545,"o":"m 491 654 q 545 649 525 654 l 515 482 l 486 482 l 460 568 q 348 527 406 568 q 241 418 290 486 l 169 0 l 56 0 l 160 590 l 80 607 l 85 637 l 273 637 l 252 494 q 366 612 303 570 q 491 654 429 654 m 186 -133 q 147 -231 186 -193 q 22 -296 107 -270 l 22 -253 q 107 -193 107 -227 q 98 -171 107 -178 q 77 -156 88 -163 q 56 -137 65 -149 q 46 -102 46 -125 q 64 -62 46 -77 q 109 -47 83 -47 q 165 -70 144 -47 q 186 -133 186 -92 z "},"Ř":{"ha":848,"x_min":-7,"x_max":825,"o":"m 301 399 l 240 54 l 361 36 l 355 0 l -7 0 l -1 36 l 109 54 l 251 856 l 137 873 l 144 909 l 505 909 q 731 853 653 909 q 809 689 809 797 q 572 418 809 475 l 726 54 l 825 36 l 819 0 l 610 0 l 443 399 l 301 399 m 418 460 q 608 518 541 460 q 675 685 675 577 q 481 848 675 848 l 380 848 l 312 460 l 418 460 m 387 1192 l 527 1068 l 710 1192 l 751 1192 l 747 1170 l 588 985 l 444 985 l 349 1170 l 352 1192 l 387 1192 z "},"ř":{"ha":541,"x_min":56,"x_max":580,"o":"m 491 654 q 545 649 525 654 l 515 482 l 486 482 l 460 568 q 348 527 406 568 q 241 418 290 486 l 169 0 l 56 0 l 160 590 l 80 607 l 85 637 l 273 637 l 252 494 q 366 612 303 570 q 491 654 429 654 m 216 966 l 356 842 l 539 966 l 580 966 l 576 943 l 417 758 l 273 758 l 178 943 l 181 966 l 216 966 z "},"Ś":{"ha":694,"x_min":16,"x_max":691,"o":"m 52 252 l 96 252 l 96 122 q 173 65 119 88 q 287 41 227 41 q 458 94 398 41 q 518 241 518 146 q 502 304 518 277 q 458 353 486 332 q 397 393 431 375 q 327 430 363 412 q 257 470 291 449 q 195 520 222 492 q 152 585 168 548 q 136 671 136 621 q 218 856 136 791 q 452 920 300 920 q 672 894 569 920 l 639 705 l 595 705 l 591 821 q 531 850 570 838 q 442 863 492 863 q 303 819 352 863 q 254 695 254 774 q 285 617 254 652 q 376 551 315 582 q 509 478 468 503 q 577 425 549 453 q 621 359 604 396 q 637 275 637 323 q 546 61 637 136 q 283 -14 455 -14 q 129 4 197 -14 q 16 50 61 21 l 52 252 m 378 985 l 381 1007 l 547 1192 l 691 1192 l 687 1166 l 415 985 l 378 985 z "},"ś":{"ha":541,"x_min":17,"x_max":574,"o":"m 469 187 q 404 36 469 85 q 207 -14 339 -14 q 17 28 113 -14 l 45 182 l 75 182 l 87 89 q 137 55 104 70 q 210 40 169 40 q 358 161 358 40 q 327 233 358 201 q 224 298 295 264 q 122 372 155 332 q 89 467 89 412 q 149 605 89 556 q 317 654 210 654 q 498 631 393 654 l 473 489 l 441 489 l 432 562 q 319 600 389 600 q 231 575 264 600 q 197 496 197 549 q 226 431 197 459 q 334 363 254 404 q 437 284 404 326 q 469 187 469 242 m 261 758 l 264 781 l 430 965 l 574 965 l 570 940 l 298 758 l 261 758 z "},"Ŝ":{"ha":694,"x_min":16,"x_max":672,"o":"m 52 252 l 96 252 l 96 122 q 173 65 119 88 q 287 41 227 41 q 458 94 398 41 q 518 241 518 146 q 502 304 518 277 q 458 353 486 332 q 397 393 431 375 q 327 430 363 412 q 257 470 291 449 q 195 520 222 492 q 152 585 168 548 q 136 671 136 621 q 218 856 136 791 q 452 920 300 920 q 672 894 569 920 l 639 705 l 595 705 l 591 821 q 531 850 570 838 q 442 863 492 863 q 303 819 352 863 q 254 695 254 774 q 285 617 254 652 q 376 551 315 582 q 509 478 468 503 q 577 425 549 453 q 621 359 604 396 q 637 275 637 323 q 546 61 637 136 q 283 -14 455 -14 q 129 4 197 -14 q 16 50 61 21 l 52 252 m 262 985 l 265 1007 l 425 1192 l 569 1192 l 663 1007 l 660 985 l 628 985 l 488 1109 l 305 985 l 262 985 z "},"ŝ":{"ha":541,"x_min":17,"x_max":552,"o":"m 469 187 q 404 36 469 85 q 207 -14 339 -14 q 17 28 113 -14 l 45 182 l 75 182 l 87 89 q 137 55 104 70 q 210 40 169 40 q 358 161 358 40 q 327 233 358 201 q 224 298 295 264 q 122 372 155 332 q 89 467 89 412 q 149 605 89 556 q 317 654 210 654 q 498 631 393 654 l 473 489 l 441 489 l 432 562 q 319 600 389 600 q 231 575 264 600 q 197 496 197 549 q 226 431 197 459 q 334 363 254 404 q 437 284 404 326 q 469 187 469 242 m 151 758 l 154 781 l 313 966 l 458 966 l 552 781 l 549 758 l 517 758 l 377 882 l 194 758 l 151 758 z "},"Ş":{"ha":694,"x_min":16,"x_max":672,"o":"m 52 252 l 96 252 l 96 122 q 173 65 119 88 q 287 41 227 41 q 458 94 398 41 q 518 241 518 146 q 502 304 518 277 q 458 353 486 332 q 397 393 431 375 q 327 430 363 412 q 257 470 291 449 q 195 520 222 492 q 152 585 168 548 q 136 671 136 621 q 218 856 136 791 q 452 920 300 920 q 672 894 569 920 l 639 705 l 595 705 l 591 821 q 531 850 570 838 q 442 863 492 863 q 303 819 352 863 q 254 695 254 774 q 285 617 254 652 q 376 551 315 582 q 509 478 468 503 q 577 425 549 453 q 621 359 604 396 q 637 275 637 323 q 546 61 637 136 q 283 -14 455 -14 q 129 4 197 -14 q 16 50 61 21 l 52 252 m 401 -144 q 353 -250 401 -210 q 212 -290 304 -290 q 122 -275 163 -290 l 138 -224 q 203 -235 170 -235 q 271 -217 245 -235 q 296 -159 296 -198 q 273 -110 296 -130 q 206 -85 250 -90 l 252 18 l 311 18 l 288 -37 q 372 -71 342 -43 q 401 -144 401 -98 z "},"ş":{"ha":541,"x_min":17,"x_max":498,"o":"m 469 187 q 404 36 469 85 q 207 -14 339 -14 q 17 28 113 -14 l 45 182 l 75 182 l 87 89 q 137 55 104 70 q 210 40 169 40 q 358 161 358 40 q 327 233 358 201 q 224 298 295 264 q 122 372 155 332 q 89 467 89 412 q 149 605 89 556 q 317 654 210 654 q 498 631 393 654 l 473 489 l 441 489 l 432 562 q 319 600 389 600 q 231 575 264 600 q 197 496 197 549 q 226 431 197 459 q 334 363 254 404 q 437 284 404 326 q 469 187 469 242 m 338 -144 q 289 -250 338 -210 q 149 -290 241 -290 q 58 -275 100 -290 l 74 -224 q 140 -235 106 -235 q 207 -217 181 -235 q 233 -159 233 -198 q 210 -110 233 -130 q 142 -85 186 -90 l 189 18 l 247 18 l 224 -37 q 308 -71 279 -43 q 338 -144 338 -98 z "},"Š":{"ha":694,"x_min":16,"x_max":694,"o":"m 52 252 l 96 252 l 96 122 q 173 65 119 88 q 287 41 227 41 q 458 94 398 41 q 518 241 518 146 q 502 304 518 277 q 458 353 486 332 q 397 393 431 375 q 327 430 363 412 q 257 470 291 449 q 195 520 222 492 q 152 585 168 548 q 136 671 136 621 q 218 856 136 791 q 452 920 300 920 q 672 894 569 920 l 639 705 l 595 705 l 591 821 q 531 850 570 838 q 442 863 492 863 q 303 819 352 863 q 254 695 254 774 q 285 617 254 652 q 376 551 315 582 q 509 478 468 503 q 577 425 549 453 q 621 359 604 396 q 637 275 637 323 q 546 61 637 136 q 283 -14 455 -14 q 129 4 197 -14 q 16 50 61 21 l 52 252 m 330 1192 l 470 1068 l 653 1192 l 694 1192 l 690 1170 l 531 985 l 387 985 l 292 1170 l 295 1192 l 330 1192 z "},"š":{"ha":541,"x_min":17,"x_max":587,"o":"m 469 187 q 404 36 469 85 q 207 -14 339 -14 q 17 28 113 -14 l 45 182 l 75 182 l 87 89 q 137 55 104 70 q 210 40 169 40 q 358 161 358 40 q 327 233 358 201 q 224 298 295 264 q 122 372 155 332 q 89 467 89 412 q 149 605 89 556 q 317 654 210 654 q 498 631 393 654 l 473 489 l 441 489 l 432 562 q 319 600 389 600 q 231 575 264 600 q 197 496 197 549 q 226 431 197 459 q 334 363 254 404 q 437 284 404 326 q 469 187 469 242 m 223 966 l 363 842 l 546 966 l 587 966 l 583 943 l 424 758 l 279 758 l 184 943 l 188 966 l 223 966 z "},"Ţ":{"ha":772,"x_min":91,"x_max":854,"o":"m 119 0 l 126 36 l 273 54 l 414 851 l 379 851 q 180 838 244 851 l 136 696 l 91 696 l 129 909 l 854 909 l 817 696 l 770 696 l 777 838 q 578 850 716 850 l 545 850 l 404 54 l 546 36 l 539 0 l 119 0 m 445 -144 q 396 -250 445 -210 q 256 -290 348 -290 q 165 -275 207 -290 l 181 -224 q 247 -235 214 -235 q 314 -217 288 -235 q 340 -159 340 -198 q 317 -110 340 -130 q 250 -85 294 -90 l 296 18 l 354 18 l 332 -37 q 415 -71 386 -43 q 445 -144 445 -98 z "},"ţ":{"ha":386,"x_min":0,"x_max":414,"o":"m 179 118 q 194 72 179 87 q 233 57 210 57 q 336 77 283 57 l 351 45 q 182 -14 267 -14 q 97 19 128 -14 q 66 110 66 52 q 70 156 66 130 q 144 581 74 183 l 61 581 l 66 611 l 157 637 l 250 782 l 293 782 l 268 637 l 414 637 l 403 581 l 257 581 l 191 208 q 179 118 179 146 m 279 -144 q 231 -250 279 -210 q 90 -290 182 -290 q 0 -275 41 -290 l 16 -224 q 81 -235 48 -235 q 149 -217 123 -235 q 174 -159 174 -198 q 151 -110 174 -130 q 84 -85 128 -90 l 130 18 l 189 18 l 166 -37 q 250 -71 220 -43 q 279 -144 279 -98 z "},"Ť":{"ha":772,"x_min":91,"x_max":854,"o":"m 119 0 l 126 36 l 273 54 l 414 851 l 379 851 q 180 838 244 851 l 136 696 l 91 696 l 129 909 l 854 909 l 817 696 l 770 696 l 777 838 q 578 850 716 850 l 545 850 l 404 54 l 546 36 l 539 0 l 119 0 m 374 1192 l 514 1068 l 697 1192 l 738 1192 l 734 1170 l 575 985 l 431 985 l 336 1170 l 339 1192 l 374 1192 z "},"ť":{"ha":505,"x_min":54,"x_max":620,"o":"m 172 118 q 187 72 172 87 q 226 57 202 57 q 329 77 275 57 l 343 45 q 174 -14 260 -14 q 90 19 121 -14 q 59 110 59 52 q 63 156 59 130 q 137 581 66 183 l 54 581 l 59 611 l 149 637 l 242 782 l 286 782 l 260 637 l 406 637 l 395 581 l 250 581 l 184 208 q 172 118 172 146 m 620 867 q 571 746 620 793 q 412 675 523 700 l 412 718 q 485 742 458 728 q 525 772 512 756 q 538 815 538 789 q 528 835 538 827 q 506 853 518 844 q 485 876 494 863 q 475 910 475 889 q 493 950 475 936 q 541 964 512 964 q 597 937 575 964 q 620 867 620 911 z "},"Ŧ":{"ha":772,"x_min":91,"x_max":854,"o":"m 119 0 l 126 36 l 273 54 l 338 427 l 121 427 l 131 482 l 349 482 l 414 851 l 379 851 q 180 838 244 851 l 136 696 l 91 696 l 129 909 l 854 909 l 817 696 l 770 696 l 777 838 q 578 850 716 850 l 545 850 l 479 482 l 699 482 l 689 427 l 470 427 l 404 54 l 546 36 l 539 0 l 119 0 z "},"ŧ":{"ha":387,"x_min":20,"x_max":414,"o":"m 180 118 q 195 72 180 87 q 233 57 210 57 q 336 77 283 57 l 351 45 q 182 -14 267 -14 q 97 19 128 -14 q 66 110 66 52 q 101 337 66 152 l 20 337 l 31 394 l 111 394 l 144 581 l 61 581 l 66 611 l 157 637 l 250 782 l 293 782 l 268 637 l 414 637 l 403 581 l 257 581 l 224 394 l 364 394 l 354 337 l 214 337 q 180 118 180 149 z "},"Ũ":{"ha":1003,"x_min":127,"x_max":1078,"o":"m 881 856 l 762 873 l 768 909 l 1078 909 l 1072 873 l 952 856 l 857 313 q 725 72 829 157 q 460 -14 621 -14 q 220 51 302 -14 q 137 236 137 115 q 144 307 137 273 l 241 856 l 127 873 l 134 909 l 497 909 l 491 873 l 371 856 l 275 310 q 269 241 269 273 q 472 62 269 62 q 683 127 602 62 q 785 307 765 191 l 881 856 m 713 985 q 656 1000 681 985 q 610 1033 631 1015 q 569 1065 589 1050 q 526 1080 549 1080 q 491 1072 505 1080 q 467 1050 477 1064 q 444 999 457 1037 l 409 999 q 470 1124 431 1085 q 570 1163 510 1163 q 628 1148 603 1163 q 674 1116 653 1134 q 716 1083 696 1098 q 758 1069 736 1069 q 805 1085 786 1069 q 840 1149 824 1101 l 875 1149 q 813 1025 853 1064 q 713 985 774 985 z "},"ũ":{"ha":694,"x_min":69,"x_max":669,"o":"m 182 131 q 198 81 182 100 q 250 62 214 62 q 359 105 300 62 q 456 209 418 147 l 532 637 l 644 637 l 541 47 l 621 31 l 615 0 l 427 0 l 445 131 q 328 21 389 58 q 207 -16 267 -16 q 104 21 138 -16 q 69 127 69 58 q 73 163 69 137 q 146 591 77 189 l 71 607 l 76 637 l 267 637 l 197 243 q 182 131 182 158 m 507 759 q 450 773 475 759 q 404 806 425 788 q 362 839 382 824 q 320 853 342 853 q 284 845 298 853 q 261 824 271 838 q 238 772 251 810 l 203 772 q 264 898 224 859 q 364 937 304 937 q 422 922 397 937 q 468 889 447 907 q 510 857 490 871 q 551 842 530 842 q 599 859 580 842 q 633 922 618 875 l 669 922 q 607 798 647 838 q 507 759 568 759 z "},"Ū":{"ha":1003,"x_min":127,"x_max":1078,"o":"m 881 856 l 762 873 l 768 909 l 1078 909 l 1072 873 l 952 856 l 857 313 q 725 72 829 157 q 460 -14 621 -14 q 220 51 302 -14 q 137 236 137 115 q 144 307 137 273 l 241 856 l 127 873 l 134 909 l 497 909 l 491 873 l 371 856 l 275 310 q 269 241 269 273 q 472 62 269 62 q 683 127 602 62 q 785 307 765 191 l 881 856 m 431 1014 l 444 1088 l 870 1088 l 857 1014 l 431 1014 z "},"ū":{"ha":694,"x_min":69,"x_max":644,"o":"m 182 131 q 198 81 182 100 q 250 62 214 62 q 359 105 300 62 q 456 209 418 147 l 532 637 l 644 637 l 541 47 l 621 31 l 615 0 l 427 0 l 445 131 q 328 21 389 58 q 207 -16 267 -16 q 104 21 138 -16 q 69 127 69 58 q 73 163 69 137 q 146 591 77 189 l 71 607 l 76 637 l 267 637 l 197 243 q 182 131 182 158 m 205 787 l 218 861 l 644 861 l 631 787 l 205 787 z "},"Ŭ":{"ha":1003,"x_min":127,"x_max":1078,"o":"m 881 856 l 762 873 l 768 909 l 1078 909 l 1072 873 l 952 856 l 857 313 q 725 72 829 157 q 460 -14 621 -14 q 220 51 302 -14 q 137 236 137 115 q 144 307 137 273 l 241 856 l 127 873 l 134 909 l 497 909 l 491 873 l 371 856 l 275 310 q 269 241 269 273 q 472 62 269 62 q 683 127 602 62 q 785 307 765 191 l 881 856 m 629 985 q 507 1025 550 985 q 465 1137 465 1065 l 467 1175 l 517 1175 q 554 1106 520 1131 q 646 1081 589 1081 q 746 1106 704 1081 q 806 1175 789 1132 l 857 1175 q 779 1036 838 1087 q 629 985 720 985 z "},"ŭ":{"ha":694,"x_min":69,"x_max":644,"o":"m 182 131 q 198 81 182 100 q 250 62 214 62 q 359 105 300 62 q 456 209 418 147 l 532 637 l 644 637 l 541 47 l 621 31 l 615 0 l 427 0 l 445 131 q 328 21 389 58 q 207 -16 267 -16 q 104 21 138 -16 q 69 127 69 58 q 73 163 69 137 q 146 591 77 189 l 71 607 l 76 637 l 267 637 l 197 243 q 182 131 182 158 m 404 759 q 282 799 325 759 q 239 911 239 839 l 242 949 l 292 949 q 329 880 295 905 q 420 854 363 854 q 521 880 479 854 q 581 949 564 905 l 631 949 q 554 810 613 861 q 404 759 494 759 z "},"Ů":{"ha":1003,"x_min":127,"x_max":1078,"o":"m 881 856 l 762 873 l 768 909 l 1078 909 l 1072 873 l 952 856 l 857 313 q 725 72 829 157 q 460 -14 621 -14 q 220 51 302 -14 q 137 236 137 115 q 144 307 137 273 l 241 856 l 127 873 l 134 909 l 497 909 l 491 873 l 371 856 l 275 310 q 269 241 269 273 q 472 62 269 62 q 683 127 602 62 q 785 307 765 191 l 881 856 m 779 1093 q 739 995 779 1036 q 642 955 699 955 q 544 995 585 955 q 504 1093 504 1036 q 544 1190 504 1149 q 642 1230 585 1230 q 739 1190 699 1230 q 779 1093 779 1149 m 725 1093 q 701 1152 725 1127 q 642 1176 676 1176 q 583 1152 607 1176 q 558 1093 558 1127 q 583 1033 558 1057 q 642 1009 608 1009 q 700 1033 674 1009 q 725 1093 725 1057 z "},"ů":{"ha":694,"x_min":69,"x_max":644,"o":"m 182 131 q 198 81 182 100 q 250 62 214 62 q 359 105 300 62 q 456 209 418 147 l 532 637 l 644 637 l 541 47 l 621 31 l 615 0 l 427 0 l 445 131 q 328 21 389 58 q 207 -16 267 -16 q 104 21 138 -16 q 69 127 69 58 q 73 163 69 137 q 146 591 77 189 l 71 607 l 76 637 l 267 637 l 197 243 q 182 131 182 158 m 553 866 q 513 769 553 809 q 416 728 473 728 q 318 769 359 728 q 278 866 278 809 q 318 963 278 923 q 416 1004 359 1004 q 513 963 473 1004 q 553 866 553 923 m 499 866 q 475 925 499 901 q 416 949 450 949 q 357 925 381 949 q 332 866 332 901 q 357 807 332 831 q 416 783 382 783 q 474 806 448 783 q 499 866 499 830 z "},"Ű":{"ha":1003,"x_min":127,"x_max":1078,"o":"m 881 856 l 762 873 l 768 909 l 1078 909 l 1072 873 l 952 856 l 857 313 q 725 72 829 157 q 460 -14 621 -14 q 220 51 302 -14 q 137 236 137 115 q 144 307 137 273 l 241 856 l 127 873 l 134 909 l 497 909 l 491 873 l 371 856 l 275 310 q 269 241 269 273 q 472 62 269 62 q 683 127 602 62 q 785 307 765 191 l 881 856 m 447 985 l 451 1007 l 605 1206 l 735 1206 l 731 1181 l 498 985 l 447 985 m 684 985 l 688 1007 l 842 1206 l 972 1206 l 968 1181 l 736 985 l 684 985 z "},"ű":{"ha":694,"x_min":69,"x_max":752,"o":"m 182 131 q 198 81 182 100 q 250 62 214 62 q 359 105 300 62 q 456 209 418 147 l 532 637 l 644 637 l 541 47 l 621 31 l 615 0 l 427 0 l 445 131 q 328 21 389 58 q 207 -16 267 -16 q 104 21 138 -16 q 69 127 69 58 q 73 163 69 137 q 146 591 77 189 l 71 607 l 76 637 l 267 637 l 197 243 q 182 131 182 158 m 227 758 l 231 781 l 385 979 l 515 979 l 511 954 l 277 758 l 227 758 m 464 758 l 468 781 l 622 979 l 752 979 l 748 954 l 515 758 l 464 758 z "},"Ų":{"ha":1003,"x_min":127,"x_max":1078,"o":"m 881 856 l 762 873 l 768 909 l 1078 909 l 1072 873 l 952 856 l 857 313 q 725 72 829 157 q 460 -14 621 -14 q 220 51 302 -14 q 137 236 137 115 q 144 307 137 273 l 241 856 l 127 873 l 134 909 l 497 909 l 491 873 l 371 856 l 275 310 q 269 241 269 273 q 472 62 269 62 q 683 127 602 62 q 785 307 765 191 l 881 856 m 630 -240 q 511 -273 576 -273 q 413 -240 448 -273 q 377 -150 377 -208 q 400 -65 377 -107 q 465 11 423 -24 l 539 11 q 494 -60 511 -21 q 478 -137 478 -98 q 499 -194 478 -174 q 559 -214 520 -214 q 619 -201 590 -214 l 630 -240 z "},"ų":{"ha":694,"x_min":69,"x_max":644,"o":"m 182 131 q 198 81 182 100 q 250 62 214 62 q 359 105 300 62 q 456 209 418 147 l 532 637 l 644 637 l 541 47 l 621 31 l 615 0 l 427 0 l 445 131 q 328 21 389 58 q 207 -16 267 -16 q 104 21 138 -16 q 69 127 69 58 q 73 163 69 137 q 146 591 77 189 l 71 607 l 76 637 l 267 637 l 197 243 q 182 131 182 158 m 602 -240 q 483 -273 548 -273 q 385 -240 420 -273 q 349 -150 349 -208 q 372 -65 349 -107 q 437 11 395 -24 l 511 11 q 467 -60 483 -21 q 450 -137 450 -98 q 471 -194 450 -174 q 531 -214 492 -214 q 591 -201 562 -214 l 602 -240 z "},"Ŵ":{"ha":1157,"x_min":92,"x_max":1262,"o":"m 770 -21 l 727 -21 l 628 588 l 345 -21 l 300 -21 l 168 856 l 92 873 l 98 909 l 414 909 l 408 873 l 299 856 l 394 221 l 683 846 l 714 846 l 817 220 l 1101 856 l 989 873 l 995 909 l 1262 909 l 1256 873 l 1174 856 l 770 -21 m 516 985 l 519 1007 l 679 1192 l 823 1192 l 918 1007 l 914 985 l 882 985 l 743 1109 l 559 985 l 516 985 z "},"ŵ":{"ha":926,"x_min":33,"x_max":916,"o":"m 610 -14 l 566 -14 l 481 406 l 266 -14 l 218 -14 l 102 590 l 33 607 l 39 637 l 205 637 l 294 158 l 503 566 l 554 566 l 637 155 l 770 419 q 809 547 809 496 q 795 587 809 572 q 764 607 781 602 l 770 637 l 899 637 q 916 595 916 622 q 860 446 916 549 l 610 -14 m 359 758 l 363 781 l 522 966 l 667 966 l 761 781 l 758 758 l 726 758 l 586 882 l 403 758 l 359 758 z "},"Ŷ":{"ha":772,"x_min":79,"x_max":896,"o":"m 413 54 l 555 36 l 548 0 l 128 0 l 135 36 l 282 54 l 335 354 l 179 856 l 79 873 l 86 909 l 457 909 l 450 873 l 319 856 l 446 431 l 713 856 l 593 873 l 600 909 l 896 909 l 889 873 l 787 856 l 467 358 l 413 54 m 339 985 l 342 1007 l 502 1192 l 646 1192 l 741 1007 l 737 985 l 705 985 l 566 1109 l 382 985 l 339 985 z "},"ŷ":{"ha":616,"x_min":-116,"x_max":617,"o":"m 35 637 l 209 637 l 307 141 l 467 416 q 510 547 510 492 q 496 587 510 572 q 465 607 481 602 l 471 637 l 600 637 q 617 595 617 622 q 561 446 617 541 l 292 -7 q 170 -193 215 -138 q 81 -274 125 -248 q -15 -300 37 -300 q -116 -288 -70 -300 l -91 -150 l -60 -150 l -50 -215 q 6 -231 -33 -231 q 199 -47 98 -231 l 230 8 l 106 590 l 30 607 l 35 637 m 178 758 l 181 781 l 340 966 l 485 966 l 579 781 l 576 758 l 544 758 l 404 882 l 221 758 l 178 758 z "},"Ÿ":{"ha":772,"x_min":79,"x_max":896,"o":"m 413 54 l 555 36 l 548 0 l 128 0 l 135 36 l 282 54 l 335 354 l 179 856 l 79 873 l 86 909 l 457 909 l 450 873 l 319 856 l 446 431 l 713 856 l 593 873 l 600 909 l 896 909 l 889 873 l 787 856 l 467 358 l 413 54 m 718 1082 q 699 1034 718 1054 q 652 1014 680 1014 q 604 1035 623 1014 q 584 1082 584 1056 q 604 1131 584 1111 q 652 1150 623 1150 q 699 1131 680 1150 q 718 1082 718 1111 m 477 1082 q 458 1034 477 1054 q 410 1014 439 1014 q 362 1034 382 1014 q 342 1082 342 1055 q 363 1131 342 1111 q 410 1150 384 1150 q 458 1131 439 1150 q 477 1082 477 1111 z "},"Ź":{"ha":772,"x_min":17,"x_max":784,"o":"m 615 851 l 479 851 q 247 838 311 851 l 201 694 l 154 694 l 192 909 l 784 909 l 773 851 l 181 57 l 344 57 q 508 65 425 57 q 622 79 592 73 l 692 253 l 740 253 l 677 0 l 17 0 l 28 64 l 615 851 m 393 985 l 397 1007 l 562 1192 l 707 1192 l 703 1166 l 431 985 l 393 985 z "},"ź":{"ha":541,"x_min":-16,"x_max":572,"o":"m -16 0 l -9 31 l 373 583 l 272 583 q 198 577 234 583 q 146 559 162 570 l 109 468 l 77 468 l 107 637 l 522 637 l 517 604 l 136 54 l 269 54 q 343 63 307 54 q 403 86 379 71 l 454 186 l 486 186 l 437 0 l -16 0 m 258 758 l 262 781 l 427 965 l 572 965 l 568 940 l 296 758 l 258 758 z "},"Ż":{"ha":772,"x_min":17,"x_max":784,"o":"m 615 851 l 479 851 q 247 838 311 851 l 201 694 l 154 694 l 192 909 l 784 909 l 773 851 l 181 57 l 344 57 q 508 65 425 57 q 622 79 592 73 l 692 253 l 740 253 l 677 0 l 17 0 l 28 64 l 615 851 m 583 1072 q 561 1021 583 1042 q 509 999 539 999 q 457 1021 479 999 q 435 1072 435 1042 q 457 1124 435 1103 q 509 1146 479 1146 q 561 1124 539 1146 q 583 1072 583 1103 z "},"ż":{"ha":541,"x_min":-16,"x_max":522,"o":"m -16 0 l -9 31 l 373 583 l 272 583 q 198 577 234 583 q 146 559 162 570 l 109 468 l 77 468 l 107 637 l 522 637 l 517 604 l 136 54 l 269 54 q 343 63 307 54 q 403 86 379 71 l 454 186 l 486 186 l 437 0 l -16 0 m 401 846 q 379 794 401 816 q 327 772 357 772 q 275 794 297 772 q 254 846 254 816 q 275 898 254 876 q 327 920 297 920 q 379 898 357 920 q 401 846 401 876 z "},"Ž":{"ha":772,"x_min":17,"x_max":784,"o":"m 615 851 l 479 851 q 247 838 311 851 l 201 694 l 154 694 l 192 909 l 784 909 l 773 851 l 181 57 l 344 57 q 508 65 425 57 q 622 79 592 73 l 692 253 l 740 253 l 677 0 l 17 0 l 28 64 l 615 851 m 363 1192 l 503 1068 l 686 1192 l 727 1192 l 724 1170 l 564 985 l 420 985 l 325 1170 l 328 1192 l 363 1192 z "},"ž":{"ha":541,"x_min":-16,"x_max":559,"o":"m -16 0 l -9 31 l 373 583 l 272 583 q 198 577 234 583 q 146 559 162 570 l 109 468 l 77 468 l 107 637 l 522 637 l 517 604 l 136 54 l 269 54 q 343 63 307 54 q 403 86 379 71 l 454 186 l 486 186 l 437 0 l -16 0 m 196 966 l 336 842 l 519 966 l 559 966 l 556 943 l 397 758 l 252 758 l 157 943 l 161 966 l 196 966 z "},"ſ":{"ha":386,"x_min":16,"x_max":546,"o":"m 419 924 q 353 886 377 924 q 310 743 328 848 l 128 -296 l 16 -296 l 186 685 q 277 906 212 835 q 452 978 342 978 q 546 965 504 978 l 522 832 l 489 832 l 476 909 q 419 924 456 924 z "},"ƀ":{"ha":694,"x_min":52,"x_max":652,"o":"m 207 917 l 117 933 l 122 964 l 326 964 l 300 811 l 506 811 l 496 754 l 290 754 q 260 585 267 617 q 249 534 254 552 q 360 622 303 589 q 466 654 418 654 q 602 594 551 654 q 652 428 652 533 q 602 208 652 311 q 463 45 551 104 q 269 -14 374 -14 q 152 2 209 -14 q 52 43 94 17 l 178 754 l 80 754 l 90 811 l 188 811 l 207 917 m 168 73 q 277 40 208 40 q 405 91 346 40 q 497 229 463 142 q 531 410 531 315 q 499 528 531 486 q 415 570 468 570 q 329 543 375 570 q 240 475 282 517 l 168 73 z "},"Ɓ":{"ha":919,"x_min":42,"x_max":888,"o":"m 83 0 l 90 36 l 180 54 l 321 848 l 284 848 q 195 833 231 848 q 136 778 159 817 l 87 696 l 42 696 l 79 876 q 215 909 150 909 l 589 909 q 888 718 888 909 q 828 560 888 623 q 661 484 768 498 q 824 421 766 475 q 882 278 882 367 q 783 64 882 132 q 488 -4 684 -4 l 228 0 l 83 0 m 488 57 q 679 107 618 57 q 740 275 740 158 q 680 409 740 368 q 507 450 620 450 l 380 450 l 313 61 q 488 57 447 57 m 504 511 q 691 555 635 511 q 747 710 747 600 q 703 814 747 781 q 558 848 659 848 l 451 848 l 391 511 l 504 511 z "},"Ƃ":{"ha":819,"x_min":-16,"x_max":791,"o":"m 320 505 l 463 505 q 674 445 599 505 q 750 277 750 385 q 655 69 750 138 q 367 0 561 0 l -16 0 l -9 36 l 109 54 l 251 855 l 146 873 l 153 909 l 791 909 l 762 700 l 718 700 l 704 838 q 623 847 676 843 q 514 851 569 851 l 380 851 l 320 505 m 309 444 l 241 61 l 349 61 q 555 111 495 61 q 615 279 615 160 q 420 444 615 444 l 309 444 z "},"ƃ":{"ha":694,"x_min":52,"x_max":684,"o":"m 684 909 l 663 734 l 618 734 l 598 838 q 517 847 570 843 q 408 851 463 851 l 307 851 l 275 665 q 249 534 264 587 q 360 622 303 589 q 466 654 418 654 q 602 594 551 654 q 652 428 652 533 q 602 208 652 311 q 463 45 551 104 q 269 -14 374 -14 q 152 2 209 -14 q 52 43 94 17 l 205 909 l 684 909 m 277 40 q 405 91 346 40 q 497 229 463 142 q 531 410 531 315 q 499 528 531 486 q 415 570 468 570 q 329 543 375 570 q 240 475 282 517 l 168 73 q 277 40 208 40 z "},"Ƅ":{"ha":819,"x_min":-14,"x_max":752,"o":"m 392 909 l 322 505 l 465 505 q 676 445 601 505 q 752 277 752 385 q 657 69 752 138 q 369 0 563 0 l -14 0 l -7 36 l 111 67 l 213 631 l 100 744 l 108 787 l 349 909 l 392 909 m 311 444 l 243 61 l 351 61 q 557 111 497 61 q 617 279 617 160 q 422 444 617 444 l 311 444 z "},"ƅ":{"ha":694,"x_min":52,"x_max":652,"o":"m 277 40 q 405 91 346 40 q 497 229 463 142 q 531 410 531 315 q 499 528 531 486 q 415 570 468 570 q 329 543 375 570 q 240 475 282 517 l 168 73 q 277 40 208 40 m 269 -14 q 152 2 209 -14 q 52 43 94 17 l 164 677 l 90 798 l 96 831 l 292 964 l 326 964 l 275 665 q 249 534 264 587 q 360 622 303 589 q 466 654 418 654 q 602 594 551 654 q 652 428 652 533 q 602 208 652 311 q 463 45 551 104 q 269 -14 374 -14 z "},"Ɔ":{"ha":926,"x_min":32,"x_max":894,"o":"m 329 -13 q 32 22 186 -13 l 62 220 l 106 220 l 106 102 q 208 57 149 73 q 333 41 267 41 q 553 107 456 41 q 704 292 650 172 q 758 566 758 412 q 687 788 758 711 q 486 864 616 864 q 334 841 408 864 q 214 782 260 818 l 165 646 l 121 646 l 163 859 q 331 904 241 888 q 497 920 420 920 q 789 822 684 920 q 894 552 894 724 q 824 255 894 384 q 624 57 753 126 q 329 -13 495 -13 z "},"Ƈ":{"ha":926,"x_min":77,"x_max":1224,"o":"m 1195 928 l 1150 928 l 1147 1022 q 1114 1046 1137 1038 q 1063 1055 1092 1055 q 986 1023 1017 1055 q 946 926 956 990 l 909 686 l 865 686 l 865 804 q 763 849 822 833 q 638 865 704 865 q 418 800 515 865 q 267 614 321 734 q 213 341 213 494 q 284 119 213 195 q 486 43 355 43 q 637 66 563 43 q 757 125 711 89 l 806 261 l 850 261 l 808 47 q 641 3 730 19 q 474 -13 551 -13 q 182 85 288 -13 q 77 355 77 182 q 148 652 77 523 q 347 850 218 781 q 642 920 476 920 q 874 899 764 920 q 952 1058 896 1002 q 1088 1114 1008 1114 q 1224 1093 1173 1114 l 1195 928 z "},"ƈ":{"ha":616,"x_min":43,"x_max":835,"o":"m 810 673 l 777 673 l 762 757 q 708 771 742 771 q 640 732 665 771 q 597 591 614 692 l 571 441 l 534 441 l 523 559 q 409 602 480 602 q 287 554 344 602 q 197 420 231 506 q 163 231 163 334 q 302 57 163 57 q 505 125 398 57 l 525 96 q 402 16 470 45 q 271 -14 335 -14 q 102 50 162 -14 q 43 224 43 113 q 90 439 43 342 q 225 595 138 536 q 410 654 313 654 q 543 637 469 654 q 616 779 569 732 q 741 825 663 825 q 835 812 793 825 l 810 673 z "},"Ɖ":{"ha":1003,"x_min":-16,"x_max":982,"o":"m 532 909 q 866 813 751 909 q 982 537 982 718 q 914 252 982 375 q 720 63 846 128 q 427 -3 593 -3 l 100 0 l -16 0 l -9 36 l 110 54 l 175 427 l 53 427 l 63 482 l 185 482 l 251 856 l 138 873 l 144 909 l 532 909 m 840 532 q 490 848 840 848 l 380 848 l 316 482 l 570 482 l 560 427 l 306 427 l 242 64 q 421 58 351 58 q 730 181 621 58 q 840 532 840 304 z "},"Ɗ":{"ha":1083,"x_min":42,"x_max":1053,"o":"m 911 532 q 562 848 911 848 l 452 848 l 313 64 q 492 58 422 58 q 801 181 692 58 q 911 532 911 304 m 321 848 l 284 848 q 195 833 231 848 q 136 778 159 817 l 87 696 l 42 696 l 79 876 q 215 909 150 909 l 603 909 q 938 813 822 909 q 1053 537 1053 718 q 985 252 1053 375 q 791 63 917 128 q 498 -3 665 -3 l 172 0 l 56 0 l 62 36 l 181 54 l 321 848 z "},"Ƌ":{"ha":819,"x_min":43,"x_max":867,"o":"m 178 201 q 227 94 178 127 q 379 61 276 61 l 479 61 l 547 444 l 442 444 q 290 418 348 444 q 205 343 233 392 q 178 201 178 294 m 867 909 l 861 873 l 750 855 l 609 54 l 722 36 l 716 0 l 339 0 q 119 52 195 0 q 43 204 43 104 q 139 426 43 347 q 421 505 235 505 l 557 505 l 618 851 l 478 851 q 366 847 423 851 q 284 838 308 842 l 221 700 l 177 700 l 222 909 l 867 909 z "},"ƌ":{"ha":694,"x_min":42,"x_max":688,"o":"m 515 568 q 467 592 492 583 q 406 601 441 601 q 286 551 342 601 q 197 412 231 500 q 163 230 163 324 q 193 114 163 157 q 273 71 222 71 q 356 95 312 71 q 441 165 400 120 l 515 568 m 688 909 l 535 47 l 612 31 l 606 0 l 413 0 l 433 106 q 223 -14 318 -14 q 91 48 140 -14 q 42 215 42 111 q 92 433 42 331 q 229 594 142 535 q 419 654 315 654 q 531 638 483 654 q 566 851 534 671 l 484 851 q 247 838 311 851 l 210 734 l 165 734 l 195 909 l 688 909 z "},"ƍ":{"ha":646,"x_min":35,"x_max":652,"o":"m 220 -299 q 130 -290 181 -299 q 35 -264 78 -280 l 65 -86 l 102 -86 l 113 -203 q 164 -237 134 -227 q 224 -247 195 -247 q 329 -216 292 -247 q 365 -135 365 -186 q 354 -92 365 -112 q 323 -50 344 -72 q 227 31 302 -28 q 88 293 88 139 q 131 480 88 397 q 252 609 174 563 q 431 655 331 655 q 593 594 533 655 q 652 425 652 532 q 581 194 652 289 q 366 56 509 100 q 447 -33 425 4 q 469 -109 469 -69 q 436 -209 469 -166 q 347 -275 404 -252 q 220 -299 290 -299 m 408 601 q 306 565 351 601 q 236 458 262 530 q 210 303 210 386 q 233 194 210 240 q 305 108 256 148 l 328 89 q 487 211 439 130 q 534 426 534 291 q 501 554 534 508 q 408 601 468 601 z "},"Ǝ":{"ha":848,"x_min":24,"x_max":911,"o":"m 751 0 l 24 0 l 54 240 l 98 240 l 108 72 q 335 61 162 61 l 514 61 l 579 432 l 334 432 l 294 322 l 250 322 l 299 602 l 342 602 l 345 493 l 590 493 l 653 848 l 505 848 q 283 839 359 848 l 235 692 l 191 692 l 229 909 l 911 909 l 905 873 l 785 856 l 644 54 l 757 36 l 751 0 z "},"Ə":{"ha":965,"x_min":72,"x_max":932,"o":"m 793 505 l 796 564 q 735 786 796 707 q 564 865 673 865 q 429 849 487 865 q 319 804 371 833 l 277 686 l 233 686 l 272 885 q 441 913 376 907 q 579 920 507 920 q 839 825 746 920 q 932 557 932 730 q 868 260 932 394 q 691 56 804 126 q 427 -14 577 -14 q 168 85 264 -14 q 72 349 72 183 q 89 505 72 433 l 793 505 m 218 444 q 208 341 208 390 q 269 121 208 199 q 436 44 330 44 q 656 152 566 44 q 783 444 747 260 l 218 444 z "},"Ɛ":{"ha":688,"x_min":37,"x_max":686,"o":"m 37 205 q 313 476 37 443 q 187 537 233 488 q 141 661 141 587 q 228 853 141 785 q 477 920 315 920 q 686 891 577 920 l 654 716 l 610 716 l 607 827 q 545 853 585 842 q 469 863 505 863 q 326 814 372 863 q 279 650 279 765 q 315 548 279 583 q 417 509 352 513 l 513 503 l 503 447 l 406 441 q 229 373 283 435 q 174 195 174 312 q 341 43 174 43 q 429 54 379 43 q 505 79 478 64 l 556 207 l 601 207 l 559 16 q 318 -14 441 -14 q 113 44 189 -14 q 37 205 37 102 z "},"Ƒ":{"ha":848,"x_min":-207,"x_max":860,"o":"m 821 692 l 777 692 l 781 839 q 563 848 707 848 l 380 848 l 313 469 l 615 469 l 655 578 l 696 578 l 648 298 l 606 298 l 604 408 l 302 408 l 231 6 q -47 -300 177 -300 q -207 -269 -138 -300 l -178 -112 l -134 -112 l -131 -206 q -95 -231 -123 -220 q -37 -242 -67 -242 q 80 -113 58 -242 l 251 856 l 137 873 l 143 909 l 860 909 l 821 692 z "},"ƒ":{"ha":694,"x_min":144,"x_max":640,"o":"m 144 -193 l 260 476 l 151 476 l 158 510 l 271 533 l 298 690 q 380 861 317 799 q 536 924 443 924 q 640 911 597 924 l 635 787 l 604 787 l 584 852 q 526 868 563 868 q 475 851 495 868 q 441 803 454 835 q 411 679 428 771 l 385 533 l 554 533 l 543 476 l 374 476 l 254 -193 l 144 -193 z "},"Ɠ":{"ha":1003,"x_min":77,"x_max":1232,"o":"m 642 920 q 882 895 768 920 q 960 1056 903 999 q 1096 1114 1016 1114 q 1232 1093 1181 1114 l 1203 928 l 1158 928 l 1155 1022 q 1122 1046 1145 1038 q 1072 1055 1100 1055 q 954 926 977 1055 l 911 684 l 865 684 l 867 796 q 638 865 781 865 q 420 801 518 865 q 268 616 323 736 q 213 341 213 497 q 282 121 213 200 q 477 42 352 42 q 596 59 536 42 q 702 104 657 76 l 745 343 l 631 361 l 637 397 l 973 397 l 967 361 l 875 343 l 824 58 q 642 4 724 20 q 468 -12 560 -12 q 180 85 283 -12 q 77 355 77 182 q 147 653 77 525 q 347 850 218 781 q 642 920 475 920 z "},"Ɣ":{"ha":979,"x_min":73,"x_max":982,"o":"m 982 909 l 975 873 l 886 856 l 464 104 q 510 -231 510 -102 l 508 -293 l 256 -300 l 215 -281 q 261 -142 233 -209 q 347 28 290 -75 l 159 856 l 73 873 l 79 909 l 414 909 l 407 873 l 292 856 l 440 192 l 804 856 l 701 873 l 709 909 l 982 909 m 386 -229 l 386 -218 q 368 -65 386 -146 q 318 -164 340 -113 q 291 -239 296 -215 l 304 -244 l 385 -239 l 386 -229 z "},"ƕ":{"ha":1051,"x_min":50,"x_max":1002,"o":"m 562 151 q 590 71 562 102 q 673 40 618 40 q 810 182 785 40 l 882 590 l 789 607 l 795 637 l 1002 637 l 921 174 q 663 -14 888 -14 q 502 25 557 -14 q 448 135 448 63 q 451 174 448 156 l 490 395 q 505 507 505 481 q 489 557 505 538 q 437 576 473 576 q 332 535 388 576 q 237 429 277 494 l 162 0 l 50 0 l 211 917 l 131 933 l 136 964 l 332 964 l 272 629 l 249 508 q 480 654 359 654 q 583 617 549 654 q 618 511 618 581 q 602 393 618 482 l 565 182 l 562 151 z "},"Ɩ":{"ha":386,"x_min":74,"x_max":355,"o":"m 195 47 l 301 31 l 296 0 l 74 0 l 235 917 l 147 933 l 153 964 l 355 964 l 195 47 z "},"Ɨ":{"ha":463,"x_min":-5,"x_max":517,"o":"m 250 54 l 363 36 l 357 0 l -5 0 l 0 36 l 119 54 l 190 458 l 49 458 l 59 513 l 199 513 l 260 856 l 147 873 l 153 909 l 517 909 l 511 873 l 391 856 l 330 513 l 475 513 l 465 458 l 321 458 l 250 54 z "},"Ƙ":{"ha":926,"x_min":-16,"x_max":1031,"o":"m 306 427 l 827 856 l 747 873 l 753 909 l 1031 909 l 1024 873 l 926 856 l 549 547 l 852 54 l 947 36 l 941 0 l 728 0 l 449 465 l 291 337 l 240 54 l 368 36 l 361 0 l -16 0 l -9 36 l 109 54 l 208 616 q 264 776 224 708 q 366 883 304 844 q 495 923 428 923 q 625 903 568 923 l 596 737 l 551 737 l 547 831 q 518 856 538 846 q 475 865 498 865 q 402 832 433 865 q 360 736 372 800 l 306 427 z "},"ƙ":{"ha":616,"x_min":40,"x_max":637,"o":"m 603 0 l 443 0 l 295 325 l 195 231 l 153 0 l 40 0 l 161 685 q 257 904 187 829 q 426 978 326 978 q 521 965 479 978 l 496 826 l 463 826 l 447 909 q 394 924 427 924 q 326 884 351 924 q 284 743 301 844 l 207 307 l 497 589 l 433 607 l 439 637 l 637 637 l 631 607 l 576 591 l 377 401 l 542 46 l 608 31 l 603 0 z "},"ƚ":{"ha":386,"x_min":41,"x_max":391,"o":"m 382 456 l 267 456 l 195 47 l 301 31 l 296 0 l 74 0 l 154 456 l 41 456 l 50 513 l 163 513 l 235 917 l 147 933 l 153 964 l 355 964 l 276 513 l 391 513 l 382 456 z "},"ƛ":{"ha":602,"x_min":-34,"x_max":567,"o":"m 395 773 l 500 100 q 567 31 509 47 l 562 0 l 429 0 l 363 499 q 282 345 340 449 l 83 0 l -34 0 l -28 29 l 345 646 l 334 722 l 65 500 l 79 577 l 325 781 q 292 884 313 854 q 237 914 270 914 q 192 906 213 914 l 159 850 l 126 850 l 140 964 q 242 978 194 978 q 335 946 304 978 q 385 831 367 914 l 534 954 l 520 876 l 395 773 z "},"Ɯ":{"ha":1088,"x_min":60,"x_max":1112,"o":"m 1112 909 l 961 54 l 1045 36 l 1039 0 l 829 0 l 851 153 q 727 27 796 75 q 598 -20 658 -20 q 491 24 529 -20 q 453 153 453 67 q 332 28 399 75 q 202 -20 264 -20 q 98 22 136 -20 q 60 144 60 64 q 78 283 60 188 l 179 855 l 94 873 l 100 909 l 319 909 l 207 281 q 195 206 200 248 q 189 151 189 164 q 257 73 189 73 q 343 109 292 73 q 430 194 394 144 q 473 286 466 243 l 582 909 l 712 909 l 602 281 q 595 246 599 265 q 589 209 592 227 q 584 175 586 191 q 582 151 582 160 q 654 73 582 73 q 742 110 690 73 q 830 196 793 147 q 873 286 866 245 l 982 909 l 1112 909 z "},"Ɲ":{"ha":926,"x_min":-205,"x_max":991,"o":"m 991 909 l 984 873 l 865 856 l 713 0 l 648 0 l 321 818 l 172 -31 q 85 -232 148 -163 q -77 -300 22 -300 q -147 -296 -107 -300 q -205 -288 -186 -292 l -177 -130 l -130 -130 l -105 -232 q -43 -246 -83 -246 q 43 -203 9 -246 q 94 -66 77 -161 l 257 856 l 143 873 l 150 909 l 413 909 l 684 228 l 793 856 l 674 873 l 681 909 l 991 909 z "},"ƞ":{"ha":689,"x_min":50,"x_max":625,"o":"m 512 507 q 496 557 512 538 q 444 576 479 576 q 334 532 393 576 q 237 427 275 489 l 162 0 l 50 0 l 153 591 l 73 608 l 79 638 l 267 638 l 249 508 q 367 618 306 581 q 487 654 428 654 q 590 617 555 654 q 625 511 625 581 q 608 393 625 487 l 487 -296 l 374 -296 l 496 395 q 512 507 512 481 z "},"Ɵ":{"ha":1003,"x_min":70,"x_max":970,"o":"m 450 -14 q 253 32 340 -14 q 118 161 166 78 q 70 349 70 245 q 138 645 70 512 q 323 848 205 777 q 591 920 440 920 q 787 874 700 920 q 922 745 874 828 q 970 557 970 662 q 902 262 970 397 q 717 57 834 127 q 450 -14 600 -14 m 205 341 q 274 125 205 207 q 454 44 342 44 q 613 92 540 44 q 743 233 687 140 q 821 439 798 326 l 214 439 q 205 341 205 387 m 835 564 q 765 783 835 700 q 582 865 696 865 q 426 818 498 865 q 303 688 354 770 q 225 496 252 605 l 831 496 q 835 564 835 531 z "},"Ơ":{"ha":1003,"x_min":70,"x_max":1122,"o":"m 450 -14 q 253 32 340 -14 q 118 161 166 78 q 70 349 70 245 q 138 645 70 512 q 323 848 205 777 q 591 920 440 920 q 799 867 707 920 q 935 721 890 814 q 997 764 977 741 q 1018 808 1018 787 q 1006 832 1018 823 q 981 851 995 842 q 956 873 968 861 q 945 907 945 886 q 969 969 945 946 q 1031 992 994 992 q 1096 969 1069 992 q 1122 895 1122 946 q 1077 777 1122 836 q 951 678 1031 718 q 970 557 970 621 q 902 262 970 397 q 717 57 834 127 q 450 -14 600 -14 m 835 564 q 765 783 835 700 q 582 865 696 865 q 396 797 481 865 q 259 600 312 728 q 205 341 205 471 q 274 125 205 207 q 454 44 342 44 q 641 112 555 44 q 781 309 727 180 q 835 564 835 437 z "},"ơ":{"ha":741,"x_min":41,"x_max":807,"o":"m 642 478 q 653 387 653 435 q 606 185 653 278 q 476 39 559 92 q 290 -14 393 -14 q 109 59 177 -14 q 41 254 41 131 q 88 456 41 363 q 218 602 135 549 q 405 654 301 654 q 538 620 481 654 q 625 522 595 586 q 703 606 703 560 q 692 630 703 621 q 667 649 680 640 q 642 671 653 659 q 630 705 630 684 q 654 767 630 744 q 716 790 679 790 q 781 767 755 790 q 807 692 807 744 q 762 574 807 632 q 642 478 718 516 m 161 231 q 196 90 161 138 q 296 42 232 42 q 413 92 357 42 q 502 227 469 141 q 534 411 534 313 q 499 553 534 505 q 397 602 464 602 q 280 552 335 602 q 193 417 224 503 q 161 231 161 331 z "},"Ƣ":{"ha":1284,"x_min":70,"x_max":1249,"o":"m 1046 -246 l 1159 -264 l 1153 -300 l 789 -300 l 795 -264 l 916 -246 l 1109 848 l 943 848 l 802 47 q 454 -14 610 -14 q 254 32 342 -14 q 118 160 166 77 q 70 349 70 243 q 139 645 70 514 q 336 848 208 776 q 635 920 465 920 q 769 915 706 920 q 881 909 831 909 l 1249 909 l 1046 -246 m 463 44 q 583 58 519 44 q 679 90 646 72 l 813 848 q 623 865 690 865 q 406 799 500 865 q 258 609 311 732 q 205 338 205 486 q 273 122 205 199 q 463 44 340 44 z "},"ƣ":{"ha":939,"x_min":41,"x_max":899,"o":"m 622 -296 l 777 580 l 685 580 l 640 322 q 521 73 611 159 q 288 -14 431 -14 q 109 58 176 -14 q 41 253 41 130 q 90 454 41 360 q 222 601 138 547 q 412 654 307 654 q 524 646 443 654 q 640 637 604 637 l 899 637 l 743 -248 l 810 -264 l 805 -296 l 622 -296 m 298 42 q 517 322 469 42 l 563 580 q 404 601 458 601 q 281 553 338 601 q 193 420 225 506 q 161 230 161 335 q 195 91 161 140 q 298 42 230 42 z "},"Ƥ":{"ha":920,"x_min":42,"x_max":884,"o":"m 486 418 q 749 660 749 418 q 701 803 749 758 q 552 848 652 848 l 452 848 l 376 418 l 486 418 m 884 669 q 785 437 884 517 q 501 357 686 357 l 365 357 l 311 54 l 460 36 l 453 0 l 64 0 l 71 36 l 180 54 l 321 848 l 284 848 q 195 833 231 848 q 136 778 159 817 l 87 696 l 42 696 l 79 876 q 215 909 150 909 l 579 909 q 805 849 726 909 q 884 669 884 788 z "},"ƥ":{"ha":694,"x_min":-81,"x_max":652,"o":"m 652 428 q 602 206 652 309 q 463 45 551 103 q 273 -14 376 -14 q 209 -9 242 -14 q 158 1 175 -5 l 151 -60 l 118 -248 l 227 -264 l 221 -296 l -81 -296 l -76 -264 l 6 -248 l 172 685 q 261 905 197 832 q 436 978 325 978 q 531 965 489 978 l 507 832 l 473 832 l 460 909 q 404 924 441 924 q 336 883 360 924 q 294 743 311 843 l 257 534 q 471 654 374 654 q 603 594 553 654 q 652 428 652 534 m 174 73 q 288 40 216 40 q 410 90 355 40 q 498 228 465 139 q 531 410 531 317 q 501 528 531 486 q 420 570 471 570 q 335 543 384 570 q 248 475 286 517 l 174 73 z "},"Ʀ":{"ha":848,"x_min":-8,"x_max":861,"o":"m 675 553 q 479 717 675 717 l 357 717 l 288 328 l 418 328 q 607 386 540 328 q 675 553 675 444 m 505 778 q 731 721 652 778 q 809 557 809 665 q 573 286 809 344 l 766 -98 l 861 -117 l 854 -153 l 637 -153 l 441 267 l 277 267 l 240 54 l 374 36 l 368 0 l -8 0 l -2 36 l 109 54 l 251 856 l 137 873 l 143 909 l 528 909 l 522 873 l 381 855 l 368 778 l 505 778 z "},"Ƨ":{"ha":694,"x_min":23,"x_max":701,"o":"m 294 -14 q 93 44 163 -14 q 23 211 23 102 q 87 406 23 332 q 308 526 151 480 q 499 594 453 568 q 569 656 545 620 q 592 744 592 692 q 547 831 592 800 q 420 863 503 863 q 241 812 319 863 l 198 701 l 154 701 l 187 890 q 431 920 321 920 q 630 868 558 920 q 701 723 701 817 q 640 547 701 614 q 418 433 578 480 q 242 369 296 397 q 161 295 188 340 q 134 191 134 251 q 179 81 134 120 q 307 41 224 41 q 431 65 367 41 q 528 122 496 90 l 574 245 l 618 245 l 581 35 q 442 -1 519 12 q 294 -14 365 -14 z "},"ƨ":{"ha":541,"x_min":24,"x_max":517,"o":"m 24 144 q 41 237 24 200 q 86 299 58 275 q 149 338 114 323 q 222 364 184 353 q 294 386 259 375 q 357 413 330 397 q 402 453 385 429 q 419 517 419 478 q 395 578 419 555 q 322 600 371 600 q 255 592 288 600 q 203 568 223 584 l 162 494 l 130 494 l 155 633 q 333 654 263 654 q 469 614 420 654 q 517 503 517 573 q 500 415 517 450 q 455 357 483 380 q 393 320 428 334 q 321 295 358 307 q 249 273 284 284 q 187 245 214 262 q 142 200 159 227 q 125 131 125 174 q 240 40 125 40 q 380 86 321 40 l 429 175 l 460 175 l 432 18 q 339 -4 397 6 q 232 -14 280 -14 q 78 26 131 -14 q 24 144 24 66 z "},"Ʃ":{"ha":825,"x_min":-3,"x_max":804,"o":"m 499 494 l 494 467 l 157 115 l 328 115 q 497 118 397 115 q 622 126 597 121 l 686 254 l 730 254 l 668 0 l -3 0 l 7 50 l 379 438 l 168 856 l 179 909 l 804 909 l 761 692 l 716 692 l 717 839 q 511 848 644 848 l 320 848 l 499 494 z "},"ƪ":{"ha":370,"x_min":5,"x_max":345,"o":"m 130 750 q 198 779 168 750 q 229 846 229 807 q 210 896 229 876 q 159 917 190 917 q 89 887 118 917 q 60 821 60 858 q 79 771 60 792 q 130 750 98 750 m 220 -296 q 99 -250 140 -296 q 58 -116 58 -203 q 66 -26 58 -75 l 198 718 q 120 696 161 696 q 37 730 70 696 q 5 813 5 764 q 54 924 5 878 q 169 971 103 971 q 277 922 239 971 q 316 787 316 873 q 307 699 316 747 l 173 -61 q 163 -151 163 -114 q 222 -241 163 -241 q 281 -222 256 -241 l 313 -149 l 345 -149 l 321 -283 q 220 -296 262 -296 z "},"ƫ":{"ha":386,"x_min":-4,"x_max":414,"o":"m 179 118 q 194 72 179 87 q 233 57 210 57 q 336 77 283 57 l 351 45 l 338 -26 q 256 -229 313 -163 q 104 -296 199 -296 q -4 -275 50 -296 l 18 -149 l 50 -149 l 60 -223 q 109 -241 79 -241 q 178 -198 153 -241 q 220 -61 203 -155 l 229 -9 q 182 -14 209 -14 q 97 19 128 -14 q 66 110 66 52 q 70 156 66 130 q 144 581 74 183 l 61 581 l 66 611 l 157 637 l 250 782 l 293 782 l 268 637 l 414 637 l 403 581 l 257 581 l 191 208 q 179 118 179 144 z "},"Ƭ":{"ha":772,"x_min":34,"x_max":854,"o":"m 276 850 q 187 834 222 850 q 127 778 151 818 l 79 696 l 34 696 l 71 876 q 271 909 142 909 l 854 909 l 817 696 l 770 696 l 777 838 q 578 850 716 850 l 545 850 l 404 54 l 546 36 l 539 0 l 119 0 l 126 36 l 273 54 l 414 850 l 276 850 z "},"ƭ":{"ha":386,"x_min":61,"x_max":522,"o":"m 498 832 l 465 832 l 452 909 q 395 924 432 924 q 328 885 351 924 q 286 743 304 846 l 268 637 l 414 637 l 403 581 l 257 581 l 191 208 q 179 118 179 144 q 194 72 179 87 q 233 57 210 57 q 336 77 283 57 l 351 45 q 275 4 316 21 q 182 -14 235 -14 q 97 19 128 -14 q 66 110 66 52 q 70 156 66 130 q 144 581 74 183 l 61 581 l 66 611 l 154 637 l 163 685 q 252 905 189 832 q 427 978 316 978 q 522 965 480 978 l 498 832 z "},"Ʈ":{"ha":772,"x_min":91,"x_max":854,"o":"m 854 909 l 817 696 l 770 696 l 777 838 q 578 850 716 850 l 545 850 l 375 -109 q 371 -153 371 -133 q 448 -238 371 -238 q 542 -205 509 -238 l 579 -111 l 624 -111 l 595 -276 q 450 -296 538 -296 q 350 -271 394 -296 q 282 -197 307 -245 q 257 -77 257 -149 q 265 10 257 -39 l 414 851 l 379 851 q 180 838 244 851 l 136 696 l 91 696 l 129 909 l 854 909 z "},"Ư":{"ha":1047,"x_min":127,"x_max":1177,"o":"m 962 909 l 924 699 q 1031 745 989 715 q 1073 808 1073 774 q 1061 832 1073 823 q 1036 851 1050 842 q 1011 873 1023 861 q 1000 907 1000 886 q 1024 969 1000 946 q 1086 992 1048 992 q 1151 969 1124 992 q 1177 895 1177 946 q 1144 794 1177 845 q 1058 707 1112 743 q 915 644 1005 671 l 857 313 q 725 72 829 157 q 460 -14 621 -14 q 219 50 301 -14 q 137 236 137 114 q 144 307 137 273 l 241 856 l 127 873 l 134 909 l 497 909 l 491 873 l 371 856 l 275 310 q 269 241 269 273 q 472 62 269 62 q 683 127 602 62 q 785 307 765 191 l 881 856 l 762 873 l 768 909 l 962 909 z "},"ư":{"ha":758,"x_min":69,"x_max":848,"o":"m 182 131 q 198 81 182 100 q 250 62 214 62 q 359 105 300 62 q 456 209 418 147 l 532 637 l 644 637 l 621 504 q 744 606 744 548 q 732 630 744 621 q 707 649 721 640 q 682 671 694 659 q 671 705 671 684 q 695 767 671 744 q 757 790 720 790 q 822 767 795 790 q 848 692 848 744 q 786 554 848 622 q 611 450 724 486 l 541 47 l 621 31 l 615 0 l 427 0 l 445 131 q 328 21 389 58 q 207 -16 267 -16 q 104 21 138 -16 q 69 127 69 58 q 73 163 69 137 q 146 591 77 189 l 71 607 l 76 637 l 267 637 l 197 243 q 182 131 182 158 z "},"Ʊ":{"ha":1004,"x_min":100,"x_max":1025,"o":"m 469 44 q 709 143 623 44 q 795 419 795 243 q 750 592 795 527 q 623 677 705 656 l 646 909 l 1025 909 l 998 686 l 954 686 l 932 783 q 748 794 878 794 l 699 794 l 694 719 q 869 608 803 692 q 935 411 935 525 q 878 188 935 283 q 713 41 820 92 q 467 -10 607 -10 q 198 72 295 -10 q 100 298 100 153 q 194 581 100 470 q 454 719 288 692 l 473 794 l 433 794 q 239 783 296 794 l 183 686 l 138 686 l 191 909 l 570 909 l 511 677 q 309 562 378 657 q 240 301 240 467 q 300 111 240 178 q 469 44 359 44 z "},"Ʋ":{"ha":943,"x_min":127,"x_max":934,"o":"m 460 -14 q 219 50 301 -14 q 137 236 137 114 q 144 307 137 273 l 241 856 l 127 873 l 134 909 l 497 909 l 491 873 l 371 856 l 275 310 q 269 241 269 273 q 472 62 269 62 q 683 127 602 62 q 784 307 764 191 l 859 736 q 863 781 863 760 q 794 865 863 865 q 752 854 773 865 q 716 831 730 844 l 676 737 l 625 737 l 654 903 q 791 923 718 923 q 901 889 869 923 q 934 787 934 855 q 926 711 934 759 l 857 313 q 725 72 829 157 q 460 -14 621 -14 z "},"Ƴ":{"ha":801,"x_min":79,"x_max":992,"o":"m 963 734 l 918 734 l 914 837 q 859 850 896 850 q 807 841 827 850 q 766 810 787 831 q 720 753 744 789 l 467 358 l 413 54 l 555 36 l 548 0 l 128 0 l 135 36 l 282 54 l 335 354 l 179 856 l 79 873 l 86 909 l 457 909 l 450 873 l 319 856 l 446 431 l 666 781 q 761 885 709 850 q 883 920 813 920 q 992 901 941 920 l 963 734 z "},"ƴ":{"ha":709,"x_min":-116,"x_max":1022,"o":"m -15 -300 q -116 -288 -70 -300 l -91 -150 l -60 -150 l -50 -215 q 6 -231 -32 -231 q 199 -47 98 -231 l 230 8 l 106 590 l 30 607 l 35 637 l 209 637 l 307 141 l 688 796 q 794 922 738 881 q 922 964 851 964 q 1022 951 981 964 l 998 811 l 966 811 l 952 886 q 903 900 933 900 q 821 872 857 900 q 753 787 785 844 l 292 -7 q 173 -190 218 -134 q 82 -273 127 -245 q -15 -300 37 -300 z "},"Ƶ":{"ha":772,"x_min":17,"x_max":784,"o":"m 317 451 l 119 451 l 129 508 l 359 508 l 615 851 l 479 851 q 247 838 311 851 l 201 694 l 154 694 l 192 909 l 784 909 l 773 851 l 517 508 l 714 508 l 704 451 l 475 451 l 181 57 l 344 57 q 508 65 425 57 q 622 79 592 73 l 692 253 l 740 253 l 677 0 l 17 0 l 28 64 l 317 451 z "},"ƶ":{"ha":541,"x_min":-16,"x_max":522,"o":"m 31 300 l 41 357 l 216 357 l 373 583 l 272 583 q 198 577 234 583 q 146 559 162 570 l 109 468 l 77 468 l 107 637 l 522 637 l 517 604 l 345 357 l 491 357 l 481 300 l 306 300 l 136 54 l 269 54 q 403 86 352 54 l 454 186 l 486 186 l 437 0 l -16 0 l -9 31 l 176 300 l 31 300 z "},"Ʒ":{"ha":751,"x_min":-66,"x_max":748,"o":"m 201 -300 q 63 -289 134 -300 q -66 -257 -8 -277 l -31 -43 l 14 -43 l 7 -180 q 82 -227 31 -207 q 202 -248 132 -248 q 446 -141 358 -248 q 534 157 534 -35 q 472 345 534 281 q 286 408 409 408 l 211 408 l 220 461 l 578 851 l 462 851 q 248 837 309 851 l 203 694 l 156 694 l 194 909 l 748 909 l 738 854 l 376 460 q 598 369 522 450 q 675 151 675 288 q 617 -88 675 15 q 451 -245 559 -191 q 201 -300 343 -300 z "},"Ƹ":{"ha":751,"x_min":7,"x_max":782,"o":"m 348 -300 q 96 -220 185 -300 q 7 5 7 -140 q 123 325 7 203 q 441 460 239 446 l 218 854 l 228 909 l 782 909 l 744 694 l 697 694 l 702 837 q 493 851 645 851 l 377 851 l 597 461 l 588 408 l 513 408 q 241 301 336 408 q 147 -5 147 193 q 204 -187 147 -126 q 366 -248 260 -248 q 490 -228 431 -248 q 584 -180 549 -209 l 625 -43 l 671 -43 l 630 -257 q 348 -300 489 -300 z "},"ƹ":{"ha":616,"x_min":24,"x_max":638,"o":"m 290 -300 q 94 -231 163 -300 q 24 -39 24 -161 q 94 166 24 85 q 300 278 164 247 l 113 604 l 119 637 l 638 637 l 608 468 l 576 468 l 572 559 q 525 577 559 570 q 454 583 490 583 l 253 583 l 431 268 l 425 237 l 401 237 q 215 163 282 237 q 147 -37 147 90 q 189 -181 147 -132 q 310 -230 230 -230 q 405 -220 361 -230 q 509 -178 448 -210 l 529 -210 q 290 -300 406 -300 z "},"ƺ":{"ha":616,"x_min":-20,"x_max":650,"o":"m 241 -300 q 43 -251 106 -300 q -20 -115 -20 -202 q 54 57 -20 -6 q 273 136 127 121 q 393 168 355 144 q 432 245 432 193 q 389 307 432 288 q 265 326 346 326 l 218 326 l 223 356 l 488 583 l 296 583 q 221 577 258 583 q 170 559 184 570 l 132 468 l 100 468 l 130 637 l 650 637 l 644 604 l 370 369 q 507 328 460 359 q 554 247 554 296 q 531 172 554 201 q 461 125 507 142 q 309 96 415 108 q 153 37 203 83 q 103 -102 103 -10 q 263 -230 103 -230 q 334 -224 302 -230 q 395 -210 367 -219 q 479 -172 424 -200 l 499 -203 q 241 -300 366 -300 z "},"ƻ":{"ha":694,"x_min":1,"x_max":664,"o":"m 557 0 l 1 0 l 18 100 l 151 197 q 341 341 271 281 q 453 454 412 401 l 146 454 l 157 510 l 491 510 q 547 724 547 607 q 507 830 547 797 q 392 863 468 863 q 314 852 355 863 q 245 827 273 842 l 201 715 l 157 715 l 187 890 q 402 920 317 920 q 596 868 528 920 q 664 724 664 817 q 597 510 664 609 l 663 510 l 652 454 l 553 454 q 435 342 509 402 q 242 198 362 283 l 113 104 l 575 104 l 557 0 z "},"Ƽ":{"ha":642,"x_min":21,"x_max":705,"o":"m 245 -14 q 21 16 117 -14 l 47 207 l 92 207 l 100 79 q 167 53 126 63 q 245 43 208 43 q 441 106 382 43 q 500 303 500 169 q 462 429 500 382 q 350 475 423 475 q 235 458 288 475 l 170 458 l 240 856 l 126 873 l 132 909 l 705 909 l 660 649 l 615 649 l 619 796 q 401 806 545 806 l 292 806 l 241 515 q 384 532 312 532 q 562 471 498 532 q 625 305 625 410 q 526 68 625 150 q 245 -14 428 -14 z "},"ƽ":{"ha":532,"x_min":-37,"x_max":543,"o":"m 163 -14 q -37 28 60 -14 l -9 182 l 22 182 l 33 89 q 169 40 79 40 q 316 83 263 40 q 368 216 368 125 q 222 331 368 331 q 117 320 169 331 l 70 320 l 114 571 l 16 594 l 24 637 l 543 637 l 503 413 l 458 413 l 458 531 q 240 541 385 541 l 170 541 l 141 376 q 260 387 199 387 q 424 343 366 387 q 482 218 482 298 q 399 47 482 107 q 163 -14 315 -14 z "},"ƾ":{"ha":449,"x_min":18,"x_max":420,"o":"m 144 581 l 61 581 l 66 611 l 157 637 l 250 782 l 293 782 l 268 637 l 414 637 l 403 581 l 257 581 q 246 498 246 513 q 266 426 246 459 q 334 348 285 393 q 399 264 377 307 q 420 169 420 221 q 194 -14 420 -14 q 18 28 102 -14 l 43 182 l 76 182 l 86 89 q 131 55 102 70 q 197 40 160 40 q 278 66 248 40 q 309 143 309 93 q 289 215 309 180 q 220 294 268 249 q 131 475 131 377 q 144 581 131 498 z "},"ƿ":{"ha":726,"x_min":-87,"x_max":682,"o":"m 111 -296 l -87 -296 l -82 -265 l 6 -248 l 155 590 l 69 607 l 75 637 l 277 637 l 253 501 q 513 654 372 654 q 637 602 593 654 q 682 463 682 549 q 552 163 682 290 q 152 -50 422 36 l 111 -296 m 161 -2 q 463 187 359 71 q 567 445 567 303 q 538 544 567 507 q 462 580 510 580 q 372 554 420 580 q 245 453 324 528 l 161 -2 z "},"ǀ":{"ha":278,"x_min":106,"x_max":172,"o":"m 172 0 l 106 0 l 106 964 l 172 964 l 172 0 z "},"ǁ":{"ha":390,"x_min":92,"x_max":298,"o":"m 298 0 l 231 0 l 231 964 l 298 964 l 298 0 m 159 0 l 92 0 l 92 964 l 159 964 l 159 0 z "},"ǂ":{"ha":346,"x_min":9,"x_max":337,"o":"m 337 341 l 206 341 l 206 0 l 140 0 l 140 341 l 9 341 l 9 398 l 140 398 l 140 522 l 9 522 l 9 578 l 140 578 l 140 964 l 206 964 l 206 578 l 337 578 l 337 522 l 206 522 l 206 398 l 337 398 l 337 341 z "},"ǃ":{"ha":463,"x_min":107,"x_max":401,"o":"m 271 62 q 248 5 271 29 q 189 -20 224 -20 q 131 5 154 -20 q 107 62 107 29 q 131 121 107 97 q 189 144 155 144 q 248 121 224 144 q 271 62 271 97 m 254 909 l 401 909 l 246 264 l 182 264 l 254 909 z "},"Ǆ":{"ha":1775,"x_min":-16,"x_max":1787,"o":"m 840 532 q 490 848 840 848 l 380 848 l 242 64 q 421 58 351 58 q 730 181 621 58 q 840 532 840 304 m 532 909 q 866 813 751 909 q 982 537 982 718 q 914 252 982 375 q 720 63 846 128 q 427 -3 593 -3 l 100 0 l -16 0 l -9 36 l 110 54 l 251 856 l 138 873 l 144 909 l 532 909 m 1618 851 l 1482 851 q 1250 838 1314 851 l 1204 694 l 1157 694 l 1195 909 l 1787 909 l 1776 851 l 1184 57 l 1347 57 q 1511 65 1428 57 q 1625 79 1595 73 l 1695 253 l 1743 253 l 1680 0 l 1020 0 l 1031 64 l 1618 851 m 1367 1192 l 1506 1068 l 1689 1192 l 1730 1192 l 1727 1170 l 1567 985 l 1423 985 l 1328 1170 l 1331 1192 l 1367 1192 z "},"ǅ":{"ha":1544,"x_min":-16,"x_max":1563,"o":"m 840 532 q 490 848 840 848 l 380 848 l 242 64 q 421 58 351 58 q 730 181 621 58 q 840 532 840 304 m 532 909 q 866 813 751 909 q 982 537 982 718 q 914 252 982 375 q 720 63 846 128 q 427 -3 593 -3 l 100 0 l -16 0 l -9 36 l 110 54 l 251 856 l 138 873 l 144 909 l 532 909 m 987 0 l 994 31 l 1376 583 l 1275 583 q 1201 577 1237 583 q 1149 559 1165 570 l 1112 468 l 1080 468 l 1110 637 l 1525 637 l 1520 604 l 1139 54 l 1272 54 q 1346 63 1310 54 q 1406 86 1382 71 l 1457 186 l 1489 186 l 1440 0 l 987 0 m 1200 966 l 1339 842 l 1522 966 l 1563 966 l 1560 943 l 1400 758 l 1256 758 l 1161 943 l 1164 966 l 1200 966 z "},"ǆ":{"ha":1235,"x_min":42,"x_max":1255,"o":"m 531 638 q 577 917 534 671 l 473 933 l 478 964 l 698 964 l 535 47 l 612 31 l 606 0 l 413 0 l 433 106 q 223 -14 318 -14 q 91 48 140 -14 q 42 215 42 111 q 92 433 42 331 q 229 594 142 535 q 419 654 315 654 q 531 638 483 654 m 515 568 q 467 592 492 583 q 406 601 441 601 q 286 551 342 601 q 197 412 231 500 q 163 230 163 324 q 193 114 163 157 q 273 71 222 71 q 356 95 311 71 q 441 165 400 120 l 515 568 m 679 0 l 685 31 l 1067 583 l 966 583 q 892 577 928 583 q 840 559 857 570 l 803 468 l 771 468 l 802 637 l 1217 637 l 1211 604 l 830 54 l 964 54 q 1038 63 1002 54 q 1097 86 1074 71 l 1149 186 l 1181 186 l 1132 0 l 679 0 m 891 966 l 1031 842 l 1214 966 l 1255 966 l 1251 943 l 1092 758 l 947 758 l 852 943 l 856 966 l 891 966 z "},"Ǉ":{"ha":1389,"x_min":-16,"x_max":1443,"o":"m 241 58 l 386 58 q 587 72 515 58 l 663 261 l 707 261 l 648 0 l -16 0 l -9 36 l 109 54 l 251 856 l 137 873 l 144 909 l 532 909 l 525 873 l 382 856 l 241 58 m 1200 856 l 1087 873 l 1093 909 l 1443 909 l 1437 873 l 1331 856 l 1232 293 q 954 -14 1177 -14 q 864 -4 907 -14 q 793 18 821 5 l 822 175 l 866 175 l 869 81 q 906 55 878 66 q 963 45 935 45 q 1080 174 1058 45 l 1200 856 z "},"ǈ":{"ha":1158,"x_min":-16,"x_max":1127,"o":"m 241 58 l 386 58 q 587 72 515 58 l 663 261 l 707 261 l 648 0 l -16 0 l -9 36 l 109 54 l 251 856 l 137 873 l 144 909 l 532 909 l 525 873 l 382 856 l 241 58 m 735 -296 q 627 -275 680 -296 l 649 -149 l 681 -149 l 691 -223 q 739 -241 709 -241 q 809 -198 783 -241 q 850 -61 834 -155 l 966 590 l 873 607 l 878 637 l 1086 637 l 968 -26 q 887 -230 944 -163 q 735 -296 829 -296 m 1127 846 q 1105 794 1127 816 q 1053 772 1084 772 q 1002 794 1023 772 q 980 846 980 816 q 1002 898 980 876 q 1053 920 1023 920 q 1105 898 1084 920 q 1127 846 1127 876 z "},"ǉ":{"ha":772,"x_min":74,"x_max":741,"o":"m 195 47 l 301 31 l 296 0 l 74 0 l 235 917 l 147 933 l 153 964 l 355 964 l 195 47 m 349 -296 q 240 -275 294 -296 l 262 -149 l 294 -149 l 304 -223 q 353 -241 323 -241 q 422 -198 397 -241 q 464 -61 448 -155 l 579 590 l 486 607 l 492 637 l 700 637 l 582 -26 q 500 -230 557 -163 q 349 -296 443 -296 m 741 846 q 719 794 741 816 q 667 772 697 772 q 615 794 637 772 q 593 846 593 816 q 615 898 593 876 q 667 920 637 920 q 719 898 697 920 q 741 846 741 876 z "},"Ǌ":{"ha":1545,"x_min":-10,"x_max":1597,"o":"m 793 856 l 674 873 l 681 909 l 991 909 l 984 873 l 865 856 l 713 0 l 648 0 l 321 818 l 186 54 l 306 36 l 299 0 l -10 0 l -3 36 l 115 54 l 257 856 l 143 873 l 150 909 l 413 909 l 684 228 l 793 856 m 1354 856 l 1241 873 l 1247 909 l 1597 909 l 1591 873 l 1485 856 l 1385 293 q 1107 -14 1331 -14 q 1018 -4 1061 -14 q 947 18 975 5 l 976 175 l 1020 175 l 1023 81 q 1060 55 1032 66 q 1117 45 1088 45 q 1234 174 1212 45 l 1354 856 z "},"ǋ":{"ha":1312,"x_min":-10,"x_max":1281,"o":"m 793 856 l 674 873 l 681 909 l 991 909 l 984 873 l 865 856 l 713 0 l 648 0 l 321 818 l 186 54 l 306 36 l 299 0 l -10 0 l -3 36 l 115 54 l 257 856 l 143 873 l 150 909 l 413 909 l 684 228 l 793 856 m 889 -296 q 781 -275 834 -296 l 803 -149 l 835 -149 l 845 -223 q 893 -241 863 -241 q 963 -198 937 -241 q 1004 -61 988 -155 l 1120 590 l 1027 607 l 1032 637 l 1240 637 l 1122 -26 q 1041 -230 1098 -163 q 889 -296 983 -296 m 1281 846 q 1259 794 1281 816 q 1207 772 1238 772 q 1156 794 1177 772 q 1134 846 1134 816 q 1156 898 1134 876 q 1207 920 1177 920 q 1259 898 1238 920 q 1281 846 1281 876 z "},"ǌ":{"ha":1080,"x_min":50,"x_max":1049,"o":"m 512 507 q 496 557 512 538 q 444 576 479 576 q 335 533 394 576 q 237 427 275 490 l 162 0 l 50 0 l 153 591 l 73 608 l 79 638 l 267 638 l 249 508 q 367 618 306 581 q 487 654 428 654 q 590 617 555 654 q 625 511 625 581 q 622 482 625 502 q 548 47 619 463 l 637 31 l 631 0 l 427 0 l 496 395 q 512 507 512 481 m 657 -296 q 549 -275 602 -296 l 571 -149 l 603 -149 l 613 -223 q 661 -241 631 -241 q 731 -198 705 -241 q 772 -61 756 -155 l 888 590 l 795 607 l 800 637 l 1008 637 l 890 -26 q 809 -230 866 -163 q 657 -296 751 -296 m 1049 846 q 1027 794 1049 816 q 975 772 1006 772 q 924 794 945 772 q 902 846 902 816 q 924 898 902 876 q 975 920 945 920 q 1027 898 1006 920 q 1049 846 1049 876 z "},"Ǎ":{"ha":848,"x_min":-76,"x_max":853,"o":"m 179 36 l 172 0 l -76 0 l -69 36 l 7 54 l 469 917 l 599 917 l 768 54 l 853 36 l 846 0 l 524 0 l 531 36 l 628 54 l 585 317 l 227 317 l 87 54 l 179 36 m 490 819 l 257 378 l 574 378 l 490 819 m 414 1242 l 554 1118 l 737 1242 l 778 1242 l 774 1220 l 615 1035 l 471 1035 l 376 1220 l 379 1242 l 414 1242 z "},"ǎ":{"ha":694,"x_min":41,"x_max":649,"o":"m 535 47 l 612 31 l 606 0 l 413 0 l 433 106 q 223 -14 318 -14 q 91 46 141 -14 q 41 212 41 106 q 93 434 41 331 q 232 596 145 538 q 420 654 319 654 q 575 625 503 654 l 606 648 l 642 648 l 535 47 m 515 568 q 466 593 489 586 q 409 600 443 600 q 284 549 341 600 q 195 411 228 498 q 163 230 163 324 q 193 114 163 157 q 274 71 222 71 q 441 165 351 71 l 515 568 m 286 966 l 425 842 l 608 966 l 649 966 l 646 943 l 486 758 l 342 758 l 247 943 l 250 966 l 286 966 z "},"Ǐ":{"ha":463,"x_min":-5,"x_max":581,"o":"m 250 54 l 363 36 l 357 0 l -5 0 l 0 36 l 119 54 l 260 856 l 147 873 l 153 909 l 517 909 l 511 873 l 391 856 l 250 54 m 218 1242 l 357 1118 l 541 1242 l 581 1242 l 578 1220 l 418 1035 l 274 1035 l 179 1220 l 182 1242 l 218 1242 z "},"ǐ":{"ha":386,"x_min":74,"x_max":480,"o":"m 195 47 l 301 31 l 296 0 l 74 0 l 178 590 l 90 607 l 96 637 l 298 637 l 195 47 m 117 966 l 256 842 l 439 966 l 480 966 l 477 943 l 317 758 l 173 758 l 78 943 l 81 966 l 117 966 z "},"Ǒ":{"ha":1003,"x_min":70,"x_max":970,"o":"m 835 564 q 765 783 835 700 q 582 865 696 865 q 396 797 481 865 q 259 600 312 728 q 205 341 205 471 q 274 125 205 207 q 454 44 342 44 q 641 112 555 44 q 781 309 727 180 q 835 564 835 437 m 450 -14 q 253 32 340 -14 q 118 161 166 78 q 70 349 70 245 q 138 645 70 512 q 323 848 205 777 q 591 920 440 920 q 787 874 700 920 q 922 745 874 828 q 970 557 970 662 q 902 262 970 397 q 717 57 834 127 q 450 -14 600 -14 m 496 1242 l 635 1118 l 819 1242 l 859 1242 l 856 1220 l 696 1035 l 552 1035 l 457 1220 l 460 1242 l 496 1242 z "},"ǒ":{"ha":694,"x_min":41,"x_max":656,"o":"m 161 231 q 196 91 161 139 q 296 42 232 42 q 413 92 357 42 q 502 227 469 141 q 534 411 534 313 q 499 553 534 505 q 397 602 463 602 q 280 552 335 602 q 193 417 224 503 q 161 231 161 331 m 290 -14 q 109 59 177 -14 q 41 254 41 131 q 88 456 41 363 q 218 602 135 549 q 405 654 301 654 q 585 582 517 654 q 653 387 653 510 q 606 185 653 278 q 476 39 559 92 q 290 -14 393 -14 m 292 966 l 432 842 l 615 966 l 656 966 l 652 943 l 493 758 l 349 758 l 254 943 l 257 966 l 292 966 z "},"Ǔ":{"ha":1003,"x_min":127,"x_max":1078,"o":"m 881 856 l 762 873 l 768 909 l 1078 909 l 1072 873 l 952 856 l 857 313 q 725 72 829 157 q 460 -14 621 -14 q 220 51 302 -14 q 137 236 137 115 q 144 307 137 273 l 241 856 l 127 873 l 134 909 l 497 909 l 491 873 l 371 856 l 275 310 q 269 241 269 273 q 472 62 269 62 q 683 127 602 62 q 785 307 765 191 l 881 856 m 503 1242 l 642 1118 l 825 1242 l 866 1242 l 863 1220 l 703 1035 l 559 1035 l 464 1220 l 467 1242 l 503 1242 z "},"ǔ":{"ha":694,"x_min":69,"x_max":644,"o":"m 182 131 q 198 81 182 100 q 250 62 214 62 q 359 105 300 62 q 456 209 418 147 l 532 637 l 644 637 l 541 47 l 621 31 l 615 0 l 427 0 l 445 131 q 328 21 389 58 q 207 -16 267 -16 q 104 21 138 -16 q 69 127 69 58 q 73 163 69 137 q 146 591 77 189 l 71 607 l 76 637 l 267 637 l 197 243 q 182 131 182 158 m 279 966 l 418 842 l 602 966 l 642 966 l 639 943 l 479 758 l 335 758 l 240 943 l 243 966 l 279 966 z "},"Ǖ":{"ha":1003,"x_min":127,"x_max":1078,"o":"m 881 856 l 762 873 l 768 909 l 1078 909 l 1072 873 l 952 856 l 857 313 q 725 72 829 157 q 460 -14 621 -14 q 220 51 302 -14 q 137 236 137 115 q 144 307 137 273 l 241 856 l 127 873 l 134 909 l 497 909 l 491 873 l 371 856 l 275 310 q 269 241 269 273 q 472 62 269 62 q 683 127 602 62 q 785 307 765 191 l 881 856 m 444 1164 l 456 1238 l 882 1238 l 869 1164 l 444 1164 m 810 1035 q 793 992 810 1010 q 751 974 776 974 q 708 992 726 974 q 690 1035 690 1010 q 708 1078 690 1060 q 751 1095 726 1095 q 793 1078 776 1095 q 810 1035 810 1060 m 595 1035 q 578 992 595 1010 q 536 974 561 974 q 493 992 511 974 q 475 1035 475 1010 q 493 1078 475 1060 q 536 1095 511 1095 q 578 1078 561 1095 q 595 1035 595 1060 z "},"ǖ":{"ha":694,"x_min":69,"x_max":661,"o":"m 182 131 q 198 81 182 100 q 250 62 214 62 q 359 105 300 62 q 456 209 418 147 l 532 637 l 644 637 l 541 47 l 621 31 l 615 0 l 427 0 l 445 131 q 328 21 389 58 q 207 -16 267 -16 q 104 21 138 -16 q 69 127 69 58 q 73 163 69 137 q 146 591 77 189 l 71 607 l 76 637 l 267 637 l 197 243 q 182 131 182 158 m 597 787 q 578 739 597 759 q 530 719 559 719 q 482 740 502 719 q 463 787 463 761 q 482 836 463 816 q 530 855 502 855 q 578 836 559 855 q 597 787 597 816 m 355 787 q 336 739 355 759 q 289 719 317 719 q 241 739 261 719 q 220 787 220 760 q 241 836 220 816 q 289 855 262 855 q 336 836 317 855 q 355 787 355 816 m 222 910 l 235 984 l 661 984 l 648 910 l 222 910 z "},"Ǘ":{"ha":1003,"x_min":127,"x_max":1078,"o":"m 881 856 l 762 873 l 768 909 l 1078 909 l 1072 873 l 952 856 l 857 313 q 725 72 829 157 q 460 -14 621 -14 q 220 51 302 -14 q 137 236 137 115 q 144 307 137 273 l 241 856 l 127 873 l 134 909 l 497 909 l 491 873 l 371 856 l 275 310 q 269 241 269 273 q 472 62 269 62 q 683 127 602 62 q 785 307 765 191 l 881 856 m 602 1077 l 605 1093 l 696 1230 l 812 1230 l 809 1213 l 624 1077 l 602 1077 m 463 999 q 480 1042 463 1024 q 522 1059 497 1059 q 565 1042 547 1059 q 583 999 583 1024 q 565 956 583 974 q 522 938 547 938 q 480 956 497 938 q 463 999 463 974 m 678 999 q 695 1042 678 1024 q 737 1059 712 1059 q 780 1042 762 1059 q 798 999 798 1024 q 780 956 798 974 q 737 938 762 938 q 695 956 712 938 q 678 999 678 974 z "},"ǘ":{"ha":694,"x_min":69,"x_max":695,"o":"m 182 131 q 198 81 182 100 q 250 62 214 62 q 359 105 300 62 q 456 209 418 147 l 532 637 l 644 637 l 541 47 l 621 31 l 615 0 l 427 0 l 445 131 q 328 21 389 58 q 207 -16 267 -16 q 104 21 138 -16 q 69 127 69 58 q 73 163 69 137 q 146 591 77 189 l 71 607 l 76 637 l 267 637 l 197 243 q 182 131 182 158 m 597 787 q 578 739 597 759 q 530 719 559 719 q 482 740 502 719 q 463 787 463 761 q 482 836 463 816 q 530 855 502 855 q 578 836 559 855 q 597 787 597 816 m 355 787 q 336 739 355 759 q 289 719 317 719 q 241 739 261 719 q 220 787 220 760 q 241 836 220 816 q 289 855 262 855 q 336 836 317 855 q 355 787 355 816 m 382 949 l 385 972 l 551 1156 l 695 1156 l 691 1131 l 419 949 l 382 949 z "},"Ǚ":{"ha":1003,"x_min":127,"x_max":1078,"o":"m 881 856 l 762 873 l 768 909 l 1078 909 l 1072 873 l 952 856 l 857 313 q 725 72 829 157 q 460 -14 621 -14 q 220 51 302 -14 q 137 236 137 115 q 144 307 137 273 l 241 856 l 127 873 l 134 909 l 497 909 l 491 873 l 371 856 l 275 310 q 269 241 269 273 q 472 62 269 62 q 683 127 602 62 q 785 307 765 191 l 881 856 m 785 999 q 768 956 785 974 q 726 938 751 938 q 683 956 701 938 q 665 999 665 974 q 683 1042 665 1024 q 726 1059 701 1059 q 768 1042 751 1059 q 785 999 785 1024 m 570 999 q 553 956 570 974 q 511 938 536 938 q 468 956 486 938 q 450 999 450 974 q 468 1042 450 1024 q 511 1059 486 1059 q 553 1042 536 1059 q 570 999 570 1024 m 486 1230 l 627 1147 l 795 1230 l 836 1230 l 833 1208 l 683 1077 l 553 1077 l 448 1208 l 452 1230 l 486 1230 z "},"ǚ":{"ha":694,"x_min":69,"x_max":654,"o":"m 182 131 q 198 81 182 100 q 250 62 214 62 q 359 105 300 62 q 456 209 418 147 l 532 637 l 644 637 l 541 47 l 621 31 l 615 0 l 427 0 l 445 131 q 328 21 389 58 q 207 -16 267 -16 q 104 21 138 -16 q 69 127 69 58 q 73 163 69 137 q 146 591 77 189 l 71 607 l 76 637 l 267 637 l 197 243 q 182 131 182 158 m 597 787 q 578 739 597 759 q 530 719 559 719 q 482 740 502 719 q 463 787 463 761 q 482 836 463 816 q 530 855 502 855 q 578 836 559 855 q 597 787 597 816 m 355 787 q 336 739 355 759 q 289 719 317 719 q 241 739 261 719 q 220 787 220 760 q 241 836 220 816 q 289 855 262 855 q 336 836 317 855 q 355 787 355 816 m 290 1149 l 430 1025 l 613 1149 l 654 1149 l 650 1126 l 491 941 l 347 941 l 252 1126 l 255 1149 l 290 1149 z "},"Ǜ":{"ha":1003,"x_min":127,"x_max":1078,"o":"m 881 856 l 762 873 l 768 909 l 1078 909 l 1072 873 l 952 856 l 857 313 q 725 72 829 157 q 460 -14 621 -14 q 220 51 302 -14 q 137 236 137 115 q 144 307 137 273 l 241 856 l 127 873 l 134 909 l 497 909 l 491 873 l 371 856 l 275 310 q 269 241 269 273 q 472 62 269 62 q 683 127 602 62 q 785 307 765 191 l 881 856 m 643 1077 l 505 1213 l 507 1230 l 623 1230 l 667 1093 l 664 1077 l 643 1077 m 802 999 q 785 956 802 974 q 743 938 768 938 q 701 956 718 938 q 683 999 683 974 q 701 1042 683 1024 q 743 1059 718 1059 q 785 1042 768 1059 q 802 999 802 1024 m 587 999 q 570 956 587 974 q 528 938 553 938 q 485 956 503 938 q 467 999 467 974 q 485 1042 467 1024 q 528 1059 503 1059 q 570 1042 553 1059 q 587 999 587 1024 z "},"ǜ":{"ha":694,"x_min":69,"x_max":644,"o":"m 182 131 q 198 81 182 100 q 250 62 214 62 q 359 105 300 62 q 456 209 418 147 l 532 637 l 644 637 l 541 47 l 621 31 l 615 0 l 427 0 l 445 131 q 328 21 389 58 q 207 -16 267 -16 q 104 21 138 -16 q 69 127 69 58 q 73 163 69 137 q 146 591 77 189 l 71 607 l 76 637 l 267 637 l 197 243 q 182 131 182 158 m 597 787 q 578 739 597 759 q 530 719 559 719 q 482 740 502 719 q 463 787 463 761 q 482 836 463 816 q 530 855 502 855 q 578 836 559 855 q 597 787 597 816 m 355 787 q 336 739 355 759 q 289 719 317 719 q 241 739 261 719 q 220 787 220 760 q 241 836 220 816 q 289 855 262 855 q 336 836 317 855 q 355 787 355 816 m 441 950 l 233 1132 l 237 1157 l 375 1157 l 482 972 l 479 950 l 441 950 z "},"ǝ":{"ha":616,"x_min":31,"x_max":574,"o":"m 31 125 q 83 237 31 186 q 231 320 135 288 q 451 361 327 353 l 454 410 q 417 540 454 496 q 310 584 381 584 q 197 563 249 584 q 101 516 146 543 l 81 545 q 213 626 144 597 q 345 654 283 654 q 514 593 455 654 q 574 417 574 532 q 526 206 574 304 q 393 47 478 108 q 216 -14 309 -14 q 82 25 132 -14 q 31 125 31 63 m 446 318 q 231 255 311 309 q 150 125 150 202 q 171 63 150 87 q 231 39 191 39 q 323 77 278 39 q 400 181 368 116 q 446 318 433 246 z "},"Ǟ":{"ha":848,"x_min":-76,"x_max":853,"o":"m 179 36 l 172 0 l -76 0 l -69 36 l 7 54 l 469 917 l 599 917 l 768 54 l 853 36 l 846 0 l 524 0 l 531 36 l 628 54 l 585 317 l 227 317 l 87 54 l 179 36 m 490 819 l 257 378 l 574 378 l 490 819 m 345 1164 l 357 1238 l 783 1238 l 770 1164 l 345 1164 m 711 1035 q 694 992 711 1010 q 652 974 677 974 q 609 992 627 974 q 591 1035 591 1010 q 609 1078 591 1060 q 652 1095 627 1095 q 694 1078 677 1095 q 711 1035 711 1060 m 496 1035 q 479 992 496 1010 q 437 974 462 974 q 394 992 412 974 q 376 1035 376 1010 q 394 1078 376 1060 q 437 1095 412 1095 q 479 1078 462 1095 q 496 1035 496 1060 z "},"ǟ":{"ha":694,"x_min":41,"x_max":685,"o":"m 535 47 l 612 31 l 606 0 l 413 0 l 433 106 q 223 -14 318 -14 q 91 46 141 -14 q 41 212 41 106 q 93 434 41 331 q 232 596 145 538 q 420 654 319 654 q 575 625 503 654 l 606 648 l 642 648 l 535 47 m 515 568 q 466 593 489 586 q 409 600 443 600 q 284 549 341 600 q 195 411 228 498 q 163 230 163 324 q 193 114 163 157 q 274 71 222 71 q 441 165 351 71 l 515 568 m 626 787 q 607 739 626 759 q 559 719 588 719 q 511 740 531 719 q 492 787 492 761 q 511 836 492 816 q 559 855 531 855 q 607 836 588 855 q 626 787 626 816 m 385 787 q 366 739 385 759 q 318 719 347 719 q 270 739 290 719 q 250 787 250 760 q 271 836 250 816 q 318 855 292 855 q 366 836 347 855 q 385 787 385 816 m 246 910 l 259 984 l 685 984 l 672 910 l 246 910 z "},"Ǡ":{"ha":848,"x_min":-76,"x_max":853,"o":"m 179 36 l 172 0 l -76 0 l -69 36 l 7 54 l 469 917 l 599 917 l 768 54 l 853 36 l 846 0 l 524 0 l 531 36 l 628 54 l 585 317 l 227 317 l 87 54 l 179 36 m 490 819 l 257 378 l 574 378 l 490 819 m 342 1164 l 355 1238 l 781 1238 l 768 1164 l 342 1164 m 608 1043 q 587 991 608 1013 q 534 970 565 970 q 483 991 505 970 q 461 1043 461 1013 q 483 1095 461 1074 q 534 1117 505 1117 q 587 1095 565 1117 q 608 1043 608 1074 z "},"ǡ":{"ha":694,"x_min":41,"x_max":694,"o":"m 535 47 l 612 31 l 606 0 l 413 0 l 433 106 q 223 -14 318 -14 q 91 46 141 -14 q 41 212 41 106 q 93 434 41 331 q 232 596 145 538 q 420 654 319 654 q 575 625 503 654 l 606 648 l 642 648 l 535 47 m 515 568 q 466 593 489 586 q 409 600 443 600 q 284 549 341 600 q 195 411 228 498 q 163 230 163 324 q 193 114 163 157 q 274 71 222 71 q 441 165 351 71 l 515 568 m 514 802 q 492 750 514 772 q 440 728 471 728 q 389 750 410 728 q 367 802 367 772 q 389 854 367 832 q 440 876 410 876 q 492 854 471 876 q 514 802 514 832 m 255 955 l 268 1029 l 694 1029 l 681 955 l 255 955 z "},"Ǣ":{"ha":1235,"x_min":-99,"x_max":1213,"o":"m 542 317 l 262 317 l 76 54 l 180 36 l 174 0 l -99 0 l -93 36 l -4 54 l 576 861 l 468 873 l 474 909 l 1213 909 l 1174 692 l 1129 692 l 1133 839 q 916 848 1059 848 l 767 848 l 704 493 l 949 493 l 990 602 l 1034 602 l 984 322 l 941 322 l 939 432 l 694 432 l 628 61 l 807 61 q 1038 72 981 61 l 1107 240 l 1152 240 l 1096 0 l 370 0 l 377 36 l 496 54 l 542 317 m 307 378 l 553 378 l 633 835 l 307 378 m 617 1000 l 630 1074 l 1056 1074 l 1043 1000 l 617 1000 z "},"ǣ":{"ha":926,"x_min":43,"x_max":895,"o":"m 895 523 q 850 409 895 461 q 720 322 805 357 q 528 280 635 288 q 523 201 523 243 q 648 57 523 57 q 825 125 730 57 l 845 96 q 604 -14 719 -14 q 492 13 534 -14 q 421 100 450 39 q 310 16 367 47 q 206 -14 253 -14 q 89 49 134 -14 q 43 215 43 113 q 93 435 43 332 q 230 596 143 538 q 419 654 316 654 q 502 639 461 654 q 570 604 543 625 q 730 654 633 654 q 852 619 808 654 q 895 523 895 583 m 265 71 q 335 92 296 71 q 409 146 374 113 q 404 210 404 184 q 520 555 404 410 q 401 600 460 600 q 284 546 339 600 q 197 404 230 492 q 163 227 163 315 q 191 112 163 153 q 265 71 219 71 m 777 525 q 760 582 777 561 q 711 602 743 602 q 603 529 649 602 q 535 323 557 456 q 714 388 651 334 q 777 525 777 441 m 337 787 l 350 861 l 776 861 l 763 787 l 337 787 z "},"Ǥ":{"ha":1003,"x_min":77,"x_max":973,"o":"m 973 397 l 967 361 l 875 343 l 857 245 l 946 245 l 936 189 l 847 189 l 824 58 q 642 4 724 20 q 468 -12 560 -12 q 180 85 283 -12 q 77 355 77 182 q 147 653 77 525 q 347 850 218 781 q 642 920 475 920 q 945 879 799 920 l 911 684 l 865 684 l 867 796 q 638 865 781 865 q 420 801 518 865 q 268 616 323 736 q 213 341 213 497 q 282 121 213 200 q 477 42 352 42 q 596 59 536 42 q 702 104 657 76 l 717 189 l 534 189 l 545 245 l 727 245 l 745 343 l 631 361 l 637 397 l 973 397 z "},"ǥ":{"ha":694,"x_min":1,"x_max":654,"o":"m 177 -152 l 186 -95 l 412 -95 l 422 -51 l 449 109 q 340 20 400 55 q 232 -14 280 -14 q 96 46 146 -14 q 47 212 47 107 q 99 433 47 331 q 239 594 151 535 q 431 654 328 654 q 537 646 472 654 q 654 626 603 638 l 540 -24 q 523 -95 532 -66 l 623 -95 l 613 -152 l 500 -152 q 396 -262 463 -229 q 227 -296 330 -296 q 103 -282 167 -296 q 1 -248 39 -268 l 13 -93 l 43 -93 l 68 -178 q 226 -232 123 -232 q 388 -152 340 -232 l 177 -152 m 283 71 q 370 97 323 71 q 458 165 417 123 l 533 584 q 471 598 491 595 q 419 601 451 601 q 293 550 351 601 q 201 413 235 499 q 168 230 168 327 q 198 114 168 157 q 283 71 229 71 z "},"Ǧ":{"ha":1003,"x_min":77,"x_max":973,"o":"m 468 -12 q 180 85 283 -12 q 77 355 77 182 q 147 653 77 525 q 347 850 218 781 q 642 920 475 920 q 945 879 799 920 l 911 684 l 865 684 l 867 796 q 638 865 781 865 q 420 801 518 865 q 268 616 323 736 q 213 341 213 497 q 282 121 213 200 q 477 42 352 42 q 598 59 537 42 q 702 104 659 77 l 745 343 l 631 361 l 637 397 l 973 397 l 967 361 l 875 343 l 824 58 q 639 3 722 19 q 468 -12 556 -12 m 526 1192 l 666 1068 l 849 1192 l 890 1192 l 886 1170 l 727 985 l 583 985 l 488 1170 l 491 1192 l 526 1192 z "},"ǧ":{"ha":694,"x_min":1,"x_max":685,"o":"m 283 71 q 368 96 321 71 q 458 165 414 121 l 533 584 q 504 591 517 588 q 478 597 491 595 q 452 600 466 599 q 419 601 437 601 q 293 550 351 601 q 201 413 235 499 q 168 230 168 327 q 198 114 168 157 q 283 71 229 71 m 449 109 q 340 20 400 55 q 232 -14 280 -14 q 96 46 146 -14 q 47 212 47 107 q 99 433 47 331 q 239 594 151 535 q 431 654 328 654 q 537 646 472 654 q 654 626 603 638 l 540 -24 q 442 -231 515 -167 q 227 -296 369 -296 q 103 -282 167 -296 q 1 -248 39 -268 l 13 -93 l 43 -93 l 68 -178 q 226 -232 123 -232 q 357 -189 309 -232 q 422 -51 406 -146 l 449 109 m 321 966 l 461 842 l 644 966 l 685 966 l 682 943 l 522 758 l 378 758 l 283 943 l 286 966 l 321 966 z "},"Ǩ":{"ha":926,"x_min":-16,"x_max":986,"o":"m 986 909 l 979 873 l 873 856 l 496 547 l 800 54 l 890 36 l 884 0 l 675 0 l 397 465 l 300 386 l 240 54 l 368 36 l 361 0 l -16 0 l -9 36 l 109 54 l 251 856 l 137 873 l 144 909 l 508 909 l 501 873 l 382 856 l 315 477 l 775 856 l 694 873 l 701 909 l 986 909 m 439 1192 l 578 1068 l 762 1192 l 802 1192 l 799 1170 l 640 985 l 495 985 l 400 1170 l 404 1192 l 439 1192 z "},"ǩ":{"ha":616,"x_min":40,"x_max":668,"o":"m 203 917 l 111 933 l 117 964 l 323 964 l 207 307 l 497 589 l 433 607 l 439 637 l 637 637 l 631 607 l 576 591 l 377 401 l 542 46 l 608 31 l 603 0 l 443 0 l 295 325 l 195 231 l 153 0 l 40 0 l 203 917 m 304 1220 l 444 1096 l 627 1220 l 668 1220 l 665 1198 l 505 1013 l 361 1013 l 266 1198 l 269 1220 l 304 1220 z "},"Ǫ":{"ha":1003,"x_min":70,"x_max":970,"o":"m 612 -240 q 492 -273 557 -273 q 394 -240 430 -273 q 359 -150 359 -208 q 421 -13 359 -77 q 167 96 264 -3 q 70 349 70 195 q 138 645 70 512 q 323 848 205 777 q 591 920 440 920 q 787 874 700 920 q 922 745 874 828 q 970 557 970 662 q 910 277 970 406 q 745 75 850 149 q 503 -11 640 1 q 460 -137 460 -71 q 481 -194 460 -174 q 541 -214 502 -214 q 601 -201 572 -214 l 612 -240 m 835 564 q 765 783 835 700 q 582 865 696 865 q 396 797 481 865 q 259 600 312 728 q 205 341 205 471 q 274 125 205 207 q 454 44 342 44 q 641 112 555 44 q 781 309 727 180 q 835 564 835 437 z "},"ǫ":{"ha":694,"x_min":41,"x_max":653,"o":"m 451 -240 q 332 -273 397 -273 q 234 -240 269 -273 q 198 -150 198 -208 q 261 -12 198 -77 q 101 68 160 -3 q 41 254 41 140 q 88 456 41 363 q 218 602 135 549 q 405 654 301 654 q 585 582 517 654 q 653 387 653 510 q 614 202 653 288 q 505 59 576 115 q 343 -9 433 3 q 299 -137 299 -71 q 320 -194 299 -174 q 380 -214 341 -214 q 440 -201 411 -214 l 451 -240 m 161 231 q 196 90 161 138 q 296 42 232 42 q 413 92 357 42 q 502 227 469 141 q 534 411 534 313 q 499 553 534 505 q 397 602 464 602 q 280 552 335 602 q 193 417 224 503 q 161 231 161 331 z "},"Ǭ":{"ha":1003,"x_min":70,"x_max":970,"o":"m 612 -240 q 492 -273 557 -273 q 394 -240 430 -273 q 359 -150 359 -208 q 421 -13 359 -77 q 167 96 264 -3 q 70 349 70 195 q 138 645 70 512 q 323 848 205 777 q 591 920 440 920 q 787 874 700 920 q 922 745 874 828 q 970 557 970 662 q 910 277 970 406 q 745 75 850 149 q 503 -11 640 1 q 460 -137 460 -71 q 481 -194 460 -174 q 541 -214 502 -214 q 601 -201 572 -214 l 612 -240 m 835 564 q 765 783 835 700 q 582 865 696 865 q 396 797 481 865 q 259 600 312 728 q 205 341 205 471 q 274 125 205 207 q 454 44 342 44 q 641 112 555 44 q 781 309 727 180 q 835 564 835 437 m 401 1014 l 414 1088 l 840 1088 l 827 1014 l 401 1014 z "},"ǭ":{"ha":694,"x_min":41,"x_max":659,"o":"m 451 -240 q 332 -273 397 -273 q 234 -240 269 -273 q 198 -150 198 -208 q 261 -12 198 -77 q 101 68 160 -3 q 41 254 41 140 q 88 456 41 363 q 218 602 135 549 q 405 654 301 654 q 585 582 517 654 q 653 387 653 510 q 614 202 653 288 q 505 59 576 115 q 343 -9 433 3 q 299 -137 299 -71 q 320 -194 299 -174 q 380 -214 341 -214 q 440 -201 411 -214 l 451 -240 m 161 231 q 196 90 161 138 q 296 42 232 42 q 413 92 357 42 q 502 227 469 141 q 534 411 534 313 q 499 553 534 505 q 397 602 464 602 q 280 552 335 602 q 193 417 224 503 q 161 231 161 331 m 220 787 l 233 861 l 659 861 l 646 787 l 220 787 z "},"Ǯ":{"ha":751,"x_min":-54,"x_max":760,"o":"m 213 -300 q 75 -289 146 -300 q -54 -257 4 -277 l -19 -43 l 26 -43 l 20 -180 q 94 -227 43 -207 q 214 -248 144 -248 q 458 -141 370 -248 q 547 157 547 -35 q 484 345 547 281 q 298 408 421 408 l 223 408 l 232 461 l 590 851 l 474 851 q 260 837 321 851 l 215 694 l 168 694 l 206 909 l 760 909 l 750 854 l 388 460 q 611 369 534 450 q 688 151 688 288 q 630 -88 688 15 q 464 -245 572 -191 q 213 -300 355 -300 m 352 1192 l 492 1068 l 675 1192 l 715 1192 l 712 1170 l 553 985 l 408 985 l 313 1170 l 317 1192 l 352 1192 z "},"ǯ":{"ha":616,"x_min":-84,"x_max":622,"o":"m 144 -300 q -84 -210 2 -300 l -54 -178 q 139 -230 18 -230 q 332 -161 261 -230 q 404 27 404 -92 q 358 182 404 127 q 231 237 313 237 l 180 237 l 185 271 l 463 583 l 270 583 q 196 577 232 583 q 143 559 159 570 l 106 468 l 75 468 l 104 637 l 622 637 l 616 602 l 316 278 q 528 41 528 245 q 479 -136 528 -58 q 342 -257 431 -214 q 144 -300 254 -300 m 252 966 l 391 842 l 574 966 l 615 966 l 612 943 l 452 758 l 308 758 l 213 943 l 216 966 l 252 966 z "},"ǰ":{"ha":386,"x_min":-149,"x_max":500,"o":"m -40 -296 q -149 -275 -95 -296 l -126 -149 l -94 -149 l -84 -223 q -36 -241 -66 -241 q 34 -198 8 -241 q 75 -61 59 -155 l 191 590 l 98 607 l 103 637 l 311 637 l 193 -26 q 112 -229 169 -163 q -40 -296 54 -296 m 136 966 l 276 842 l 459 966 l 500 966 l 496 943 l 337 758 l 193 758 l 98 943 l 101 966 l 136 966 z "},"Ǳ":{"ha":1775,"x_min":-16,"x_max":1787,"o":"m 840 532 q 490 848 840 848 l 380 848 l 242 64 q 421 58 351 58 q 730 181 621 58 q 840 532 840 304 m 532 909 q 866 813 751 909 q 982 537 982 718 q 914 252 982 375 q 720 63 846 128 q 427 -3 593 -3 l 100 0 l -16 0 l -9 36 l 110 54 l 251 856 l 138 873 l 144 909 l 532 909 m 1618 851 l 1482 851 q 1250 838 1314 851 l 1204 694 l 1157 694 l 1195 909 l 1787 909 l 1776 851 l 1184 57 l 1347 57 q 1511 65 1428 57 q 1625 79 1595 73 l 1695 253 l 1743 253 l 1680 0 l 1020 0 l 1031 64 l 1618 851 z "},"ǲ":{"ha":1544,"x_min":-16,"x_max":1525,"o":"m 840 532 q 490 848 840 848 l 380 848 l 242 64 q 421 58 351 58 q 730 181 621 58 q 840 532 840 304 m 532 909 q 866 813 751 909 q 982 537 982 718 q 914 252 982 375 q 720 63 846 128 q 427 -3 593 -3 l 100 0 l -16 0 l -9 36 l 110 54 l 251 856 l 138 873 l 144 909 l 532 909 m 987 0 l 994 31 l 1376 583 l 1275 583 q 1201 577 1237 583 q 1149 559 1165 570 l 1112 468 l 1080 468 l 1110 637 l 1525 637 l 1520 604 l 1139 54 l 1272 54 q 1346 63 1310 54 q 1406 86 1382 71 l 1457 186 l 1489 186 l 1440 0 l 987 0 z "},"ǳ":{"ha":1235,"x_min":42,"x_max":1217,"o":"m 531 638 q 577 917 534 671 l 473 933 l 478 964 l 698 964 l 535 47 l 612 31 l 606 0 l 413 0 l 433 106 q 223 -14 318 -14 q 91 48 140 -14 q 42 215 42 111 q 92 433 42 331 q 229 594 142 535 q 419 654 315 654 q 531 638 483 654 m 515 568 q 467 592 492 583 q 406 601 441 601 q 286 551 342 601 q 197 412 231 500 q 163 230 163 324 q 193 114 163 157 q 273 71 222 71 q 356 95 311 71 q 441 165 400 120 l 515 568 m 679 0 l 685 31 l 1067 583 l 966 583 q 892 577 928 583 q 840 559 857 570 l 803 468 l 771 468 l 802 637 l 1217 637 l 1211 604 l 830 54 l 964 54 q 1038 63 1002 54 q 1097 86 1074 71 l 1149 186 l 1181 186 l 1132 0 l 679 0 z "},"Ǵ":{"ha":1003,"x_min":77,"x_max":973,"o":"m 468 -12 q 180 85 283 -12 q 77 355 77 182 q 147 653 77 525 q 347 850 218 781 q 642 920 475 920 q 945 879 799 920 l 911 684 l 865 684 l 867 796 q 638 865 781 865 q 420 801 518 865 q 268 616 323 736 q 213 341 213 497 q 282 121 213 200 q 477 42 352 42 q 598 59 537 42 q 702 104 659 77 l 745 343 l 631 361 l 637 397 l 973 397 l 967 361 l 875 343 l 824 58 q 639 3 722 19 q 468 -12 556 -12 m 568 985 l 572 1007 l 737 1192 l 882 1192 l 878 1166 l 606 985 l 568 985 z "},"ǵ":{"ha":694,"x_min":1,"x_max":654,"o":"m 283 71 q 368 96 321 71 q 458 165 414 121 l 533 584 q 504 591 517 588 q 478 597 491 595 q 452 600 466 599 q 419 601 437 601 q 293 550 351 601 q 201 413 235 499 q 168 230 168 327 q 198 114 168 157 q 283 71 229 71 m 449 109 q 340 20 400 55 q 232 -14 280 -14 q 96 46 146 -14 q 47 212 47 107 q 99 433 47 331 q 239 594 151 535 q 431 654 328 654 q 537 646 472 654 q 654 626 603 638 l 540 -24 q 442 -231 515 -167 q 227 -296 369 -296 q 103 -282 167 -296 q 1 -248 39 -268 l 13 -93 l 43 -93 l 68 -178 q 226 -232 123 -232 q 357 -189 309 -232 q 422 -51 406 -146 l 449 109 m 289 758 l 292 781 l 458 965 l 602 965 l 598 940 l 326 758 l 289 758 z "},"Ƕ":{"ha":1316,"x_min":-15,"x_max":1280,"o":"m 735 437 l 307 437 l 240 54 l 353 36 l 347 0 l -15 0 l -9 36 l 110 54 l 250 856 l 138 873 l 143 909 l 507 909 l 502 873 l 380 856 l 318 498 l 746 498 l 808 856 l 696 873 l 702 909 l 1065 909 l 1060 873 l 939 856 l 825 202 q 821 168 822 191 q 819 136 819 145 q 844 62 819 85 q 926 40 869 40 q 1032 82 988 40 q 1088 196 1076 125 l 1166 637 l 1280 637 l 1200 188 q 1110 38 1183 90 q 916 -14 1038 -14 q 687 136 687 -14 l 689 165 l 690 181 l 735 437 z "},"Ƿ":{"ha":829,"x_min":-68,"x_max":804,"o":"m 178 -296 l -68 -296 l -62 -260 l 57 -241 l 251 856 l 138 873 l 144 909 l 391 909 l 367 774 q 615 920 484 920 q 755 856 707 920 q 804 681 804 792 q 658 269 804 444 q 229 -9 512 95 l 178 -296 m 241 56 q 665 645 665 240 q 635 762 665 720 q 549 804 604 804 q 355 705 457 804 l 241 56 z "},"Ǹ":{"ha":926,"x_min":-10,"x_max":991,"o":"m 793 856 l 674 873 l 681 909 l 991 909 l 984 873 l 865 856 l 713 0 l 648 0 l 321 818 l 186 54 l 306 36 l 299 0 l -10 0 l -3 36 l 115 54 l 257 856 l 143 873 l 150 909 l 413 909 l 684 228 l 793 856 m 660 985 l 452 1166 l 456 1192 l 593 1192 l 701 1007 l 697 985 l 660 985 z "},"ǹ":{"ha":694,"x_min":50,"x_max":637,"o":"m 512 507 q 496 557 512 538 q 444 576 479 576 q 335 533 394 576 q 237 427 275 490 l 162 0 l 50 0 l 153 591 l 73 608 l 79 638 l 267 638 l 249 508 q 367 618 306 581 q 487 654 428 654 q 590 617 555 654 q 625 511 625 581 q 622 482 625 502 q 548 47 619 463 l 637 31 l 631 0 l 427 0 l 496 395 q 512 507 512 481 m 470 758 l 262 940 l 266 965 l 404 965 l 511 781 l 507 758 l 470 758 z "},"Ǻ":{"ha":848,"x_min":-76,"x_max":853,"o":"m 673 1000 q 655 930 673 962 q 606 882 636 899 l 768 54 l 853 36 l 846 0 l 524 0 l 531 36 l 628 54 l 585 317 l 227 317 l 87 54 l 179 36 l 172 0 l -76 0 l -69 36 l 7 54 l 454 888 q 413 937 429 907 q 398 1000 398 966 q 438 1098 398 1057 q 536 1138 479 1138 q 633 1098 593 1138 q 673 1000 673 1057 m 490 819 l 257 378 l 574 378 l 490 819 m 619 1000 q 595 1059 619 1035 q 536 1084 570 1084 q 477 1059 501 1084 q 452 1000 452 1035 q 476 942 452 966 q 532 917 499 917 l 536 917 q 594 941 568 917 q 619 1000 619 964 m 485 1156 l 488 1178 l 654 1362 l 798 1362 l 794 1337 l 522 1156 l 485 1156 z "},"ǻ":{"ha":694,"x_min":41,"x_max":703,"o":"m 535 47 l 612 31 l 606 0 l 413 0 l 433 106 q 223 -14 318 -14 q 91 46 141 -14 q 41 212 41 106 q 93 434 41 331 q 232 596 145 538 q 420 654 319 654 q 575 625 503 654 l 606 648 l 642 648 l 535 47 m 515 568 q 466 593 489 586 q 409 600 443 600 q 284 549 341 600 q 195 411 228 498 q 163 230 163 324 q 193 114 163 157 q 274 71 222 71 q 441 165 351 71 l 515 568 m 389 1037 l 393 1059 l 558 1244 l 703 1244 l 699 1219 l 427 1037 l 389 1037 m 591 866 q 550 769 591 809 q 453 728 510 728 q 356 769 396 728 q 315 866 315 809 q 356 963 315 923 q 453 1004 396 1004 q 550 963 510 1004 q 591 866 591 923 m 536 866 q 512 925 536 901 q 453 949 488 949 q 394 925 418 949 q 370 866 370 901 q 395 807 370 831 q 453 783 420 783 q 511 806 486 783 q 536 866 536 830 z "},"Ǽ":{"ha":1235,"x_min":-99,"x_max":1213,"o":"m 542 317 l 262 317 l 76 54 l 180 36 l 174 0 l -99 0 l -93 36 l -4 54 l 576 861 l 468 873 l 474 909 l 1213 909 l 1174 692 l 1129 692 l 1133 839 q 916 848 1059 848 l 767 848 l 704 493 l 949 493 l 990 602 l 1034 602 l 984 322 l 941 322 l 939 432 l 694 432 l 628 61 l 807 61 q 1038 72 981 61 l 1107 240 l 1152 240 l 1096 0 l 370 0 l 377 36 l 496 54 l 542 317 m 307 378 l 553 378 l 633 835 l 307 378 m 768 985 l 771 1007 l 937 1192 l 1081 1192 l 1077 1166 l 805 985 l 768 985 z "},"ǽ":{"ha":926,"x_min":43,"x_max":895,"o":"m 895 523 q 850 409 895 461 q 720 322 805 357 q 528 280 635 288 q 523 201 523 243 q 648 57 523 57 q 825 125 730 57 l 845 96 q 604 -14 719 -14 q 492 13 534 -14 q 421 100 450 39 q 310 16 367 47 q 206 -14 253 -14 q 89 49 134 -14 q 43 215 43 113 q 93 435 43 332 q 230 596 143 538 q 419 654 316 654 q 502 639 461 654 q 570 604 543 625 q 730 654 633 654 q 852 619 808 654 q 895 523 895 583 m 265 71 q 335 92 296 71 q 409 146 374 113 q 404 210 404 184 q 520 555 404 410 q 401 600 460 600 q 284 546 339 600 q 197 404 230 492 q 163 227 163 315 q 191 112 163 153 q 265 71 219 71 m 777 525 q 760 582 777 561 q 711 602 743 602 q 603 529 649 602 q 535 323 557 456 q 714 388 651 334 q 777 525 777 441 m 467 758 l 470 781 l 635 965 l 780 965 l 776 940 l 504 758 l 467 758 z "}}}
